<svg xmlns="http://www.w3.org/2000/svg" height="631pt" version="1.1" viewBox="0 -30 631.2514 631" width="631pt">
<defs>
<linearGradient gradientTransform="matrix(2.66564,0,0,2.66564,-16.074567,-1487.835652)" gradientUnits="userSpaceOnUse" id="linear0" x1="50.1282" x2="198.826" y1="711.1424" y2="562.4445">
<stop offset="0" style="stop-color:rgb(100%,60%,70.980392%);stop-opacity:1;" />
<stop offset="1" style="stop-color:rgb(100%,86.27451%,40.784314%);stop-opacity:1;" />
</linearGradient>
</defs>
<g id="surface1">
<path d="M 553.058594 570.125 L 500.277344 570.125 L 500.277344 525.261719 L 451.789062 452.691406 L 495.660156 423.332031 L 548.4375 502.503906 C 551.40625 506.789062 552.726562 512.070312 552.726562 517.015625 L 552.726562 570.125 Z M 553.058594 570.125 " style=" stroke:none;fill-rule:nonzero;fill:rgb(100%,86.27451%,40.784314%);fill-opacity:1;" />
<path d="M 289.164062 490.957031 L 341.941406 490.957031 L 341.941406 570.125 L 289.164062 570.125 Z M 289.164062 490.957031 " style=" stroke:none;fill-rule:nonzero;fill:rgb(100%,86.27451%,40.784314%);fill-opacity:1;" />
<path d="M 130.824219 570.125 L 78.046875 570.125 L 78.046875 517.347656 C 78.046875 512.070312 79.695312 507.121094 82.335938 502.832031 L 135.113281 423.664062 L 178.988281 453.023438 L 130.496094 525.59375 L 130.496094 570.125 Z M 130.824219 570.125 " style=" stroke:none;fill-rule:nonzero;fill:rgb(100%,86.27451%,40.784314%);fill-opacity:1;" />
<path d="M 178.328125 105.671875 L 136.101562 137.339844 L 56.933594 31.78125 L 99.15625 0.113281 Z M 178.328125 105.671875 " style=" stroke:none;fill-rule:nonzero;fill:rgb(100%,86.27451%,40.784314%);fill-opacity:1;" />
<path d="M 574.1875 31.800781 L 495.019531 137.359375 L 452.792969 105.691406 L 531.964844 0.132812 Z M 574.1875 31.800781 " style=" stroke:none;fill-rule:nonzero;fill:rgb(100%,86.27451%,40.784314%);fill-opacity:1;" />
<path d="M 550.746094 345.15625 C 545.800781 337.238281 537.554688 332.621094 528.316406 332.621094 L 102.785156 332.621094 C 88.273438 332.621094 76.394531 344.496094 76.394531 359.011719 C 76.394531 362.96875 77.386719 367.257812 79.035156 370.886719 C 144.019531 501.183594 302.355469 554.621094 432.984375 489.96875 C 484.773438 464.238281 526.335938 422.675781 552.066406 370.886719 C 556.027344 362.640625 555.695312 352.742188 550.746094 345.15625 Z M 550.746094 345.15625 " style=" stroke:none;fill-rule:nonzero;fill:rgb(100%,94.901961%,77.647059%);fill-opacity:1;" />
<path d="M 158.203125 370.886719 C 151.609375 357.691406 156.886719 341.855469 170.082031 335.589844 C 173.707031 333.941406 177.667969 332.949219 181.957031 332.949219 L 102.785156 332.949219 C 88.273438 332.949219 76.398438 344.824219 76.398438 359.339844 C 76.398438 363.296875 77.386719 367.585938 79.035156 371.214844 C 123.570312 460.941406 215.273438 517.675781 315.550781 517.347656 C 328.746094 517.347656 341.941406 516.359375 355.136719 514.378906 C 270.03125 501.84375 196.46875 448.074219 158.203125 370.886719 Z M 158.203125 370.886719 " style=" stroke:none;fill-rule:nonzero;fill:rgb(100%,92.941176%,70.588235%);fill-opacity:1;" />
<path d="M 315.550781 15.945312 C 184.59375 15.945312 78.046875 122.496094 78.046875 253.453125 C 78.046875 267.964844 89.921875 279.84375 104.4375 279.84375 L 526.667969 279.84375 C 541.183594 279.84375 553.058594 267.964844 553.058594 253.453125 C 553.058594 122.496094 446.507812 15.945312 315.550781 15.945312 Z M 315.550781 15.945312 " style=" stroke:none;fill-rule:nonzero;fill:url(#linear0);" />
<path d="M 604.847656 359.011719 L 26.257812 359.011719 C 3.167969 359.011719 -8.707031 330.3125 7.453125 313.820312 L 78.046875 253.453125 L 553.058594 253.453125 L 623.320312 313.820312 C 639.8125 330.3125 627.9375 359.011719 604.847656 359.011719 Z M 604.847656 359.011719 " style=" stroke:none;fill-rule:nonzero;fill:rgb(100%,86.27451%,40.784314%);fill-opacity:1;" />
<path d="M 447.5 121.503906 C 447.5 136.078125 435.683594 147.894531 421.109375 147.894531 C 406.535156 147.894531 394.71875 136.078125 394.71875 121.503906 C 394.71875 106.929688 406.535156 95.117188 421.109375 95.117188 C 435.683594 95.117188 447.5 106.929688 447.5 121.503906 Z M 447.5 121.503906 " style=" stroke:none;fill-rule:nonzero;fill:rgb(100%,100%,100%);fill-opacity:1;" />
</g>
</svg>