<svg xmlns="http://www.w3.org/2000/svg" height="617pt" version="1.1" viewBox="-27 1 617 617.89801" width="617pt">
<defs>
<linearGradient gradientTransform="matrix(2.66714,0,0,-2.66714,-30.700095,1786.060896)" gradientUnits="userSpaceOnUse" id="linear0" x1="31.5674" x2="99.641" y1="477.6941" y2="545.7677">
<stop offset="0" style="stop-color:rgb(100%,60%,70.980392%);stop-opacity:1;" />
<stop offset="1" style="stop-color:rgb(100%,86.27451%,40.784314%);stop-opacity:1;" />
</linearGradient>
</defs>
<g id="surface1">
<path d="M 145.910156 393.179688 L 145.910156 366.777344 L 93.101562 366.777344 L 93.101562 393.179688 L 40.292969 393.179688 L 40.292969 445.988281 L 251.527344 445.988281 L 251.527344 393.179688 Z M 145.910156 393.179688 " style=" stroke:none;fill-rule:nonzero;fill:url(#linear0);" />
<path d="M 277.929688 465.074219 L 277.929688 287.5625 L 225.121094 287.5625 L 225.121094 465.074219 L 149.671875 590.828125 L 194.953125 618 L 251.527344 523.714844 L 308.097656 618 L 353.378906 590.828125 Z M 277.929688 465.074219 " style=" stroke:none;fill-rule:nonzero;fill:rgb(100%,89.803922%,55.686275%);fill-opacity:1;" />
<path d="M 208.136719 263.195312 L 191.304688 158.925781 C 188.984375 144.535156 175.441406 134.746094 161.046875 137.058594 L 31.183594 158.011719 L 59.832031 313.863281 L 186.273438 293.46875 C 200.671875 291.144531 210.457031 277.589844 208.132812 263.195312 Z M 208.136719 263.195312 " style=" stroke:none;fill-rule:nonzero;fill:rgb(100%,86.27451%,40.784314%);fill-opacity:1;" />
<path d="M 208.136719 263.195312 L 205.59375 247.417969 L 52.136719 271.992188 L 59.835938 313.859375 L 186.277344 293.464844 C 200.671875 291.144531 210.460938 277.589844 208.136719 263.195312 Z M 208.136719 263.195312 " style=" stroke:none;fill-rule:nonzero;fill:rgb(100%,82.745098%,25.882353%);fill-opacity:1;" />
<path d="M 394.8125 259.839844 L 369.585938 103.429688 C 367.265625 89.03125 353.710938 79.246094 339.316406 81.566406 L 156.84375 110.984375 C 142.445312 113.304688 132.65625 126.859375 134.980469 141.253906 C 134.980469 141.253906 134.980469 141.253906 134.980469 141.257812 L 160.207031 297.660156 C 162.652344 311.972656 176.105469 321.699219 190.464844 319.535156 L 372.941406 290.105469 C 387.335938 287.78125 397.125 274.226562 394.800781 259.832031 Z M 394.8125 259.839844 " style=" stroke:none;fill-rule:nonzero;fill:rgb(100%,89.803922%,55.686275%);fill-opacity:1;" />
<path d="M 391.023438 236.34375 L 156.953125 277.496094 L 160.207031 297.671875 C 162.660156 311.980469 176.109375 321.699219 190.464844 319.535156 L 372.941406 290.105469 C 387.335938 287.78125 397.125 274.226562 394.800781 259.832031 Z M 391.023438 236.34375 " style=" stroke:none;fill-rule:nonzero;fill:rgb(100%,86.27451%,40.784314%);fill-opacity:1;" />
<path d="M 555.417969 260.671875 L 521.789062 52.132812 C 519.464844 37.734375 505.910156 27.945312 491.515625 30.269531 L 335.113281 55.5 C 320.714844 57.820312 310.925781 71.375 313.25 85.769531 L 346.882812 294.308594 C 349.335938 308.621094 362.792969 318.34375 377.152344 316.171875 L 533.558594 290.945312 C 547.953125 288.625 557.742188 275.070312 555.417969 260.671875 C 555.417969 260.675781 555.417969 260.671875 555.417969 260.671875 Z M 555.417969 260.671875 " style=" stroke:none;fill-rule:nonzero;fill:rgb(100%,94.901961%,77.647059%);fill-opacity:1;" />
<path d="M 549.949219 226.761719 L 341.414062 260.394531 L 346.882812 294.308594 C 349.335938 308.621094 362.792969 318.339844 377.152344 316.171875 L 533.554688 290.945312 C 547.953125 288.621094 557.742188 275.070312 555.417969 260.671875 Z M 549.949219 226.761719 " style=" stroke:none;fill-rule:nonzero;fill:rgb(100%,92.941176%,70.588235%);fill-opacity:1;" />
<path d="M 563.851562 312.796875 L 511.71875 321.203125 L 461.277344 8.40625 L 513.40625 0 Z M 563.851562 312.796875 " style=" stroke:none;fill-rule:nonzero;fill:rgb(100%,86.27451%,40.784314%);fill-opacity:1;" />
<path d="M 86.210938 336.359375 L 34.082031 344.765625 L 0.453125 136.234375 L 52.582031 127.828125 Z M 86.210938 336.359375 " style=" stroke:none;fill-rule:nonzero;fill:rgb(100%,94.901961%,77.647059%);fill-opacity:1;" />
</g>
</svg>