<svg xmlns="http://www.w3.org/2000/svg" height="633pt" version="1.1" viewBox="1 1 633.6 633" width="633pt">
<defs>
<linearGradient gradientTransform="matrix(2.668388,0,0,-2.668388,-18.154783,1823.519172)" gradientUnits="userSpaceOnUse" id="linear0" x1="203.0534" x2="226.3536" y1="649.3497" y2="672.6498">
<stop offset="0" style="stop-color:rgb(100%,60%,70.980392%);stop-opacity:1;" />
<stop offset="1" style="stop-color:rgb(100%,86.27451%,40.784314%);stop-opacity:1;" />
</linearGradient>
<linearGradient gradientTransform="matrix(2.668388,0,0,-2.668388,-18.154783,1823.519172)" gradientUnits="userSpaceOnUse" id="linear1" x1="173.3535" x2="196.6536" y1="456.2999" y2="479.6">
<stop offset="0" style="stop-color:rgb(100%,60%,70.980392%);stop-opacity:1;" />
<stop offset="1" style="stop-color:rgb(100%,86.27451%,40.784314%);stop-opacity:1;" />
</linearGradient>
</defs>
<g id="surface1">
<path d="M 317 185.21875 C 159.472656 185.21875 0 230.585938 0 317.300781 C 0 404.011719 159.472656 449.382812 317 449.382812 C 474.53125 449.382812 634 404.011719 634 317.300781 C 634 230.585938 474.527344 185.21875 317 185.21875 Z M 513.445312 367.191406 C 461.382812 386.121094 391.628906 396.550781 317 396.550781 C 242.375 396.550781 172.617188 386.121094 120.554688 367.191406 C 73.777344 350.183594 52.832031 329.878906 52.832031 317.300781 C 52.832031 304.722656 73.777344 284.417969 120.554688 267.410156 C 172.617188 248.476562 242.375 238.050781 317 238.050781 C 391.628906 238.050781 461.382812 248.476562 513.445312 267.410156 C 560.226562 284.417969 581.167969 304.722656 581.167969 317.300781 C 581.167969 329.878906 560.226562 350.183594 513.445312 367.191406 Z M 513.445312 367.191406 " style=" stroke:none;fill-rule:nonzero;fill:rgb(100%,86.27451%,40.784314%);fill-opacity:1;" />
<path d="M 317 105.96875 C 200.285156 105.96875 105.667969 200.582031 105.667969 317.300781 C 105.667969 434.015625 200.285156 528.632812 317 528.632812 C 433.71875 528.632812 528.335938 434.015625 528.335938 317.300781 C 528.203125 200.640625 433.664062 106.097656 317 105.96875 Z M 317 105.96875 " style=" stroke:none;fill-rule:nonzero;fill:rgb(100%,94.901961%,77.647059%);fill-opacity:1;" />
<path d="M 369.832031 502.21875 C 253.164062 502.265625 158.546875 407.726562 158.5 291.058594 C 158.46875 221.464844 192.71875 156.320312 250.066406 116.894531 C 139.355469 153.757812 79.492188 273.394531 116.355469 384.105469 C 153.222656 494.820312 272.859375 554.683594 383.570312 517.816406 C 402.464844 511.527344 420.375 502.59375 436.765625 491.289062 C 415.195312 498.527344 392.589844 502.21875 369.832031 502.21875 Z M 369.832031 502.21875 " style=" stroke:none;fill-rule:nonzero;fill:rgb(100%,92.941176%,70.588235%);fill-opacity:1;" />
<path d="M 513.445312 367.191406 C 461.382812 386.121094 391.628906 396.550781 317 396.550781 C 242.375 396.550781 172.617188 386.121094 120.554688 367.191406 C 109.164062 363.128906 98.101562 358.203125 87.460938 352.453125 C 81.882812 369.800781 76.441406 386.890625 69.46875 402.902344 C 130.613281 433.613281 224.140625 449.382812 317 449.382812 C 417.382812 449.382812 518.542969 430.957031 578.738281 395.152344 C 570.125 379.652344 561.496094 364.175781 552.59375 348.972656 C 540.167969 356.300781 527.054688 362.402344 513.445312 367.191406 Z M 513.445312 367.191406 " style=" stroke:none;fill-rule:nonzero;fill:rgb(100%,86.27451%,40.784314%);fill-opacity:1;" />
<path d="M 79.25 158.800781 C 35.480469 158.800781 0 123.320312 0 79.550781 C 0 35.78125 35.480469 0.300781 79.25 0.300781 C 123.019531 0.300781 158.5 35.78125 158.5 79.550781 C 158.453125 123.296875 122.996094 158.75 79.25 158.800781 Z M 79.25 53.132812 C 64.660156 53.132812 52.832031 64.960938 52.832031 79.550781 C 52.832031 94.140625 64.660156 105.96875 79.25 105.96875 C 93.839844 105.96875 105.667969 94.140625 105.667969 79.550781 C 105.652344 64.96875 93.832031 53.148438 79.25 53.132812 Z M 79.25 53.132812 " style=" stroke:none;fill-rule:nonzero;fill:rgb(100%,92.941176%,70.588235%);fill-opacity:1;" />
<path d="M 607.582031 53.132812 C 582.0625 53.105469 561.382812 32.425781 561.355469 6.902344 C 561.355469 3.257812 558.398438 0.300781 554.75 0.300781 C 551.101562 0.300781 548.144531 3.257812 548.144531 6.902344 C 548.117188 32.421875 527.4375 53.105469 501.917969 53.132812 C 498.269531 53.132812 495.3125 56.089844 495.3125 59.738281 C 495.3125 63.386719 498.269531 66.339844 501.917969 66.339844 C 527.4375 66.371094 548.117188 87.050781 548.144531 112.570312 C 548.144531 116.21875 551.101562 119.175781 554.75 119.175781 C 558.398438 119.175781 561.355469 116.21875 561.355469 112.570312 C 561.382812 87.050781 582.0625 66.371094 607.582031 66.339844 C 611.230469 66.339844 614.1875 63.386719 614.1875 59.738281 C 614.1875 56.089844 611.230469 53.132812 607.582031 53.132812 Z M 607.582031 53.132812 " style=" stroke:none;fill-rule:nonzero;fill:url(#linear0);" />
<path d="M 528.335938 568.257812 C 502.8125 568.230469 482.132812 547.550781 482.105469 522.027344 C 482.105469 518.382812 479.148438 515.425781 475.5 515.425781 C 471.851562 515.425781 468.898438 518.382812 468.898438 522.027344 C 468.867188 547.546875 448.1875 568.230469 422.667969 568.257812 C 419.019531 568.257812 416.0625 571.214844 416.0625 574.863281 C 416.0625 578.507812 419.019531 581.464844 422.667969 581.464844 C 448.1875 581.496094 468.867188 602.175781 468.898438 627.695312 C 468.898438 631.34375 471.851562 634.300781 475.5 634.300781 C 479.148438 634.300781 482.105469 631.34375 482.105469 627.695312 C 482.132812 602.175781 502.8125 581.496094 528.335938 581.464844 C 531.980469 581.464844 534.9375 578.507812 534.9375 574.863281 C 534.9375 571.214844 531.980469 568.257812 528.335938 568.257812 Z M 528.335938 568.257812 " style=" stroke:none;fill-rule:nonzero;fill:url(#linear1);" />
<path d="M 237.75 317.300781 C 237.75 331.890625 225.921875 343.71875 211.332031 343.71875 C 196.742188 343.71875 184.917969 331.890625 184.917969 317.300781 C 184.917969 302.710938 196.742188 290.882812 211.332031 290.882812 C 225.921875 290.882812 237.75 302.710938 237.75 317.300781 Z M 237.75 317.300781 " style=" stroke:none;fill-rule:nonzero;fill:rgb(100%,89.803922%,55.686275%);fill-opacity:1;" />
<path d="M 317 343.71875 C 317 358.308594 305.171875 370.132812 290.582031 370.132812 C 275.996094 370.132812 264.167969 358.308594 264.167969 343.71875 C 264.167969 329.128906 275.996094 317.300781 290.582031 317.300781 C 305.171875 317.300781 317 329.128906 317 343.71875 Z M 317 343.71875 " style=" stroke:none;fill-rule:nonzero;fill:rgb(100%,89.803922%,55.686275%);fill-opacity:1;" />
<path d="M 264.167969 238.050781 C 264.167969 252.640625 252.339844 264.46875 237.75 264.46875 C 223.160156 264.46875 211.332031 252.640625 211.332031 238.050781 C 211.332031 223.460938 223.160156 211.632812 237.75 211.632812 C 252.339844 211.632812 264.167969 223.460938 264.167969 238.050781 Z M 264.167969 238.050781 " style=" stroke:none;fill-rule:nonzero;fill:rgb(100%,89.803922%,55.686275%);fill-opacity:1;" />
</g>
</svg>