<svg xmlns="http://www.w3.org/2000/svg" height="633pt" version="1.1" viewBox="-22 0 633 633.69021" width="633pt">
<defs>
<linearGradient gradientTransform="matrix(2.668005,0,0,2.668005,-39.019556,-1461.53042)" gradientUnits="userSpaceOnUse" id="linear0" x1="84.2726" x2="162.3908" y1="669.2718" y2="591.1537">
<stop offset="0" style="stop-color:rgb(100%,60%,70.980392%);stop-opacity:1;" />
<stop offset="1" style="stop-color:rgb(100%,86.27451%,40.784314%);stop-opacity:1;" />
</linearGradient>
</defs>
<g id="surface1">
<path d="M 60.445312 28.8125 C 38.65625 33.105469 20.164062 47.304688 10.589844 67.441406 C -36.292969 161.210938 92.800781 255.304688 98.082031 259.265625 L 128.789062 216.347656 C 103.367188 198.1875 35.683594 135.785156 58.132812 91.214844 C 62.097656 83.621094 66.386719 81.640625 70.351562 80.980469 C 100.726562 75.367188 165.4375 118.949219 201.753906 151.964844 L 237.410156 113.003906 C 219.253906 96.496094 127.136719 16.597656 60.445312 28.8125 Z M 60.445312 28.8125 " style=" stroke:none;fill-rule:nonzero;fill:rgb(100%,96.470588%,85.098039%);fill-opacity:1;" />
<path d="M 483.382812 0.0898438 L 536.207031 0.0898438 L 536.207031 237.804688 L 483.382812 237.804688 Z M 483.382812 0.0898438 " style=" stroke:none;fill-rule:nonzero;fill:rgb(100%,86.27451%,40.784314%);fill-opacity:1;" />
<path d="M 536.207031 158.566406 L 483.382812 158.566406 C 468.855469 158.566406 456.96875 170.453125 456.96875 184.980469 L 456.96875 264.21875 C 456.96875 278.746094 468.855469 290.632812 483.382812 290.632812 L 536.207031 290.632812 C 565.261719 290.632812 589.03125 266.859375 589.03125 237.804688 L 589.03125 211.394531 C 589.03125 182.339844 565.261719 158.566406 536.207031 158.566406 Z M 536.207031 158.566406 " style=" stroke:none;fill-rule:nonzero;fill:rgb(100%,92.941176%,70.588235%);fill-opacity:1;" />
<path d="M 298.492188 0.0898438 C 181.945312 0.0898438 87.1875 94.847656 87.1875 211.394531 L 87.1875 396.285156 C 87.1875 410.8125 99.074219 422.695312 113.601562 422.695312 L 483.382812 422.695312 C 497.910156 422.695312 509.796875 410.8125 509.796875 396.285156 L 509.796875 211.394531 C 509.792969 94.847656 415.039062 0.0898438 298.492188 0.0898438 Z M 298.492188 0.0898438 " style=" stroke:none;fill-rule:nonzero;fill:rgb(100%,89.803922%,55.686275%);fill-opacity:1;" />
<path d="M 140.015625 396.285156 L 140.015625 211.394531 C 140.015625 105.082031 219.253906 15.277344 324.90625 1.742188 C 209.347656 -13.117188 103.695312 68.765625 88.839844 184.320312 C 87.847656 193.234375 87.1875 202.148438 87.1875 211.394531 L 87.1875 396.285156 C 87.1875 410.8125 99.074219 422.695312 113.601562 422.695312 L 166.425781 422.695312 C 151.898438 422.695312 140.015625 410.8125 140.015625 396.285156 Z M 140.015625 396.285156 " style=" stroke:none;fill-rule:nonzero;fill:rgb(100%,86.27451%,40.784314%);fill-opacity:1;" />
<path d="M 70.351562 80.980469 C 100.726562 75.367188 165.4375 118.949219 201.753906 151.964844 L 237.410156 113.003906 C 219.253906 96.496094 127.136719 16.597656 60.445312 28.8125 C 38.65625 33.105469 20.164062 47.304688 10.589844 67.441406 C -17.144531 123.242188 16.863281 179.039062 50.539062 216.015625 C 60.113281 201.160156 76.625 187.621094 80.253906 169.464844 C 60.445312 144.699219 45.917969 115.316406 58.132812 90.882812 C 61.765625 83.289062 66.058594 81.640625 70.351562 80.980469 Z M 70.351562 80.980469 " style=" stroke:none;fill-rule:nonzero;fill:rgb(100%,96.470588%,85.098039%);fill-opacity:1;" />
<path d="M 456.96875 211.394531 C 456.96875 298.917969 386.015625 369.871094 298.492188 369.871094 C 210.96875 369.871094 140.015625 298.917969 140.015625 211.394531 C 140.015625 123.867188 210.96875 52.917969 298.492188 52.917969 C 386.015625 52.917969 456.96875 123.867188 456.96875 211.394531 Z M 456.96875 211.394531 " style=" stroke:none;fill-rule:nonzero;fill:rgb(100%,94.901961%,77.647059%);fill-opacity:1;" />
<path d="M 404.144531 211.394531 C 404.144531 269.742188 356.839844 317.046875 298.492188 317.046875 C 240.140625 317.046875 192.839844 269.742188 192.839844 211.394531 C 192.839844 153.042969 240.140625 105.742188 298.492188 105.742188 C 356.839844 105.742188 404.144531 153.042969 404.144531 211.394531 Z M 404.144531 211.394531 " style=" stroke:none;fill-rule:nonzero;fill:url(#linear0);" />
<path d="M 483.382812 369.871094 L 113.601562 369.871094 C 55.160156 369.871094 7.949219 417.085938 7.949219 475.523438 L 7.949219 634 L 589.03125 634 L 589.03125 475.523438 C 589.03125 417.085938 541.820312 369.871094 483.382812 369.871094 Z M 483.382812 369.871094 " style=" stroke:none;fill-rule:nonzero;fill:rgb(100%,92.941176%,70.588235%);fill-opacity:1;" />
<path d="M 166.425781 369.871094 L 113.601562 369.871094 C 55.164062 369.871094 7.949219 417.085938 7.949219 475.523438 L 7.949219 634 L 60.777344 634 L 60.777344 475.523438 C 60.777344 417.085938 107.988281 369.871094 166.425781 369.871094 Z M 166.425781 369.871094 " style=" stroke:none;fill-rule:nonzero;fill:rgb(100%,89.803922%,55.686275%);fill-opacity:1;" />
<path d="M 351.316406 184.980469 C 351.316406 199.566406 339.492188 211.394531 324.90625 211.394531 C 310.316406 211.394531 298.492188 199.566406 298.492188 184.980469 C 298.492188 170.394531 310.316406 158.566406 324.90625 158.566406 C 339.492188 158.566406 351.316406 170.394531 351.316406 184.980469 Z M 351.316406 184.980469 " style=" stroke:none;fill-rule:nonzero;fill:rgb(100%,100%,100%);fill-opacity:1;" />
<path d="M 272.078125 369.871094 L 324.90625 369.871094 L 324.90625 634 L 272.078125 634 Z M 272.078125 369.871094 " style=" stroke:none;fill-rule:nonzero;fill:rgb(100%,86.27451%,40.784314%);fill-opacity:1;" />
<path d="M 377.730469 501.9375 L 483.382812 501.9375 L 483.382812 554.761719 L 377.730469 554.761719 Z M 377.730469 501.9375 " style=" stroke:none;fill-rule:nonzero;fill:rgb(100%,96.470588%,85.098039%);fill-opacity:1;" />
</g>
</svg>