<svg xmlns="http://www.w3.org/2000/svg" height="633pt" version="1.1" viewBox="0 0 633 633.105" width="633pt">
<defs>
<linearGradient gradientTransform="matrix(2.666262,0,0,2.666262,-18.415286,-1460.575532)" gradientUnits="userSpaceOnUse" id="linear0" x1="66.2648" x2="176.9356" y1="725.7583" y2="615.0876">
<stop offset="0" style="stop-color:rgb(100%,60%,70.980392%);stop-opacity:1;" />
<stop offset="1" style="stop-color:rgb(100%,86.27451%,40.784314%);stop-opacity:1;" />
</linearGradient>
</defs>
<g id="surface1">
<path d="M 622.578125 295.21875 L 538.441406 232.199219 C 536.792969 227.582031 534.8125 223.289062 532.832031 218.671875 L 547.679688 114.738281 C 549.988281 97.582031 534.8125 82.734375 517.65625 84.714844 L 413.722656 99.5625 C 409.433594 97.582031 404.8125 95.601562 400.195312 93.953125 L 337.503906 10.144531 C 326.945312 -3.382812 305.828125 -3.382812 295.269531 10.144531 L 232.25 94.28125 C 227.632812 95.933594 223.34375 97.910156 218.722656 99.890625 L 114.792969 85.042969 C 97.632812 82.734375 82.785156 97.910156 84.765625 115.070312 L 99.613281 219 C 97.632812 223.289062 95.652344 227.910156 94.003906 232.527344 L 10.199219 295.21875 C -3.328125 305.777344 -3.328125 326.894531 10.199219 337.453125 L 94.335938 400.472656 C 95.984375 405.089844 97.964844 409.378906 99.945312 414 L 85.097656 517.933594 C 82.785156 535.089844 97.964844 549.9375 115.121094 547.957031 L 219.054688 533.109375 C 223.34375 535.089844 227.960938 537.070312 232.582031 538.71875 L 295.601562 622.855469 C 306.160156 636.382812 327.277344 636.382812 337.835938 622.855469 L 400.855469 538.71875 C 405.472656 537.070312 409.761719 535.089844 414.382812 533.109375 L 518.316406 547.957031 C 535.472656 550.265625 550.320312 535.089844 548.339844 517.933594 L 533.492188 414 C 535.472656 409.710938 537.453125 405.089844 539.101562 400.472656 L 623.238281 337.453125 C 636.105469 326.894531 636.105469 305.777344 622.578125 295.21875 Z M 622.578125 295.21875 " style=" stroke:none;fill-rule:nonzero;fill:rgb(100%,92.941176%,70.588235%);fill-opacity:1;" />
<path d="M 316.386719 157.960938 C 228.953125 157.960938 158.015625 228.898438 158.015625 316.335938 C 158.015625 403.769531 228.953125 474.710938 316.386719 474.710938 C 403.824219 474.710938 474.761719 403.769531 474.761719 316.335938 C 474.761719 228.898438 403.824219 157.960938 316.386719 157.960938 Z M 316.386719 157.960938 " style=" stroke:none;fill-rule:nonzero;fill:url(#linear0);" />
<path d="M 342.785156 237.148438 C 342.785156 251.726562 330.964844 263.542969 316.386719 263.542969 C 301.808594 263.542969 289.992188 251.726562 289.992188 237.148438 C 289.992188 222.570312 301.808594 210.753906 316.386719 210.753906 C 330.964844 210.753906 342.785156 222.570312 342.785156 237.148438 Z M 342.785156 237.148438 " style=" stroke:none;fill-rule:nonzero;fill:rgb(100%,96.470588%,85.098039%);fill-opacity:1;" />
<path d="M 421.96875 316.335938 C 421.96875 330.914062 410.152344 342.730469 395.574219 342.730469 C 380.996094 342.730469 369.179688 330.914062 369.179688 316.335938 C 369.179688 301.757812 380.996094 289.941406 395.574219 289.941406 C 410.152344 289.941406 421.96875 301.757812 421.96875 316.335938 Z M 421.96875 316.335938 " style=" stroke:none;fill-rule:nonzero;fill:rgb(100%,96.470588%,85.098039%);fill-opacity:1;" />
<path d="M 263.597656 316.335938 C 263.597656 330.914062 251.777344 342.730469 237.199219 342.730469 C 222.625 342.730469 210.804688 330.914062 210.804688 316.335938 C 210.804688 301.757812 222.625 289.941406 237.199219 289.941406 C 251.777344 289.941406 263.597656 301.757812 263.597656 316.335938 Z M 263.597656 316.335938 " style=" stroke:none;fill-rule:nonzero;fill:rgb(100%,96.470588%,85.098039%);fill-opacity:1;" />
<path d="M 342.785156 395.523438 C 342.785156 410.101562 330.964844 421.917969 316.386719 421.917969 C 301.808594 421.917969 289.992188 410.101562 289.992188 395.523438 C 289.992188 380.945312 301.808594 369.125 316.386719 369.125 C 330.964844 369.125 342.785156 380.945312 342.785156 395.523438 Z M 342.785156 395.523438 " style=" stroke:none;fill-rule:nonzero;fill:rgb(100%,96.470588%,85.098039%);fill-opacity:1;" />
</g>
</svg>