<svg xmlns="http://www.w3.org/2000/svg" height="628pt" version="1.1" viewBox="-77 0 628 628.07251" width="628pt">
<defs>
<linearGradient gradientTransform="matrix(2.666394,0,0,2.666394,-90.157244,-1456.52351)" gradientUnits="userSpaceOnUse" id="linear0" x1="81.0236" x2="144.756" y1="642.9796" y2="579.2471">
<stop offset="0" style="stop-color:rgb(100%,60%,70.980392%);stop-opacity:1;" />
<stop offset="1" style="stop-color:rgb(100%,86.27451%,40.784314%);stop-opacity:1;" />
</linearGradient>
<linearGradient gradientTransform="matrix(2.666394,0,0,2.666394,-90.157244,-1456.52351)" gradientUnits="userSpaceOnUse" id="linear1" x1="99.9982" x2="159.3994" y1="654.9424" y2="595.5413">
<stop offset="0" style="stop-color:rgb(100%,60%,70.980392%);stop-opacity:1;" />
<stop offset="1" style="stop-color:rgb(100%,86.27451%,40.784314%);stop-opacity:1;" />
</linearGradient>
<linearGradient gradientTransform="matrix(2.666394,0,0,2.666394,-90.157244,-1456.52351)" gradientUnits="userSpaceOnUse" id="linear2" x1="132.7399" x2="161.7197" y1="654.0663" y2="625.0865">
<stop offset="0" style="stop-color:rgb(100%,60%,70.980392%);stop-opacity:1;" />
<stop offset="1" style="stop-color:rgb(100%,86.27451%,40.784314%);stop-opacity:1;" />
</linearGradient>
</defs>
<g id="surface1">
<path d="M 211.121094 416.824219 L 263.914062 416.824219 C 278.433594 416.824219 290.3125 428.703125 290.3125 443.222656 L 290.3125 496.015625 C 290.3125 510.535156 278.433594 522.414062 263.914062 522.414062 L 211.121094 522.414062 C 196.601562 522.414062 184.722656 510.535156 184.722656 496.015625 L 184.722656 443.222656 C 184.722656 428.703125 196.601562 416.824219 211.121094 416.824219 Z M 211.121094 416.824219 " style=" stroke:none;fill-rule:nonzero;fill:rgb(100%,89.803922%,55.686275%);fill-opacity:1;" />
<path d="M 343.105469 469.617188 L 448.691406 469.617188 C 470.140625 469.617188 482.679688 444.542969 469.808594 427.382812 L 343.105469 258.441406 Z M 343.105469 469.617188 " style=" stroke:none;fill-rule:nonzero;fill:rgb(100%,86.27451%,40.784314%);fill-opacity:1;" />
<path d="M 131.929688 469.617188 L 26.339844 469.617188 C 4.894531 469.617188 -7.644531 444.542969 5.222656 427.382812 L 131.929688 258.441406 Z M 131.929688 469.617188 " style=" stroke:none;fill-rule:nonzero;fill:rgb(100%,86.27451%,40.784314%);fill-opacity:1;" />
<path d="M 252.695312 4.703125 C 243.457031 -1.566406 231.578125 -1.566406 222.339844 4.703125 C 187.691406 29.121094 105.53125 96.101562 105.53125 179.25 L 105.53125 469.617188 L 369.5 469.617188 L 369.5 179.25 C 369.5 96.101562 287.339844 29.121094 252.695312 4.703125 Z M 252.695312 4.703125 " style=" stroke:none;fill-rule:nonzero;fill:rgb(100%,94.901961%,77.647059%);fill-opacity:1;" />
<path d="M 263.914062 12.949219 C 259.953125 9.980469 255.996094 7.011719 252.695312 4.703125 C 243.457031 -1.566406 231.578125 -1.566406 222.339844 4.703125 C 187.691406 29.121094 105.53125 96.101562 105.53125 179.25 L 105.53125 469.617188 L 158.324219 469.617188 L 158.324219 179.25 C 158.324219 104.019531 225.308594 41.988281 263.914062 12.949219 Z M 263.914062 12.949219 " style=" stroke:none;fill-rule:nonzero;fill:rgb(100%,92.941176%,70.588235%);fill-opacity:1;" />
<path d="M 263.914062 548.808594 L 316.707031 548.808594 L 316.707031 628 L 263.914062 628 Z M 263.914062 548.808594 " style=" stroke:none;fill-rule:nonzero;fill:rgb(100%,94.901961%,77.647059%);fill-opacity:1;" />
<path d="M 158.324219 548.808594 L 211.121094 548.808594 L 211.121094 628 L 158.324219 628 Z M 158.324219 548.808594 " style=" stroke:none;fill-rule:nonzero;fill:rgb(100%,94.901961%,77.647059%);fill-opacity:1;" />
<path d="M 395.898438 522.414062 L 448.691406 522.414062 L 448.691406 628 L 395.898438 628 Z M 395.898438 522.414062 " style=" stroke:none;fill-rule:nonzero;fill:rgb(100%,94.901961%,77.647059%);fill-opacity:1;" />
<path d="M 26.339844 522.414062 L 79.136719 522.414062 L 79.136719 628 L 26.339844 628 Z M 26.339844 522.414062 " style=" stroke:none;fill-rule:nonzero;fill:rgb(100%,94.901961%,77.647059%);fill-opacity:1;" />
<path d="M 237.515625 100.0625 C 281.402344 100.0625 316.707031 135.367188 316.707031 179.25 L 316.707031 258.441406 L 158.324219 258.441406 L 158.324219 179.25 C 158.324219 135.367188 193.632812 100.0625 237.515625 100.0625 Z M 237.515625 100.0625 " style=" stroke:none;fill-rule:nonzero;fill:rgb(100%,100%,100%);fill-opacity:1;" />
<path d="M 288.332031 118.539062 C 279.421875 111.28125 269.191406 105.671875 257.976562 102.699219 L 158.324219 202.347656 L 158.324219 248.542969 Z M 288.332031 118.539062 " style=" stroke:none;fill-rule:nonzero;fill:url(#linear0);" />
<path d="M 301.199219 132.066406 L 174.824219 258.441406 L 240.816406 258.441406 L 316.707031 182.550781 L 316.707031 179.25 C 316.707031 162.425781 311.097656 145.597656 301.199219 132.066406 Z M 301.199219 132.066406 " style=" stroke:none;fill-rule:nonzero;fill:url(#linear1);" />
<path d="M 268.863281 258.441406 L 316.707031 258.441406 L 316.707031 210.597656 Z M 268.863281 258.441406 " style=" stroke:none;fill-rule:nonzero;fill:url(#linear2);" />
<path d="M 316.707031 271.640625 L 158.324219 271.640625 C 151.066406 271.640625 145.128906 265.703125 145.128906 258.441406 L 145.128906 179.25 C 145.128906 128.109375 186.371094 86.863281 237.515625 86.863281 C 288.660156 86.863281 329.90625 128.109375 329.90625 179.25 L 329.90625 258.441406 C 329.90625 265.703125 323.96875 271.640625 316.707031 271.640625 Z M 171.523438 245.246094 L 303.507812 245.246094 L 303.507812 179.25 C 303.507812 142.957031 273.8125 113.257812 237.515625 113.257812 C 201.222656 113.257812 171.523438 142.957031 171.523438 179.25 Z M 171.523438 245.246094 " style=" stroke:none;fill-rule:nonzero;fill:rgb(100%,89.803922%,55.686275%);fill-opacity:1;" />
</g>
</svg>