<svg xmlns="http://www.w3.org/2000/svg" height="633.599pt" version="1.1" viewBox="1 1 633.599 633.599" width="633.599pt">
<defs>
<linearGradient gradientTransform="matrix(2.668388,0,0,2.668388,-18.154783,-1463.804345)" gradientUnits="userSpaceOnUse" id="linear0" x1="17.4308" x2="40.7267" y1="582.5024" y2="559.2064">
<stop offset="0" style="stop-color:rgb(100%,50.196078%,63.529412%);stop-opacity:1;" />
<stop offset="1" style="stop-color:rgb(100%,86.27451%,40.784314%);stop-opacity:1;" />
</linearGradient>
<linearGradient gradientTransform="matrix(2.668388,0,0,2.668388,-18.154783,-1463.804345)" gradientUnits="userSpaceOnUse" id="linear1" x1="17.4307" x2="40.7267" y1="775.5522" y2="752.2562">
<stop offset="0" style="stop-color:rgb(100%,60%,70.980392%);stop-opacity:1;" />
<stop offset="1" style="stop-color:rgb(100%,86.27451%,40.784314%);stop-opacity:1;" />
</linearGradient>
<linearGradient gradientTransform="matrix(2.668388,0,0,2.668388,-18.154783,-1463.804345)" gradientUnits="userSpaceOnUse" id="linear2" x1="210.4806" x2="233.7765" y1="775.5522" y2="752.2562">
<stop offset="0" style="stop-color:rgb(100%,60%,70.980392%);stop-opacity:1;" />
<stop offset="1" style="stop-color:rgb(100%,86.27451%,40.784314%);stop-opacity:1;" />
</linearGradient>
</defs>
<g id="surface1">
<path d="M 317 237.75 C 273.082031 237.75 237.75 273.082031 237.75 317 C 237.75 360.917969 273.082031 396.25 317 396.25 C 360.917969 396.25 396.25 360.917969 396.25 317 C 396.25 273.414062 360.589844 237.75 317 237.75 Z M 317 343.417969 C 302.472656 343.417969 290.582031 331.53125 290.582031 317 C 290.582031 302.472656 302.472656 290.582031 317 290.582031 C 331.53125 290.582031 343.417969 302.472656 343.417969 317 C 343.417969 331.53125 331.53125 343.417969 317 343.417969 Z M 317 343.417969 " style=" stroke:none;fill-rule:nonzero;fill:rgb(100%,86.27451%,40.784314%);fill-opacity:1;" />
<path d="M 317 158.5 C 229.496094 158.5 158.5 229.496094 158.5 317 C 158.5 404.503906 229.496094 475.5 317 475.5 C 404.503906 475.5 475.5 404.503906 475.5 317 C 475.5 229.496094 404.503906 158.5 317 158.5 Z M 317 422.667969 C 258.554688 422.667969 211.332031 375.449219 211.332031 317 C 211.332031 258.554688 258.554688 211.332031 317 211.332031 C 375.449219 211.332031 422.667969 258.554688 422.667969 317 C 422.667969 375.449219 375.449219 422.667969 317 422.667969 Z M 317 422.667969 " style=" stroke:none;fill-rule:nonzero;fill:rgb(100%,89.803922%,55.686275%);fill-opacity:1;" />
<path d="M 581.167969 317 L 528.335938 317 C 528.335938 229.496094 457.339844 158.5 369.832031 158.5 C 282.328125 158.5 211.332031 229.496094 211.332031 317 L 158.5 317 C 158.5 200.4375 253.269531 105.667969 369.832031 105.667969 C 486.398438 105.667969 581.167969 200.4375 581.167969 317 Z M 581.167969 317 " style=" stroke:none;fill-rule:nonzero;fill:rgb(100%,89.803922%,55.686275%);fill-opacity:1;" />
<path d="M 317 607.582031 C 171.046875 607.582031 52.832031 489.367188 52.832031 343.417969 L 105.667969 343.417969 C 105.667969 459.980469 200.4375 554.75 317 554.75 C 433.5625 554.75 528.335938 459.980469 528.335938 343.417969 L 581.167969 343.417969 C 581.167969 489.371094 462.953125 607.253906 317 607.582031 Z M 317 607.582031 " style=" stroke:none;fill-rule:nonzero;fill:rgb(100%,92.941176%,70.588235%);fill-opacity:1;" />
<path d="M 105.667969 317 L 52.832031 317 C 52.832031 141.988281 194.824219 0 369.832031 0 C 464.605469 0 554.089844 42.265625 614.519531 115.242188 L 573.902344 148.925781 C 480.785156 36.324219 314.359375 20.472656 201.757812 113.261719 C 141 163.453125 105.667969 238.082031 105.667969 317 Z M 105.667969 317 " style=" stroke:none;fill-rule:nonzero;fill:rgb(100%,94.901961%,77.647059%);fill-opacity:1;" />
<path d="M 6.605469 66.042969 C 32.03125 66.042969 52.832031 86.84375 52.832031 112.269531 C 52.832031 115.902344 55.804688 118.875 59.4375 118.875 C 63.070312 118.875 66.042969 115.902344 66.042969 112.269531 C 66.042969 86.84375 86.84375 66.042969 112.269531 66.042969 C 115.902344 66.042969 118.875 63.070312 118.875 59.4375 C 118.875 55.804688 115.902344 52.832031 112.269531 52.832031 C 86.84375 52.832031 66.042969 32.03125 66.042969 6.605469 C 66.042969 2.972656 63.070312 0 59.4375 0 C 55.804688 0 52.832031 2.972656 52.832031 6.605469 C 52.832031 32.03125 32.03125 52.832031 6.605469 52.832031 C 2.972656 52.832031 0 55.804688 0 59.4375 C 0 63.070312 2.972656 66.042969 6.605469 66.042969 Z M 6.605469 66.042969 " style=" stroke:none;fill-rule:nonzero;fill:url(#linear0);" />
<path d="M 6.605469 581.167969 C 32.03125 581.167969 52.832031 601.96875 52.832031 627.394531 C 52.832031 631.027344 55.804688 634 59.4375 634 C 63.070312 634 66.042969 631.027344 66.042969 627.394531 C 66.042969 601.96875 86.84375 581.167969 112.269531 581.167969 C 115.902344 581.167969 118.875 578.195312 118.875 574.5625 C 118.875 570.929688 115.902344 567.957031 112.269531 567.957031 C 86.84375 567.957031 66.042969 547.15625 66.042969 521.730469 C 66.042969 518.097656 63.070312 515.125 59.4375 515.125 C 55.804688 515.125 52.832031 518.097656 52.832031 521.730469 C 52.832031 547.15625 32.03125 567.957031 6.605469 567.957031 C 2.972656 567.957031 0 570.929688 0 574.5625 C 0 578.195312 2.972656 581.167969 6.605469 581.167969 Z M 6.605469 581.167969 " style=" stroke:none;fill-rule:nonzero;fill:url(#linear1);" />
<path d="M 521.730469 581.167969 C 547.15625 581.167969 567.957031 601.96875 567.957031 627.394531 C 567.957031 631.027344 570.929688 634 574.5625 634 C 578.195312 634 581.167969 631.027344 581.167969 627.394531 C 581.167969 601.96875 601.96875 581.167969 627.394531 581.167969 C 631.027344 581.167969 634 578.195312 634 574.5625 C 634 570.929688 631.027344 567.957031 627.394531 567.957031 C 601.96875 567.957031 581.167969 547.15625 581.167969 521.730469 C 581.167969 518.097656 578.195312 515.125 574.5625 515.125 C 570.929688 515.125 567.957031 518.097656 567.957031 521.730469 C 567.957031 547.15625 547.15625 567.957031 521.730469 567.957031 C 518.097656 567.957031 515.125 570.929688 515.125 574.5625 C 515.125 578.195312 518.097656 581.167969 521.730469 581.167969 Z M 521.730469 581.167969 " style=" stroke:none;fill-rule:nonzero;fill:url(#linear2);" />
</g>
</svg>