<svg xmlns="http://www.w3.org/2000/svg" height="612pt" version="1.1" viewBox="1 0 612.71675 612" width="612pt">
<defs>
<linearGradient gradientTransform="matrix(2.667932,0,0,-2.667932,-1.644059,1782.539116)" gradientUnits="userSpaceOnUse" id="linear0" x1="113.022" x2="176.5998" y1="550.6429" y2="614.2207">
<stop offset="0" style="stop-color:rgb(100%,60%,70.980392%);stop-opacity:1;" />
<stop offset="1" style="stop-color:rgb(100%,86.27451%,40.784314%);stop-opacity:1;" />
</linearGradient>
</defs>
<g id="surface1">
<path d="M 418.613281 381.515625 L 381.261719 418.867188 L 301.089844 338.691406 L 338.441406 301.339844 Z M 418.613281 381.515625 " style=" stroke:none;fill-rule:nonzero;fill:rgb(100%,86.27451%,40.784314%);fill-opacity:1;" />
<path d="M 605.371094 456.222656 L 474.632812 325.484375 C 464.257812 315.3125 447.65625 315.3125 437.28125 325.484375 L 325.226562 437.539062 C 314.914062 447.855469 314.914062 464.574219 325.226562 474.890625 L 455.964844 605.628906 C 466.335938 615.804688 482.945312 615.804688 493.316406 605.628906 L 605.371094 493.574219 C 615.542969 483.199219 615.542969 466.597656 605.371094 456.222656 Z M 605.371094 456.222656 " style=" stroke:none;fill-rule:nonzero;fill:rgb(100%,94.901961%,77.647059%);fill-opacity:1;" />
<path d="M 474.640625 437.546875 L 399.9375 362.839844 L 362.582031 400.195312 L 437.285156 474.898438 L 381.257812 530.925781 L 418.609375 568.277344 L 474.640625 512.25 L 530.664062 568.277344 L 568.019531 530.925781 L 511.988281 474.898438 L 568.019531 418.871094 L 530.667969 381.515625 Z M 474.640625 437.546875 " style=" stroke:none;fill-rule:nonzero;fill:rgb(100%,86.27451%,40.784314%);fill-opacity:1;" />
<path d="M 312.027344 274.929688 L 274.671875 312.28125 L 194.5 232.109375 L 231.851562 194.753906 Z M 312.027344 274.929688 " style=" stroke:none;fill-rule:nonzero;fill:rgb(100%,86.27451%,40.784314%);fill-opacity:1;" />
<path d="M 287.878906 138.726562 L 157.136719 7.984375 C 146.765625 -2.183594 130.160156 -2.183594 119.789062 7.984375 L 7.734375 120.042969 C -2.578125 130.355469 -2.578125 147.078125 7.734375 157.394531 L 138.476562 288.132812 C 148.847656 298.308594 165.453125 298.308594 175.824219 288.132812 L 287.878906 176.078125 C 298.050781 165.707031 298.050781 149.101562 287.878906 138.726562 Z M 287.878906 138.726562 " style=" stroke:none;fill-rule:nonzero;fill:rgb(100%,94.901961%,77.647059%);fill-opacity:1;" />
<path d="M 138.46875 101.375 L 82.4375 45.347656 L 45.085938 82.699219 L 101.113281 138.726562 L 45.085938 194.757812 L 82.4375 232.105469 L 138.46875 176.078125 L 213.171875 250.78125 L 250.527344 213.429688 L 175.816406 138.726562 L 231.847656 82.695312 L 194.496094 45.347656 Z M 138.46875 101.375 " style=" stroke:none;fill-rule:nonzero;fill:rgb(100%,86.27451%,40.784314%);fill-opacity:1;" />
<path d="M 493.320312 157.402344 L 437.289062 213.429688 L 399.9375 176.078125 L 455.964844 120.046875 Z M 493.320312 157.402344 " style=" stroke:none;fill-rule:nonzero;fill:rgb(100%,92.941176%,70.588235%);fill-opacity:1;" />
<path d="M 250.527344 400.195312 C 260.839844 410.507812 277.5625 410.507812 287.878906 400.195312 L 418.621094 269.453125 L 343.90625 194.757812 L 213.164062 325.496094 C 202.851562 335.8125 202.851562 352.535156 213.164062 362.847656 C 213.164062 362.847656 213.164062 362.851562 213.164062 362.851562 Z M 250.527344 400.195312 " style=" stroke:none;fill-rule:nonzero;fill:rgb(100%,86.27451%,40.784314%);fill-opacity:1;" />
<path d="M 493.324219 232.105469 L 381.257812 120.042969 C 370.945312 109.730469 354.222656 109.730469 343.910156 120.042969 C 302.648438 161.300781 302.648438 228.199219 343.90625 269.457031 C 385.164062 310.71875 452.0625 310.71875 493.320312 269.460938 C 503.636719 259.144531 503.636719 242.421875 493.324219 232.105469 Z M 493.324219 232.105469 " style=" stroke:none;fill-rule:nonzero;fill:url(#linear0);" />
</g>
</svg>