<svg xmlns="http://www.w3.org/2000/svg" height="633pt" version="1.1" viewBox="1 -13 633.6 633" width="633pt">
<defs>
<linearGradient gradientTransform="matrix(2.668388,0,0,-2.668388,-18.154783,1804.265443)" gradientUnits="userSpaceOnUse" id="linear0" x1="104.6026" x2="146.6047" y1="466.9551" y2="508.9572">
<stop offset="0" style="stop-color:rgb(100%,60%,70.980392%);stop-opacity:1;" />
<stop offset="1" style="stop-color:rgb(100%,86.27451%,40.784314%);stop-opacity:1;" />
</linearGradient>
<linearGradient gradientTransform="matrix(2.668388,0,0,-2.668388,-18.154783,1804.265443)" gradientUnits="userSpaceOnUse" id="linear1" x1="25.4026" x2="67.4047" y1="466.9551" y2="508.9572">
<stop offset="0" style="stop-color:rgb(100%,60%,70.980392%);stop-opacity:1;" />
<stop offset="1" style="stop-color:rgb(100%,86.27451%,40.784314%);stop-opacity:1;" />
</linearGradient>
<linearGradient gradientTransform="matrix(2.668388,0,0,-2.668388,-18.154783,1804.265443)" gradientUnits="userSpaceOnUse" id="linear2" x1="183.8025" x2="225.8046" y1="466.9551" y2="508.9572">
<stop offset="0" style="stop-color:rgb(100%,60%,70.980392%);stop-opacity:1;" />
<stop offset="1" style="stop-color:rgb(100%,86.27451%,40.784314%);stop-opacity:1;" />
</linearGradient>
</defs>
<g id="surface1">
<path d="M 237.75 105.976562 L 290.582031 105.976562 L 290.582031 238.058594 L 237.75 238.058594 Z M 237.75 105.976562 " style=" stroke:none;fill-rule:nonzero;fill:rgb(100%,86.27451%,40.784314%);fill-opacity:1;" />
<path d="M 634 53.140625 L 634 0.308594 L 475.5 0.308594 C 460.910156 0.308594 449.085938 12.136719 449.085938 26.726562 L 449.085938 53.140625 L 317 53.140625 L 317 105.976562 L 449.085938 105.976562 L 449.085938 132.390625 C 449.085938 146.980469 460.910156 158.808594 475.5 158.808594 L 634 158.808594 L 634 105.976562 L 501.917969 105.976562 L 501.917969 53.140625 Z M 634 53.140625 " style=" stroke:none;fill-rule:nonzero;fill:rgb(100%,94.901961%,77.647059%);fill-opacity:1;" />
<path d="M 264.167969 158.808594 C 220.398438 158.808594 184.917969 123.328125 184.917969 79.558594 C 184.917969 35.789062 220.398438 0.308594 264.167969 0.308594 C 307.9375 0.308594 343.417969 35.789062 343.417969 79.558594 C 343.367188 123.304688 307.914062 158.757812 264.167969 158.808594 Z M 264.167969 53.140625 C 249.578125 53.140625 237.75 64.96875 237.75 79.558594 C 237.75 94.148438 249.578125 105.976562 264.167969 105.976562 C 278.757812 105.976562 290.582031 94.148438 290.582031 79.558594 C 290.566406 64.976562 278.75 53.15625 264.167969 53.140625 Z M 264.167969 53.140625 " style=" stroke:none;fill-rule:nonzero;fill:rgb(100%,86.27451%,40.784314%);fill-opacity:1;" />
<path d="M 475.5 238.058594 L 158.5 238.058594 C 129.320312 238.058594 105.667969 261.710938 105.667969 290.890625 L 105.667969 422.976562 C 105.667969 437.566406 117.496094 449.390625 132.082031 449.390625 L 501.917969 449.390625 C 516.507812 449.390625 528.335938 437.566406 528.335938 422.976562 L 528.335938 290.890625 C 528.335938 261.710938 504.679688 238.058594 475.5 238.058594 Z M 475.5 238.058594 " style=" stroke:none;fill-rule:nonzero;fill:rgb(100%,94.901961%,77.647059%);fill-opacity:1;" />
<path d="M 105.667969 290.890625 L 528.335938 290.890625 L 528.335938 343.726562 L 105.667969 343.726562 Z M 105.667969 290.890625 " style=" stroke:none;fill-rule:nonzero;fill:rgb(100%,86.27451%,40.784314%);fill-opacity:1;" />
<path d="M 396.25 502.226562 C 396.25 545.992188 360.769531 581.476562 317 581.476562 C 273.230469 581.476562 237.75 545.992188 237.75 502.226562 C 237.75 458.457031 273.230469 422.976562 317 422.976562 C 360.769531 422.976562 396.25 458.457031 396.25 502.226562 Z M 396.25 502.226562 " style=" stroke:none;fill-rule:nonzero;fill:url(#linear0);" />
<path d="M 317 594.683594 C 265.9375 594.683594 224.542969 553.289062 224.542969 502.226562 C 224.542969 451.160156 265.9375 409.765625 317 409.765625 C 368.0625 409.765625 409.457031 451.160156 409.457031 502.226562 C 409.402344 553.265625 368.039062 594.628906 317 594.683594 Z M 317 436.183594 C 280.527344 436.183594 250.957031 465.75 250.957031 502.226562 C 250.957031 538.699219 280.527344 568.269531 317 568.269531 C 353.472656 568.269531 383.042969 538.699219 383.042969 502.226562 C 383 465.769531 353.457031 436.226562 317 436.183594 Z M 317 436.183594 " style=" stroke:none;fill-rule:nonzero;fill:rgb(100%,94.901961%,77.647059%);fill-opacity:1;" />
<path d="M 184.917969 502.226562 C 184.917969 545.992188 149.433594 581.476562 105.667969 581.476562 C 61.898438 581.476562 26.417969 545.992188 26.417969 502.226562 C 26.417969 458.457031 61.898438 422.976562 105.667969 422.976562 C 149.433594 422.976562 184.917969 458.457031 184.917969 502.226562 Z M 184.917969 502.226562 " style=" stroke:none;fill-rule:nonzero;fill:url(#linear1);" />
<path d="M 105.667969 594.683594 C 54.605469 594.683594 13.207031 553.289062 13.207031 502.226562 C 13.207031 451.160156 54.605469 409.765625 105.667969 409.765625 C 156.730469 409.765625 198.125 451.160156 198.125 502.226562 C 198.066406 553.265625 156.707031 594.628906 105.667969 594.683594 Z M 105.667969 436.183594 C 69.191406 436.183594 39.625 465.75 39.625 502.226562 C 39.625 538.699219 69.191406 568.269531 105.667969 568.269531 C 142.140625 568.269531 171.707031 538.699219 171.707031 502.226562 C 171.667969 465.769531 142.121094 436.226562 105.667969 436.183594 Z M 105.667969 436.183594 " style=" stroke:none;fill-rule:nonzero;fill:rgb(100%,94.901961%,77.647059%);fill-opacity:1;" />
<path d="M 607.585938 502.226562 C 607.585938 545.992188 572.101562 581.476562 528.335938 581.476562 C 484.566406 581.476562 449.085938 545.992188 449.085938 502.226562 C 449.085938 458.457031 484.566406 422.976562 528.335938 422.976562 C 572.101562 422.976562 607.585938 458.457031 607.585938 502.226562 Z M 607.585938 502.226562 " style=" stroke:none;fill-rule:nonzero;fill:url(#linear2);" />
<path d="M 528.335938 594.683594 C 477.269531 594.683594 435.875 553.289062 435.875 502.226562 C 435.875 451.160156 477.269531 409.765625 528.335938 409.765625 C 579.398438 409.765625 620.792969 451.160156 620.792969 502.226562 C 620.734375 553.265625 579.375 594.628906 528.335938 594.683594 Z M 528.335938 436.183594 C 491.859375 436.183594 462.292969 465.75 462.292969 502.226562 C 462.292969 538.699219 491.859375 568.269531 528.335938 568.269531 C 564.808594 568.269531 594.375 538.699219 594.375 502.226562 C 594.332031 465.769531 564.789062 436.226562 528.335938 436.183594 Z M 528.335938 436.183594 " style=" stroke:none;fill-rule:nonzero;fill:rgb(100%,94.901961%,77.647059%);fill-opacity:1;" />
<path d="M 132.082031 502.226562 C 132.082031 516.8125 120.257812 528.640625 105.667969 528.640625 C 91.078125 528.640625 79.25 516.8125 79.25 502.226562 C 79.25 487.636719 91.078125 475.808594 105.667969 475.808594 C 120.257812 475.808594 132.082031 487.636719 132.082031 502.226562 Z M 132.082031 502.226562 " style=" stroke:none;fill-rule:nonzero;fill:rgb(100%,100%,100%);fill-opacity:1;" />
<path d="M 343.417969 502.226562 C 343.417969 516.8125 331.589844 528.640625 317 528.640625 C 302.410156 528.640625 290.582031 516.8125 290.582031 502.226562 C 290.582031 487.636719 302.410156 475.808594 317 475.808594 C 331.589844 475.808594 343.417969 487.636719 343.417969 502.226562 Z M 343.417969 502.226562 " style=" stroke:none;fill-rule:nonzero;fill:rgb(100%,100%,100%);fill-opacity:1;" />
<path d="M 554.75 502.226562 C 554.75 516.8125 542.921875 528.640625 528.335938 528.640625 C 513.746094 528.640625 501.917969 516.8125 501.917969 502.226562 C 501.917969 487.636719 513.746094 475.808594 528.335938 475.808594 C 542.921875 475.808594 554.75 487.636719 554.75 502.226562 Z M 554.75 502.226562 " style=" stroke:none;fill-rule:nonzero;fill:rgb(100%,100%,100%);fill-opacity:1;" />
<path d="M 528.335938 607.890625 L 105.667969 607.890625 C 47.308594 607.890625 0 560.582031 0 502.226562 C 0 443.867188 47.308594 396.558594 105.667969 396.558594 L 528.335938 396.558594 C 586.691406 396.558594 634 443.867188 634 502.226562 C 634 560.582031 586.691406 607.890625 528.335938 607.890625 Z M 105.667969 449.390625 C 76.488281 449.390625 52.832031 473.046875 52.832031 502.226562 C 52.832031 531.40625 76.488281 555.058594 105.667969 555.058594 L 528.335938 555.058594 C 557.511719 555.058594 581.167969 531.40625 581.167969 502.226562 C 581.167969 473.046875 557.511719 449.390625 528.335938 449.390625 Z M 105.667969 449.390625 " style=" stroke:none;fill-rule:nonzero;fill:rgb(100%,86.27451%,40.784314%);fill-opacity:1;" />
</g>
</svg>