<svg xmlns="http://www.w3.org/2000/svg" height="633pt" version="1.1" viewBox="1 -26 633.6 633" width="633pt">
<defs>
<linearGradient gradientTransform="matrix(2.668388,0,0,2.668388,-18.154783,-1488.528474)" gradientUnits="userSpaceOnUse" id="linear0" x1="167.0913" x2="206.695" y1="629.1511" y2="589.5461">
<stop offset="0" style="stop-color:rgb(100%,60%,70.980392%);stop-opacity:1;" />
<stop offset="1" style="stop-color:rgb(100%,86.27451%,40.784314%);stop-opacity:1;" />
</linearGradient>
<linearGradient gradientTransform="matrix(2.668388,0,0,2.668388,-18.154783,-1488.528474)" gradientUnits="userSpaceOnUse" id="linear1" x1="149.1543" x2="233.5306" y1="640.9147" y2="556.5396">
<stop offset="0" style="stop-color:rgb(100%,60%,70.980392%);stop-opacity:1;" />
<stop offset="1" style="stop-color:rgb(100%,86.27451%,40.784314%);stop-opacity:1;" />
</linearGradient>
<linearGradient gradientTransform="matrix(2.668388,0,0,2.668388,-18.154783,-1488.528474)" gradientUnits="userSpaceOnUse" id="linear2" x1="159.0319" x2="197.7693" y1="748.4616" y2="709.723">
<stop offset="0" style="stop-color:rgb(100%,60%,70.980392%);stop-opacity:1;" />
<stop offset="1" style="stop-color:rgb(100%,86.27451%,40.784314%);stop-opacity:1;" />
</linearGradient>
<linearGradient gradientTransform="matrix(2.668388,0,0,2.668388,-18.154783,-1488.528474)" gradientUnits="userSpaceOnUse" id="linear3" x1="125.6571" x2="216.5279" y1="788.0077" y2="697.1369">
<stop offset="0" style="stop-color:rgb(100%,60%,70.980392%);stop-opacity:1;" />
<stop offset="1" style="stop-color:rgb(100%,86.27451%,40.784314%);stop-opacity:1;" />
</linearGradient>
</defs>
<g id="surface1">
<path d="M 501.917969 370.152344 C 489.371094 370.152344 478.472656 361.234375 476.160156 349.015625 L 462.292969 279.34375 L 444.792969 305.429688 C 439.839844 312.695312 431.582031 317.316406 422.667969 317.316406 L 369.832031 317.316406 L 369.832031 264.484375 L 408.46875 264.484375 L 453.375 197.121094 C 466.253906 177.96875 496.632812 183.914062 501.257812 206.695312 L 518.097656 290.238281 L 535.929688 272.410156 C 540.882812 267.457031 547.484375 264.8125 554.75 264.8125 L 634 264.8125 L 634 317.648438 L 565.648438 317.648438 L 520.410156 362.886719 C 515.785156 367.507812 508.851562 370.152344 501.917969 370.152344 Z M 501.917969 370.152344 " style=" stroke:none;fill-rule:nonzero;fill:rgb(100%,86.27451%,40.784314%);fill-opacity:1;" />
<path d="M 158.5 449.402344 L 237.75 449.402344 L 237.75 502.234375 L 158.5 502.234375 Z M 158.5 449.402344 " style=" stroke:none;fill-rule:nonzero;fill:rgb(100%,92.941176%,70.588235%);fill-opacity:1;" />
<path d="M 232.796875 354.628906 C 227.84375 347.695312 219.917969 343.734375 211.332031 343.734375 L 105.667969 343.734375 C 94.441406 343.734375 84.203125 351 80.570312 361.894531 L 27.738281 520.394531 C 23.113281 534.59375 31.039062 549.453125 45.238281 554.078125 C 47.878906 554.738281 50.191406 555.398438 52.832031 555.398438 L 158.5 555.398438 C 169.726562 555.398438 179.964844 548.132812 183.597656 537.234375 L 236.429688 378.734375 C 239.070312 370.480469 237.75 361.566406 232.796875 354.628906 Z M 232.796875 354.628906 " style=" stroke:none;fill-rule:nonzero;fill:rgb(100%,86.27451%,40.784314%);fill-opacity:1;" />
<path d="M 80.570312 520.394531 L 133.40625 361.894531 C 137.035156 350.996094 146.941406 343.734375 158.5 343.734375 L 105.667969 343.734375 C 94.441406 343.734375 84.203125 350.996094 80.570312 361.894531 L 27.738281 520.394531 C 23.113281 534.59375 31.039062 549.453125 45.238281 554.074219 C 47.878906 554.738281 50.191406 555.398438 52.832031 555.398438 L 105.667969 555.398438 C 90.808594 555.066406 79.25 543.179688 79.25 528.320312 C 79.25 525.347656 79.910156 522.707031 80.570312 520.394531 Z M 80.570312 520.394531 " style=" stroke:none;fill-rule:nonzero;fill:rgb(100%,82.745098%,25.882353%);fill-opacity:1;" />
<path d="M 290.582031 185.234375 L 79.25 185.234375 C 35.664062 185.234375 0 220.894531 0 264.484375 L 0 317.316406 C 0 360.90625 35.664062 396.566406 79.25 396.566406 L 290.582031 396.566406 C 349.03125 396.566406 396.25 349.347656 396.25 290.902344 C 396.25 232.453125 349.03125 185.234375 290.582031 185.234375 Z M 290.582031 185.234375 " style=" stroke:none;fill-rule:nonzero;fill:rgb(100%,94.901961%,77.647059%);fill-opacity:1;" />
<path d="M 317 343.734375 L 105.667969 343.734375 C 62.078125 343.734375 26.417969 308.070312 26.417969 264.484375 L 26.417969 211.648438 C 26.417969 209.339844 26.417969 207.359375 26.746094 205.375 C 9.574219 220.234375 0 241.699219 0 264.484375 L 0 317.316406 C 0 360.90625 35.664062 396.566406 79.25 396.566406 L 290.582031 396.566406 C 341.765625 396.566406 385.355469 359.914062 394.597656 309.722656 C 374.457031 331.515625 346.390625 343.734375 317 343.734375 Z M 317 343.734375 " style=" stroke:none;fill-rule:nonzero;fill:rgb(100%,92.941176%,70.588235%);fill-opacity:1;" />
<path d="M 211.332031 290.902344 C 211.332031 305.488281 199.507812 317.316406 184.917969 317.316406 C 170.328125 317.316406 158.5 305.488281 158.5 290.902344 C 158.5 276.3125 170.328125 264.484375 184.917969 264.484375 C 199.507812 264.484375 211.332031 276.3125 211.332031 290.902344 Z M 211.332031 290.902344 " style=" stroke:none;fill-rule:nonzero;fill:rgb(100%,86.27451%,40.784314%);fill-opacity:1;" />
<path d="M 290.582031 290.902344 C 290.582031 305.488281 278.757812 317.316406 264.167969 317.316406 C 249.578125 317.316406 237.75 305.488281 237.75 290.902344 C 237.75 276.3125 249.578125 264.484375 264.167969 264.484375 C 278.757812 264.484375 290.582031 276.3125 290.582031 290.902344 Z M 290.582031 290.902344 " style=" stroke:none;fill-rule:nonzero;fill:rgb(100%,86.27451%,40.784314%);fill-opacity:1;" />
<path d="M 132.082031 290.902344 C 132.082031 305.488281 120.257812 317.316406 105.667969 317.316406 C 91.078125 317.316406 79.25 305.488281 79.25 290.902344 C 79.25 276.3125 91.078125 264.484375 105.667969 264.484375 C 120.257812 264.484375 132.082031 276.3125 132.082031 290.902344 Z M 132.082031 290.902344 " style=" stroke:none;fill-rule:nonzero;fill:rgb(100%,86.27451%,40.784314%);fill-opacity:1;" />
<path d="M 475.5 79.566406 C 431.914062 79.566406 396.25 115.230469 396.25 158.816406 L 449.085938 158.816406 C 449.085938 144.289062 460.972656 132.398438 475.5 132.398438 C 490.03125 132.398438 501.917969 144.289062 501.917969 158.816406 L 554.75 158.816406 C 554.75 115.230469 519.085938 79.566406 475.5 79.566406 Z M 475.5 79.566406 " style=" stroke:none;fill-rule:nonzero;fill:url(#linear0);" />
<path d="M 475.5 0.316406 C 387.996094 0.316406 317 71.3125 317 158.816406 L 369.832031 158.816406 C 369.832031 100.371094 417.054688 53.148438 475.5 53.148438 C 533.949219 53.148438 581.167969 100.371094 581.167969 158.816406 L 634 158.816406 C 634 71.3125 563.003906 0.316406 475.5 0.316406 Z M 475.5 0.316406 " style=" stroke:none;fill-rule:nonzero;fill:url(#linear1);" />
<path d="M 475.5 502.234375 C 519.089844 502.234375 554.75 466.570312 554.75 422.984375 L 501.917969 422.984375 C 501.917969 437.511719 490.03125 449.402344 475.5 449.402344 C 460.972656 449.402344 449.085938 437.511719 449.085938 422.984375 L 396.25 422.984375 C 396.25 466.570312 431.914062 502.234375 475.5 502.234375 Z M 475.5 502.234375 " style=" stroke:none;fill-rule:nonzero;fill:url(#linear2);" />
<path d="M 581.167969 422.984375 C 581.167969 481.429688 533.945312 528.652344 475.5 528.652344 C 417.054688 528.652344 369.832031 481.429688 369.832031 422.984375 L 317 422.984375 C 317 510.488281 387.996094 581.484375 475.5 581.484375 C 563.003906 581.484375 634 510.488281 634 422.984375 Z M 581.167969 422.984375 " style=" stroke:none;fill-rule:nonzero;fill:url(#linear3);" />
</g>
</svg>