<svg xmlns="http://www.w3.org/2000/svg" height="633pt" version="1.1" viewBox="1 -4 633.599 633" width="633pt">
<defs>
<linearGradient gradientTransform="matrix(2.668388,0,0,-2.668388,-18.154783,1813.676694)" gradientUnits="userSpaceOnUse" id="linear0" x1="108.0779" x2="172.851" y1="617.4111" y2="682.1843">
<stop offset="0" style="stop-color:rgb(100%,60%,70.980392%);stop-opacity:1;" />
<stop offset="1" style="stop-color:rgb(100%,86.27451%,40.784314%);stop-opacity:1;" />
</linearGradient>
</defs>
<g id="surface1">
<path d="M 409.832031 26.609375 C 403.953125 20.726562 395.648438 17.957031 387.414062 19.136719 L 256.652344 37.816406 C 242.207031 39.882812 232.175781 53.265625 234.238281 67.707031 C 235.046875 73.363281 237.671875 78.609375 241.710938 82.648438 L 353.792969 194.730469 C 364.105469 205.046875 380.832031 205.046875 391.152344 194.734375 C 395.191406 190.691406 397.816406 185.445312 398.625 179.785156 L 417.304688 49.023438 C 418.480469 40.792969 415.710938 32.488281 409.832031 26.609375 Z M 409.832031 26.609375 " style=" stroke:none;fill-rule:nonzero;fill:url(#linear0);" />
<path d="M 428.511719 194.730469 L 241.710938 7.929688 C 231.335938 -2.238281 214.730469 -2.238281 204.351562 7.929688 C 142.453125 69.832031 142.457031 170.1875 204.355469 232.085938 C 266.253906 293.984375 366.613281 293.984375 428.511719 232.085938 C 438.828125 221.769531 438.828125 205.046875 428.511719 194.730469 Z M 428.511719 194.730469 " style=" stroke:none;fill-rule:nonzero;fill:rgb(100%,92.941176%,70.588235%);fill-opacity:1;" />
<path d="M 342.847656 242.183594 C 300.789062 242.296875 260.433594 225.582031 230.773438 195.761719 C 181.710938 146.578125 170.320312 71.210938 202.65625 9.722656 C 141.695312 72.527344 143.1875 172.863281 205.992188 233.824219 C 268.167969 294.175781 367.292969 293.402344 428.519531 232.085938 C 433.863281 226.742188 436.652344 219.359375 436.179688 211.816406 C 409.105469 231.632812 376.402344 242.273438 342.847656 242.183594 Z M 342.847656 242.183594 " style=" stroke:none;fill-rule:nonzero;fill:rgb(100%,89.803922%,55.686275%);fill-opacity:1;" />
<path d="M 237.75 149.160156 C 194 149.210938 158.550781 184.664062 158.5 228.410156 L 158.5 360.496094 C 158.5 375.082031 170.328125 386.910156 184.917969 386.910156 L 290.582031 386.910156 C 305.171875 386.910156 317 375.082031 317 360.496094 L 317 228.410156 C 316.953125 184.664062 281.496094 149.210938 237.75 149.160156 Z M 237.75 149.160156 " style=" stroke:none;fill-rule:nonzero;fill:rgb(100%,89.803922%,55.686275%);fill-opacity:1;" />
<path d="M 211.332031 360.492188 L 211.332031 228.410156 C 211.375 194.839844 232.53125 164.929688 264.167969 153.703125 C 222.925781 139.097656 177.652344 160.691406 163.046875 201.933594 C 160.035156 210.433594 158.496094 219.390625 158.5 228.410156 L 158.5 360.492188 C 158.5 375.082031 170.328125 386.910156 184.917969 386.910156 L 237.75 386.910156 C 223.160156 386.910156 211.332031 375.082031 211.332031 360.492188 Z M 211.332031 360.492188 " style=" stroke:none;fill-rule:nonzero;fill:rgb(100%,86.27451%,40.784314%);fill-opacity:1;" />
<path d="M 264.167969 228.410156 C 264.167969 243 252.339844 254.828125 237.75 254.828125 C 223.160156 254.828125 211.332031 243 211.332031 228.410156 C 211.332031 213.820312 223.160156 201.992188 237.75 201.992188 C 252.339844 201.992188 264.167969 213.820312 264.167969 228.410156 Z M 264.167969 228.410156 " style=" stroke:none;fill-rule:nonzero;fill:rgb(100%,96.470588%,85.098039%);fill-opacity:1;" />
<path d="M 26.417969 334.078125 L 607.582031 334.078125 C 622.171875 334.078125 634 345.90625 634 360.496094 L 634 439.746094 C 634 454.332031 622.171875 466.160156 607.582031 466.160156 L 26.417969 466.160156 C 11.828125 466.160156 0 454.332031 0 439.746094 L 0 360.496094 C 0 345.902344 11.828125 334.078125 26.417969 334.078125 Z M 26.417969 334.078125 " style=" stroke:none;fill-rule:nonzero;fill:rgb(100%,94.901961%,77.647059%);fill-opacity:1;" />
<path d="M 264.167969 518.992188 C 264.167969 562.761719 228.6875 598.242188 184.917969 598.242188 C 141.148438 598.242188 105.667969 562.761719 105.667969 518.992188 C 105.667969 475.226562 141.148438 439.742188 184.917969 439.742188 C 228.6875 439.742188 264.167969 475.226562 264.167969 518.992188 Z M 264.167969 518.992188 " style=" stroke:none;fill-rule:nonzero;fill:rgb(100%,94.901961%,77.647059%);fill-opacity:1;" />
<path d="M 184.917969 624.660156 C 126.558594 624.660156 79.25 577.351562 79.25 518.992188 C 79.25 460.636719 126.558594 413.328125 184.917969 413.328125 C 243.273438 413.328125 290.582031 460.636719 290.582031 518.992188 C 290.519531 577.324219 243.246094 624.59375 184.917969 624.660156 Z M 184.917969 466.160156 C 155.738281 466.160156 132.082031 489.8125 132.082031 518.992188 C 132.082031 548.171875 155.738281 571.828125 184.917969 571.828125 C 214.097656 571.828125 237.75 548.171875 237.75 518.992188 C 237.71875 489.828125 214.082031 466.191406 184.917969 466.160156 Z M 184.917969 466.160156 " style=" stroke:none;fill-rule:nonzero;fill:rgb(100%,86.27451%,40.784314%);fill-opacity:1;" />
<path d="M 211.332031 518.992188 C 211.332031 533.582031 199.507812 545.410156 184.917969 545.410156 C 170.328125 545.410156 158.5 533.582031 158.5 518.992188 C 158.5 504.402344 170.328125 492.578125 184.917969 492.578125 C 199.507812 492.578125 211.332031 504.402344 211.332031 518.992188 Z M 211.332031 518.992188 " style=" stroke:none;fill-rule:nonzero;fill:rgb(100%,100%,100%);fill-opacity:1;" />
<path d="M 528.335938 518.992188 C 528.335938 562.761719 492.851562 598.242188 449.085938 598.242188 C 405.316406 598.242188 369.832031 562.761719 369.832031 518.992188 C 369.832031 475.226562 405.316406 439.742188 449.085938 439.742188 C 492.851562 439.742188 528.335938 475.226562 528.335938 518.992188 Z M 528.335938 518.992188 " style=" stroke:none;fill-rule:nonzero;fill:rgb(100%,94.901961%,77.647059%);fill-opacity:1;" />
<path d="M 449.085938 624.660156 C 390.726562 624.660156 343.417969 577.351562 343.417969 518.992188 C 343.417969 460.636719 390.726562 413.328125 449.085938 413.328125 C 507.441406 413.328125 554.75 460.636719 554.75 518.992188 C 554.683594 577.324219 507.414062 624.59375 449.085938 624.660156 Z M 449.085938 466.160156 C 419.90625 466.160156 396.25 489.8125 396.25 518.992188 C 396.25 548.171875 419.90625 571.828125 449.085938 571.828125 C 478.261719 571.828125 501.917969 548.171875 501.917969 518.992188 C 501.882812 489.828125 478.25 466.191406 449.085938 466.160156 Z M 449.085938 466.160156 " style=" stroke:none;fill-rule:nonzero;fill:rgb(100%,86.27451%,40.784314%);fill-opacity:1;" />
<path d="M 475.5 518.992188 C 475.5 533.582031 463.671875 545.410156 449.085938 545.410156 C 434.496094 545.410156 422.667969 533.582031 422.667969 518.992188 C 422.667969 504.402344 434.496094 492.578125 449.085938 492.578125 C 463.671875 492.578125 475.5 504.402344 475.5 518.992188 Z M 475.5 518.992188 " style=" stroke:none;fill-rule:nonzero;fill:rgb(100%,100%,100%);fill-opacity:1;" />
</g>
</svg>