<svg xmlns="http://www.w3.org/2000/svg" height="633pt" version="1.1" viewBox="0 -2 633.26072 633" width="633pt">
<defs>
<linearGradient gradientTransform="matrix(2.665601,0,0,2.665601,-16.074524,-1461.256462)" gradientUnits="userSpaceOnUse" id="linear0" x1="46.473" x2="107.8884" y1="676.0325" y2="614.6171">
<stop offset="0" style="stop-color:rgb(100%,60%,70.980392%);stop-opacity:1;" />
<stop offset="1" style="stop-color:rgb(100%,86.27451%,40.784314%);stop-opacity:1;" />
</linearGradient>
<linearGradient gradientTransform="matrix(2.665601,0,0,2.665601,-16.074524,-1461.256462)" gradientUnits="userSpaceOnUse" id="linear1" x1="164.8671" x2="201.1577" y1="696.2847" y2="659.9941">
<stop offset="0" style="stop-color:rgb(100%,60%,70.980392%);stop-opacity:1;" />
<stop offset="1" style="stop-color:rgb(100%,86.27451%,40.784314%);stop-opacity:1;" />
</linearGradient>
</defs>
<g id="surface1">
<path d="M 600.664062 176.886719 C 594.726562 165.011719 581.535156 159.40625 569 163.363281 C 539.3125 172.929688 507.316406 156.4375 497.75 126.75 C 496.097656 121.140625 495.109375 115.203125 495.109375 109.597656 C 495.109375 101.347656 496.757812 93.101562 500.386719 85.847656 C 505.996094 73.96875 502.035156 59.785156 491.152344 52.53125 C 405.714844 -3.878906 298.511719 -15.421875 203.179688 21.191406 C 191.964844 25.480469 185.367188 36.695312 186.355469 48.570312 C 186.6875 50.550781 186.6875 52.53125 186.6875 54.179688 C 186.6875 85.515625 161.289062 110.585938 130.28125 110.585938 C 122.035156 110.585938 113.785156 108.9375 106.53125 105.308594 C 95.644531 100.359375 82.78125 103 75.191406 112.234375 C -37.949219 245.828125 -21.457031 445.726562 112.136719 558.539062 C 119.722656 564.808594 127.3125 570.746094 135.558594 576.351562 C 147.433594 584.601562 163.925781 581.960938 172.171875 569.757812 C 172.832031 569.097656 173.164062 568.105469 173.492188 567.445312 C 189.324219 539.738281 219.011719 522.585938 251.011719 522.585938 C 298.511719 522.585938 336.773438 558.210938 338.425781 603.730469 C 339.082031 618.246094 351.289062 629.792969 365.804688 629.132812 C 366.792969 629.132812 368.113281 629.132812 369.101562 628.800781 C 521.5 603.074219 632.992188 471.125 632.992188 316.421875 C 633.324219 268.261719 622.105469 220.429688 600.664062 176.886719 Z M 600.664062 176.886719 " style=" stroke:none;fill-rule:nonzero;fill:rgb(100%,92.941176%,70.588235%);fill-opacity:1;" />
<path d="M 52.761719 290.363281 C 52.761719 224.71875 73.214844 160.726562 111.148438 107.285156 C 109.5 106.628906 107.851562 105.96875 106.199219 105.308594 C 95.316406 100.359375 82.449219 103 74.863281 112.234375 C -37.949219 245.828125 -21.457031 445.726562 112.136719 558.539062 C 119.726562 564.808594 127.3125 570.746094 135.558594 576.351562 C 147.433594 584.601562 163.925781 581.960938 172.171875 569.757812 C 172.832031 569.097656 173.164062 568.105469 173.492188 567.445312 C 177.121094 560.851562 181.738281 554.582031 187.015625 549.304688 C 102.902344 489.929688 52.761719 393.609375 52.761719 290.363281 Z M 52.761719 290.363281 " style=" stroke:none;fill-rule:nonzero;fill:rgb(100%,89.803922%,55.686275%);fill-opacity:1;" />
<path d="M 474.988281 184.804688 C 474.988281 199.378906 463.171875 211.195312 448.597656 211.195312 C 434.023438 211.195312 422.210938 199.378906 422.210938 184.804688 C 422.210938 170.230469 434.023438 158.414062 448.597656 158.414062 C 463.171875 158.414062 474.988281 170.230469 474.988281 184.804688 Z M 474.988281 184.804688 " style=" stroke:none;fill-rule:nonzero;fill:rgb(100%,86.27451%,40.784314%);fill-opacity:1;" />
<path d="M 316.652344 79.25 C 316.652344 93.824219 304.839844 105.636719 290.265625 105.636719 C 275.691406 105.636719 263.875 93.824219 263.875 79.25 C 263.875 64.675781 275.691406 52.859375 290.265625 52.859375 C 304.839844 52.859375 316.652344 64.675781 316.652344 79.25 Z M 316.652344 79.25 " style=" stroke:none;fill-rule:nonzero;fill:rgb(100%,86.27451%,40.784314%);fill-opacity:1;" />
<path d="M 131.929688 422.308594 C 131.929688 436.882812 120.117188 448.695312 105.542969 448.695312 C 90.96875 448.695312 79.152344 436.882812 79.152344 422.308594 C 79.152344 407.734375 90.96875 395.917969 105.542969 395.917969 C 120.117188 395.917969 131.929688 407.734375 131.929688 422.308594 Z M 131.929688 422.308594 " style=" stroke:none;fill-rule:nonzero;fill:rgb(100%,86.27451%,40.784314%);fill-opacity:1;" />
<path d="M 184.707031 343.140625 C 140.835938 343.140625 105.539062 307.84375 105.539062 263.972656 C 105.539062 220.101562 140.835938 184.804688 184.707031 184.804688 C 228.578125 184.804688 263.875 220.101562 263.875 263.972656 C 263.875 307.515625 228.25 343.140625 184.707031 343.140625 Z M 184.707031 343.140625 " style=" stroke:none;fill-rule:nonzero;fill:url(#linear0);" />
<path d="M 316.652344 422.308594 C 316.652344 436.882812 304.839844 448.695312 290.265625 448.695312 C 275.691406 448.695312 263.875 436.882812 263.875 422.308594 C 263.875 407.734375 275.691406 395.917969 290.265625 395.917969 C 304.839844 395.917969 316.652344 407.734375 316.652344 422.308594 Z M 316.652344 422.308594 " style=" stroke:none;fill-rule:nonzero;fill:rgb(100%,86.27451%,40.784314%);fill-opacity:1;" />
<path d="M 369.429688 263.972656 C 369.429688 278.546875 357.617188 290.363281 343.042969 290.363281 C 328.46875 290.363281 316.652344 278.546875 316.652344 263.972656 C 316.652344 249.398438 328.46875 237.582031 343.042969 237.582031 C 357.617188 237.582031 369.429688 249.398438 369.429688 263.972656 Z M 369.429688 263.972656 " style=" stroke:none;fill-rule:nonzero;fill:rgb(100%,86.27451%,40.784314%);fill-opacity:1;" />
<path d="M 474.988281 527.863281 C 474.988281 542.4375 463.171875 554.253906 448.597656 554.253906 C 434.023438 554.253906 422.210938 542.4375 422.210938 527.863281 C 422.210938 513.289062 434.023438 501.472656 448.597656 501.472656 C 463.171875 501.472656 474.988281 513.289062 474.988281 527.863281 Z M 474.988281 527.863281 " style=" stroke:none;fill-rule:nonzero;fill:rgb(100%,86.27451%,40.784314%);fill-opacity:1;" />
<path d="M 474.988281 395.917969 C 445.960938 395.917969 422.210938 372.167969 422.210938 343.140625 C 422.210938 314.113281 445.960938 290.363281 474.988281 290.363281 C 504.015625 290.363281 527.765625 314.113281 527.765625 343.140625 C 527.765625 372.167969 504.015625 395.917969 474.988281 395.917969 Z M 474.988281 395.917969 " style=" stroke:none;fill-rule:nonzero;fill:url(#linear1);" />
</g>
</svg>