<svg xmlns="http://www.w3.org/2000/svg" height="631pt" version="1.1" viewBox="-12 0 631 631.63539" width="631pt">
<defs>
<linearGradient gradientTransform="matrix(2.668237,0,0,-2.668237,-29.744771,1814.03432)" gradientUnits="userSpaceOnUse" id="linear0" x1="201.3458" x2="234.861" y1="633.0781" y2="666.5932">
<stop offset="0" style="stop-color:rgb(100%,60%,70.980392%);stop-opacity:1;" />
<stop offset="1" style="stop-color:rgb(100%,86.27451%,40.784314%);stop-opacity:1;" />
</linearGradient>
<linearGradient gradientTransform="matrix(2.668237,0,0,-2.668237,-29.744771,1814.03432)" gradientUnits="userSpaceOnUse" id="linear1" x1="198.4575" x2="231.5605" y1="541.0898" y2="574.1929">
<stop offset="0" style="stop-color:rgb(100%,60%,70.980392%);stop-opacity:1;" />
<stop offset="1" style="stop-color:rgb(100%,86.27451%,40.784314%);stop-opacity:1;" />
</linearGradient>
<linearGradient gradientTransform="matrix(2.668237,0,0,-2.668237,-29.744771,1814.03432)" gradientUnits="userSpaceOnUse" id="linear2" x1="138.6454" x2="170.5506" y1="595.1277" y2="627.0328">
<stop offset="0" style="stop-color:rgb(100%,60%,70.980392%);stop-opacity:1;" />
<stop offset="1" style="stop-color:rgb(100%,86.27451%,40.784314%);stop-opacity:1;" />
</linearGradient>
</defs>
<g id="surface1">
<path d="M 495.644531 90.46875 C 521.164062 90.496094 541.84375 111.175781 541.871094 136.695312 C 541.871094 140.339844 544.828125 143.296875 548.476562 143.296875 C 552.125 143.296875 555.078125 140.339844 555.078125 136.695312 C 555.109375 111.175781 575.789062 90.496094 601.308594 90.46875 C 604.953125 90.46875 607.910156 87.511719 607.910156 83.863281 C 607.910156 80.214844 604.953125 77.261719 601.308594 77.261719 C 575.789062 77.230469 555.109375 56.550781 555.078125 31.035156 C 555.078125 27.386719 552.125 24.429688 548.476562 24.429688 C 544.828125 24.429688 541.871094 27.386719 541.871094 31.035156 C 541.84375 56.550781 521.164062 77.230469 495.644531 77.261719 C 492 77.261719 489.042969 80.214844 489.042969 83.863281 C 489.042969 87.511719 492 90.46875 495.644531 90.46875 Z M 495.644531 90.46875 " style=" stroke:none;fill-rule:nonzero;fill:url(#linear0);" />
<path d="M 482.4375 341.410156 C 507.957031 341.441406 528.636719 362.117188 528.664062 387.636719 C 528.664062 391.285156 531.621094 394.242188 535.269531 394.242188 C 538.914062 394.242188 541.871094 391.285156 541.871094 387.636719 C 541.902344 362.121094 562.582031 341.441406 588.097656 341.410156 C 591.746094 341.410156 594.703125 338.453125 594.703125 334.808594 C 594.703125 331.160156 591.746094 328.203125 588.097656 328.203125 C 562.582031 328.175781 541.902344 307.496094 541.871094 281.976562 C 541.871094 278.328125 538.914062 275.371094 535.269531 275.371094 C 531.621094 275.371094 528.664062 278.328125 528.664062 281.976562 C 528.636719 307.496094 507.957031 328.175781 482.4375 328.203125 C 478.792969 328.203125 475.835938 331.160156 475.835938 334.808594 C 475.835938 338.453125 478.792969 341.410156 482.4375 341.410156 Z M 482.4375 341.410156 " style=" stroke:none;fill-rule:nonzero;fill:url(#linear1);" />
<path d="M 323.949219 196.128906 C 349.464844 196.15625 370.144531 216.835938 370.175781 242.355469 C 370.175781 246.003906 373.132812 248.957031 376.777344 248.957031 C 380.425781 248.957031 383.382812 246.003906 383.382812 242.355469 C 383.410156 216.835938 404.089844 196.15625 429.609375 196.128906 C 433.257812 196.128906 436.210938 193.171875 436.210938 189.523438 C 436.210938 185.878906 433.257812 182.921875 429.609375 182.921875 C 404.089844 182.890625 383.410156 162.210938 383.382812 136.695312 C 383.382812 133.046875 380.425781 130.089844 376.777344 130.089844 C 373.132812 130.089844 370.175781 133.046875 370.175781 136.695312 C 370.144531 162.210938 349.464844 182.890625 323.949219 182.921875 C 320.300781 182.921875 317.34375 185.878906 317.34375 189.523438 C 317.34375 193.171875 320.300781 196.128906 323.949219 196.128906 Z M 323.949219 196.128906 " style=" stroke:none;fill-rule:nonzero;fill:url(#linear2);" />
<path d="M 584.582031 457.574219 C 579.804688 449.992188 571.53125 445.320312 562.570312 445.152344 C 557.210938 445.070312 551.765625 446.113281 546.414062 446.472656 C 540.507812 446.871094 534.589844 447.074219 528.664062 447.074219 C 382.75 447.046875 264.484375 328.742188 264.507812 182.828125 C 264.519531 132.425781 278.941406 83.078125 306.082031 40.609375 C 313.789062 28.070312 309.871094 11.65625 297.332031 3.945312 C 292.394531 0.910156 286.597656 -0.433594 280.824219 0.121094 C 106.929688 20.316406 -17.667969 177.65625 2.527344 351.554688 C 22.722656 525.449219 180.0625 650.046875 353.960938 629.851562 C 448.507812 618.871094 533.117188 565.984375 584.410156 485.804688 C 589.914062 477.214844 589.980469 466.230469 584.582031 457.574219 Z M 584.582031 457.574219 " style=" stroke:none;fill-rule:nonzero;fill:rgb(100%,94.901961%,77.647059%);fill-opacity:1;" />
<path d="M 363.570312 589.054688 C 188.460938 589.007812 46.546875 447.019531 46.589844 271.910156 C 46.609375 194.757812 74.757812 120.261719 125.769531 62.375 C -13.726562 168.195312 -41.027344 367.0625 64.792969 506.554688 C 170.613281 646.050781 369.480469 673.347656 508.972656 567.527344 C 525.636719 554.890625 541.003906 540.636719 554.855469 524.972656 C 499.8125 566.667969 432.625 589.179688 363.570312 589.054688 Z M 363.570312 589.054688 " style=" stroke:none;fill-rule:nonzero;fill:rgb(100%,92.941176%,70.588235%);fill-opacity:1;" />
</g>
</svg>