<svg xmlns="http://www.w3.org/2000/svg" height="633pt" version="1.1" viewBox="-13 0 633 633.62276" width="633pt">
<defs>
<linearGradient gradientTransform="matrix(2.668287,0,0,2.668287,-30.386618,-1463.7489)" gradientUnits="userSpaceOnUse" id="linear0" x1="71.0013" x2="176.6425" y1="716.7857" y2="611.1445">
<stop offset="0" style="stop-color:rgb(100%,60%,70.980392%);stop-opacity:1;" />
<stop offset="1" style="stop-color:rgb(100%,86.27451%,40.784314%);stop-opacity:1;" />
</linearGradient>
</defs>
<g id="surface1">
<path d="M 290.890625 158.496094 C 203.390625 158.496094 132.398438 229.488281 132.398438 316.988281 C 132.398438 404.492188 203.390625 475.484375 290.890625 475.484375 C 378.394531 475.484375 449.386719 404.492188 449.386719 316.988281 C 449.386719 229.488281 378.394531 158.496094 290.890625 158.496094 Z M 290.890625 158.496094 " style=" stroke:none;fill-rule:nonzero;fill:url(#linear0);" />
<path d="M 290.890625 607.558594 C 130.417969 607.558594 0.320312 477.464844 0.320312 316.988281 C 0.320312 156.511719 130.417969 26.414062 290.890625 26.414062 C 451.367188 26.414062 581.464844 156.511719 581.464844 316.988281 C 581.132812 477.464844 451.367188 607.230469 290.890625 607.558594 Z M 290.890625 79.246094 C 159.472656 79.246094 53.152344 185.570312 53.152344 316.988281 C 53.152344 448.40625 159.472656 554.730469 290.890625 554.730469 C 422.308594 554.730469 528.632812 448.40625 528.632812 316.988281 C 528.632812 185.902344 421.980469 79.246094 290.890625 79.246094 Z M 290.890625 79.246094 " style=" stroke:none;fill-rule:nonzero;fill:rgb(100%,86.27451%,40.784314%);fill-opacity:1;" />
<path d="M 502.214844 0 C 443.773438 0 396.554688 47.21875 396.554688 105.664062 C 396.554688 164.109375 443.773438 211.324219 502.214844 211.324219 C 560.660156 211.324219 607.878906 164.109375 607.878906 105.664062 C 607.878906 47.21875 560.660156 0 502.214844 0 Z M 502.214844 0 " style=" stroke:none;fill-rule:nonzero;fill:rgb(100%,94.901961%,77.647059%);fill-opacity:1;" />
<path d="M 528.632812 184.910156 C 470.1875 184.910156 422.96875 137.691406 422.96875 79.578125 C 422.96875 58.113281 429.574219 36.980469 441.789062 19.152344 C 393.914062 52.5 382.023438 118.210938 415.375 166.089844 C 448.726562 213.96875 514.433594 225.855469 562.3125 192.503906 C 572.546875 185.238281 581.792969 176.324219 588.726562 166.089844 C 571.226562 178.304688 550.09375 184.910156 528.632812 184.910156 Z M 528.632812 184.910156 " style=" stroke:none;fill-rule:nonzero;fill:rgb(100%,92.941176%,70.588235%);fill-opacity:1;" />
<path d="M 158.8125 475.484375 C 114.898438 475.484375 79.566406 510.8125 79.566406 554.730469 C 79.566406 598.644531 114.898438 633.976562 158.8125 633.976562 C 202.730469 633.976562 238.0625 598.644531 238.0625 554.730469 C 238.0625 510.8125 202.398438 475.484375 158.8125 475.484375 Z M 158.8125 475.484375 " style=" stroke:none;fill-rule:nonzero;fill:rgb(100%,96.470588%,85.098039%);fill-opacity:1;" />
<path d="M 185.230469 607.558594 C 141.644531 607.558594 105.980469 572.230469 105.980469 528.3125 C 105.980469 513.785156 109.945312 499.585938 117.539062 487.039062 C 80.226562 509.820312 68.339844 558.691406 91.125 596.003906 C 113.90625 633.316406 162.777344 645.203125 200.089844 622.417969 C 210.984375 615.816406 219.898438 606.898438 226.503906 596.003906 C 213.957031 603.597656 199.757812 607.558594 185.230469 607.558594 Z M 185.230469 607.558594 " style=" stroke:none;fill-rule:nonzero;fill:rgb(100%,94.901961%,77.647059%);fill-opacity:1;" />
<path d="M 185.230469 132.078125 C 185.230469 88.164062 149.898438 52.832031 105.980469 52.832031 C 62.066406 52.832031 26.734375 88.164062 26.734375 132.078125 C 26.734375 175.996094 62.066406 211.324219 105.980469 211.324219 C 149.566406 211.324219 185.230469 175.664062 185.230469 132.078125 Z M 185.230469 132.078125 " style=" stroke:none;fill-rule:nonzero;fill:rgb(100%,94.901961%,77.647059%);fill-opacity:1;" />
<path d="M 132.398438 184.910156 C 88.8125 184.910156 53.152344 149.578125 53.152344 105.664062 C 53.152344 91.132812 57.113281 76.9375 64.707031 64.386719 C 27.394531 87.171875 15.507812 136.039062 38.292969 173.351562 C 61.074219 210.664062 109.945312 222.550781 147.257812 199.769531 C 158.152344 193.164062 167.070312 184.25 173.671875 173.351562 C 161.125 180.949219 146.925781 184.910156 132.398438 184.910156 Z M 132.398438 184.910156 " style=" stroke:none;fill-rule:nonzero;fill:rgb(100%,92.941176%,70.588235%);fill-opacity:1;" />
<path d="M 290.890625 264.15625 C 290.890625 278.746094 279.066406 290.574219 264.476562 290.574219 C 249.886719 290.574219 238.0625 278.746094 238.0625 264.15625 C 238.0625 249.566406 249.886719 237.742188 264.476562 237.742188 C 279.066406 237.742188 290.890625 249.566406 290.890625 264.15625 Z M 290.890625 264.15625 " style=" stroke:none;fill-rule:nonzero;fill:rgb(100%,100%,100%);fill-opacity:1;" />
<path d="M 264.476562 343.402344 C 264.476562 357.992188 252.648438 369.820312 238.0625 369.820312 C 223.472656 369.820312 211.644531 357.992188 211.644531 343.402344 C 211.644531 328.816406 223.472656 316.988281 238.0625 316.988281 C 252.648438 316.988281 264.476562 328.816406 264.476562 343.402344 Z M 264.476562 343.402344 " style=" stroke:none;fill-rule:nonzero;fill:rgb(100%,100%,100%);fill-opacity:1;" />
<path d="M 343.722656 369.820312 C 343.722656 384.410156 331.898438 396.234375 317.308594 396.234375 C 302.71875 396.234375 290.890625 384.410156 290.890625 369.820312 C 290.890625 355.230469 302.71875 343.402344 317.308594 343.402344 C 331.898438 343.402344 343.722656 355.230469 343.722656 369.820312 Z M 343.722656 369.820312 " style=" stroke:none;fill-rule:nonzero;fill:rgb(100%,100%,100%);fill-opacity:1;" />
</g>
</svg>