<svg height="512pt" viewBox="-26 0 512 512" width="512pt" xmlns="http://www.w3.org/2000/svg"><path d="m17.65625 105.929688h247.171875v52.96875h-247.171875zm0 0" fill="#a7cc46"/><path d="m44.136719 158.898438h194.207031v317.792968h-194.207031zm0 0" fill="#6ba840"/><path d="m8.828125 476.691406h264.828125v35.308594h-264.828125zm0 0" fill="#a7cc46"/><path d="m79.449219 247.171875h123.585937v194.207031h-123.585937zm0 0" fill="#80caec"/><path d="m423.722656 97.105469h17.65625v70.621093h-17.65625zm0 0" fill="#b3b3b3"/><path d="m370.757812 97.105469h17.65625v70.621093h-17.65625zm0 0" fill="#b3b3b3"/><path d="m459.035156 167.722656h-105.933594l8.828126 132.414063h88.277343zm0 0" fill="#6ba840"/><path d="m388.414062 300.136719h35.308594v35.3125h-35.308594zm0 0" fill="#a7cc46"/><path d="m335.449219 441.378906h-97.105469v-17.652344h97.105469c34.109375-.039062 61.753906-27.683593 61.792969-61.792968v-26.484375h17.652343v26.484375c-.046875 43.855468-35.589843 79.398437-79.445312 79.445312zm0 0" fill="#29abe2"/><path d="m335.449219 476.691406v-17.65625c44.285156.015625 82.972656-29.9375 94.046875-72.820312l17.089844 4.414062c-13.0625 50.691406-58.792969 86.101563-111.136719 86.0625zm0 0" fill="#d5e174"/><path d="m0 211.863281h17.65625v185.378907h-17.65625zm0 0" fill="#d5e174"/><path d="m0 414.898438h17.65625v17.652343h-17.65625zm0 0" fill="#d5e174"/><g fill="#29abe2"><path d="m105.929688 397.242188h70.621093v17.65625h-70.621093zm0 0"/><path d="m105.929688 361.929688h70.621093v17.65625h-70.621093zm0 0"/><path d="m105.929688 326.621094h70.621093v17.65625h-70.621093zm0 0"/></g><path d="m150.066406 0h-17.652344l-44.140624 132.414062h52.96875l-8.828126 79.449219h17.652344l44.140625-132.414062h-52.964843zm0 0" fill="#f9d51f"/><path d="m359.574219 264.828125 2.355469 35.308594h88.277343l2.355469-35.308594zm0 0" fill="#2a6429"/></svg>