<svg height="816pt" viewBox="-23 0 816 816.2" width="816pt" xmlns="http://www.w3.org/2000/svg"><path d="m569.898438 169.398438h-30.796876v-30.796876c0-59.5-48.300781-107.800781-107.800781-107.800781s-107.800781 48.300781-107.800781 107.800781v30.796876h-30.800781v-30.796876c0-76.5 62.101562-138.601562 138.601562-138.601562s138.597657 62.101562 138.597657 138.601562zm0 0" fill="#603813"/><path d="m77.101562 169.398438h431.199219v646.800781h-431.199219zm0 0" fill="#c69c6d"/><path d="m508.300781 169.398438h184.800781v646.800781h-184.800781zm0 0" fill="#a67c52"/><path d="m431.300781 231h-30.800781v-92.398438c0-59.5-48.300781-107.800781-107.800781-107.800781s-107.800781 48.300781-107.800781 107.800781v92.398438h-30.796876v-92.398438c0-76.5 62.097657-138.601562 138.597657-138.601562s138.601562 62.101562 138.601562 138.601562zm0 0" fill="#8c6239"/><g fill="#c7b299"><path d="m739.300781 261.800781h30.800781v446.597657h-30.800781zm0 0"/><path d="m739.300781 739.199219h30.800781v30.800781h-30.800781zm0 0"/><path d="m.101562 292.601562h30.796876v462h-30.796876zm0 0"/><path d="m.101562 231h30.796876v30.800781h-30.796876zm0 0"/></g><path d="m400.5 539v61.601562h-61.601562c-41.398438 0-81-16.601562-110-46.203124-9-9.296876-16.898438-19.597657-23.398438-30.796876-13.5-23.402343-20.699219-50-20.601562-77v-61.601562h61.601562c5.199219 0 10.300781.300781 15.398438.800781 10.5 1.097657 20.800781 3.199219 30.800781 6.300781 64.101562 20.199219 107.699219 79.699219 107.800781 146.898438zm0 0" fill="#a7cc46"/><path d="m400.5 578.699219v21.902343h-21.898438l-46-46.203124h-103.703124c-9-9.296876-16.898438-19.597657-23.398438-30.796876h96.199219l-116.800781-116.703124v-21.898438h21.902343l55.097657 55.300781v-54.5c10.5 1.097657 20.800781 3.199219 30.800781 6.300781v79zm0 0" fill="#6ba840"/><path d="m693.101562 794.300781v21.898438h-21.902343l-70.5-70.699219-70.5 70.699219h-21.898438v-21.898438l77-76.800781v-548.101562h30.800781v548.101562zm0 0" fill="#8c6239"/></svg>