<svg height="1011pt" viewBox="-28 0 1011 1011.261" width="1011pt" xmlns="http://www.w3.org/2000/svg"><path d="m452.332031 193.960938c19.5 48.300781 104.898438 95.699218 163.699219 61.101562 82.398438-48.402344 69.597656-147.300781 147.300781-193.800781 0 0-110-107.800781-238.800781-37.402344-69.300781 37.800781-91.601562 121.902344-72.199219 170.101563zm0 0" fill="#a7cc46"/><path d="m452.730469 426.0625-37.699219-5.703125 2.097656-13.796875c20.101563-129.5 83.902344-248.203125 180.703125-336.402344l25.699219 28.300782c-90.402344 82.199218-149.902344 193-168.699219 313.800781zm0 0" fill="#8c6239"/><path d="m340.628906 259.960938c-19.398437 48.199218-104.898437 95.699218-163.699218 61-82.398438-48.398438-69.5-147.300782-147.199219-193.898438 0 0 110-107.800781 238.800781-37.402344 69.300781 38 91.597656 122.101563 72.097656 170.300782zm0 0" fill="#a7cc46"/><path d="m340.332031 491.960938-2.101562-13.898438c-18.800781-120.800781-78.300781-231.5-168.699219-313.800781l25.699219-28.300781c96.800781 88.199218 160.601562 206.898437 180.699219 336.398437l2.101562 13.902344zm0 0" fill="#8c6239"/><path d="m561.929688 468.0625c-54.699219-31.800781-116.898438-48.5-180.199219-48.402344-140.300781-.800781-267.699219 81.601563-324.398438 209.902344h504.597657zm0 0" fill="#a67c52"/><path d="m.128906 629.5625h629.601563v76.296875h-629.601563zm0 0" fill="#29abe2"/><path d="m496.230469 1011.160156h-438.800781c-8.597657 0-16.097657-5.800781-18.398438-14.097656l-26-95.402344 36.800781-10 22.199219 81.300782h424.300781zm0 0" fill="#d5e174"/><path d="m534.332031 973.0625h38.199219v38.199219h-38.199219zm0 0" fill="#d5e174"/><path d="m362.628906 496.0625h38.203125v38.199219h-38.203125zm0 0" fill="#c69c6d"/><path d="m229.128906 534.160156h38.203125v38.199219h-38.203125zm0 0" fill="#c69c6d"/><path d="m629.730469 915.761719h-515.101563l-57.296875-209.902344h572.398438zm0 0" fill="#0071bc"/><path d="m954.128906 686.859375h-38.199218c-.199219-158-128.199219-286-286.199219-286.199219v-38.199218c179.101562.199218 324.199219 145.300781 324.398437 324.398437zm0 0" fill="#d5e174"/><path d="m782.429688 782.261719 140.800781 140.800781c15.800781 15.796875 15.800781 41.398438 0 57.199219s-41.398438 15.800781-57.199219 0l-140.902344-140.800781zm0 0" fill="#8c6239"/><path d="m858.730469 686.859375c0 126.476563-102.527344 229-229 229-126.472657 0-229-102.523437-229-229 0-126.472656 102.527343-229 229-229 126.472656 0 229 102.527344 229 229zm0 0" fill="#a7cc46"/><path d="m782.332031 686.859375c0 84.28125-68.324219 152.601563-152.601562 152.601563-84.277344 0-152.601563-68.320313-152.601563-152.601563 0-84.277344 68.324219-152.597656 152.601563-152.597656 84.277343 0 152.601562 68.320312 152.601562 152.597656zm0 0" fill="#29abe2"/><g fill="#80caec"><path d="m572.53125 667.761719h38.199219v38.199219h-38.199219zm0 0"/><path d="m648.832031 667.761719h38.199219v38.199219h-38.199219zm0 0"/></g></svg>