<svg height="1027pt" viewBox="-71 0 1027 1027.8" width="1027pt" xmlns="http://www.w3.org/2000/svg"><path d="m142.199219 637.898438h-70.898438c-19.601562 0-35.402343-15.898438-35.402343-35.398438 0-19.601562 15.902343-35.398438 35.402343-35.398438h70.898438zm0 0" fill="#2a6429"/><path d="m744.601562 637.898438h70.898438c19.601562 0 35.398438-15.898438 35.398438-35.398438 0-19.601562-15.898438-35.398438-35.398438-35.398438h-70.898438zm0 0" fill="#2a6429"/><path d="m851 850.601562v-116.203124c0-16.097657-7.300781-31.398438-20-41.5l-68.601562-55-42.296876-225.699219c-6.300781-33.5-35.601562-57.800781-69.703124-57.800781h-414c-34.097657 0-63.398438 24.300781-69.699219 57.800781l-42.300781 225.699219-68.597657 54.902343c-12.601562 10.097657-19.902343 25.398438-20 41.5v116.199219zm0 0" fill="#6ba840"/><path d="m461.101562 354.398438h-35.402343v-57.398438c.199219-36.800781 28.300781-67.398438 65-70.601562l325.699219-27.199219c20.703124-1.699219 36.203124-19.898438 34.5-40.597657-1.597657-19.5-17.898438-34.601562-37.5-34.601562h-334.597657v-35.398438h334.597657c40.402343.097657 73 32.898438 72.902343 73.296876-.101562 37.902343-29.101562 69.402343-66.902343 72.601562l-325.796876 27.199219c-18.300781 1.601562-32.402343 16.902343-32.5 35.300781zm0 0" fill="#29abe2"/><path d="m.398438 35.5h141.800781v35.398438h-141.800781zm0 0" fill="#ccc"/><path d="m.398438 141.800781h141.800781v35.398438h-141.800781zm0 0" fill="#ccc"/><path d="m142.199219 0v212.699219l265.800781-17.800781v-177.199219zm0 0" fill="#6ba840"/><path d="m408 70.898438h70.898438v70.902343h-70.898438zm0 0" fill="#a7cc46"/><path d="m549.699219 17.699219h265.800781v35.402343h-265.800781zm0 0" fill="#d5e174"/><path d="m71.300781 921.5h212.597657v70.898438c0 19.601562-15.898438 35.402343-35.398438 35.402343h-141.800781c-19.597657 0-35.398438-15.902343-35.398438-35.402343zm0 0" fill="#808080"/><path d="m124.398438 921.5h35.402343v53.199219h-35.402343zm0 0" fill="#4d4d4d"/><path d="m195.300781 921.5h35.398438v53.199219h-35.398438zm0 0" fill="#4d4d4d"/><path d="m35.800781 850.601562h815.097657c19.601562 0 35.402343 15.898438 35.402343 35.398438 0 19.601562-15.902343 35.398438-35.402343 35.398438h-815.097657c-19.601562 0-35.402343-15.898438-35.402343-35.398438 0-19.601562 15.902343-35.398438 35.402343-35.398438zm0 0" fill="#a7cc46"/><path d="m709.199219 779.699219h-35.398438c-19.601562 0-35.402343-15.898438-35.402343-35.398438 0-19.601562 15.902343-35.402343 35.402343-35.402343h35.398438c19.601562 0 35.402343 15.902343 35.402343 35.402343s-15.800781 35.398438-35.402343 35.398438zm0 0" fill="#f9d51f"/><path d="m177.601562 708.800781h35.398438c19.601562 0 35.398438 15.898438 35.398438 35.398438 0 19.601562-15.898438 35.402343-35.398438 35.402343h-35.398438c-19.601562 0-35.402343-15.902343-35.402343-35.402343s15.800781-35.398438 35.402343-35.398438zm0 0" fill="#f9d51f"/><path d="m67.199219 492.878906 6.683593-35.472656 34.789063 6.554688-6.683594 35.476562zm0 0" fill="#d5e174"/><path d="m319.398438 708.800781h248.101562v141.800781h-248.101562zm0 0" fill="#e6e6e6"/><path d="m235.199219 425.300781-39.898438 212.597657h496.199219l-39.898438-212.597657zm0 0" fill="#29abe2"/><path d="m602.898438 921.5h212.601562v70.898438c0 19.601562-15.898438 35.402343-35.398438 35.402343h-141.800781c-19.601562 0-35.402343-15.902343-35.402343-35.402343zm0 0" fill="#808080"/><path d="m656 921.5h35.398438v53.199219h-35.398438zm0 0" fill="#4d4d4d"/><path d="m726.898438 921.5h35.402343v53.199219h-35.402343zm0 0" fill="#4d4d4d"/><path d="m319.398438 708.800781h248.101562v70.898438h-248.101562zm0 0" fill="#ccc"/><path d="m408 17.699219-70.898438-4.699219v186.699219l70.898438-4.800781zm0 0" fill="#2a6429"/><path d="m115.300781 428.601562-34.800781-6.601562 4.898438-26.101562c14.101562-75.398438 80-130.097657 156.703124-130.097657h112.699219v35.398438h-112.699219c-59.703124.101562-110.902343 42.601562-121.902343 101.199219zm0 0" fill="#d5e174"/></svg>