<svg height="960pt" viewBox="0 -71 960.20001 960" width="960pt" xmlns="http://www.w3.org/2000/svg"><path d="m80 80.101562h800.101562v608.097657h-752c-26.5 0-48-21.5-48-48zm0 0" fill="#d5e174"/><path d="m80 640.199219c0-26.5 21.5-48 48-48h32v-576.097657h-32c-26.5 0-48 21.5-48 48zm0 0" fill="#6ba840"/><path d="m151.015625 730.308594 751.382813-318.441406 37.460937 88.386718-751.386719 318.441406zm0 0" fill="#a7cc46"/><path d="m188.398438 818.699219-92.398438-13 55-75.398438zm0 0" fill="#a67c52"/><path d="m828.699219 443.101562 37.5 88.398438-58.898438 25-37.5-88.398438zm0 0" fill="#6ba840"/><path d="m268.601562 458.300781c31.398438 30.300781 113.097657 37.5 146.296876-9 46.601562-65.199219 3-136.601562 46.601562-198.800781 0 0-121.101562-45-195.699219 52.800781-40.199219 52.699219-28.601562 124.699219 2.800781 155zm0 0" fill="#6ba840"/><path d="m298.699219 545.398438c-6.398438-79.296876 7-158.898438 39-231.699219l29.300781 12.800781c-29.800781 68-42.300781 142.300781-36.398438 216.398438zm0 0" fill="#8c6239"/><g fill="#2a6429"><path d="m544.101562 144.101562h32v32h-32zm0 0"/><path d="m608.101562 144.101562h208v32h-208zm0 0"/><path d="m512.101562 208.101562h304v32h-304zm0 0"/><path d="m512.101562 272.101562h304v32h-304zm0 0"/><path d="m512.101562 336.101562h240v32h-240zm0 0"/></g><path d="m0 256.101562h32v384.097657h-32zm0 0" fill="#d5e174"/><path d="m0 192.101562h32v32h-32zm0 0" fill="#d5e174"/><path d="m960.199219 320.101562h-32v-256c0-17.703124-14.300781-32-32-32h-112.097657v-32h112c35.398438 0 64 28.699219 64 64zm0 0" fill="#d5e174"/><path d="m928.199219 352.101562h32v32h-32zm0 0" fill="#d5e174"/></svg>