<svg height="806pt" viewBox="-35 0 806 806.7405" width="806pt" xmlns="http://www.w3.org/2000/svg"><path d="m272.371094 192.941406c-27.699219 26.800782-100 33.199219-129.402344-8-41.199219-57.699218-2.597656-120.800781-41.199219-175.800781 0 0 107.101563-39.800781 173.101563 46.699219 35.597656 46.601562 25.300781 110.300781-2.5 137.101562zm0 0" fill="#a7cc46"/><path d="m217.671875 311.441406-.203125-42.5c5.402344-65.800781-5.699219-132-32.199219-192.5l26-11.402344c28.199219 64.5 40.101563 134.902344 34.5 205l.300781 41.300782zm0 0" fill="#8c6239"/><path d="m42.871094 735.941406h396.300781v56.597656h-396.300781zm0 0" fill="#a7cc46"/><path d="m99.46875 268.839844h283.101562c15.601563 0 28.300782 12.699218 28.300782 28.300781v438.800781h-339.699219v-438.699218c0-15.703126 12.597656-28.402344 28.296875-28.402344zm0 0" fill="#6ba840"/><path d="m127.769531 325.539062h226.5v70.800782h-226.5zm0 0" fill="#80caec"/><path d="m113.570312 438.742188h28.300782v28.296874h-28.300782zm0 0" fill="#a7cc46"/><path d="m113.570312 495.339844h28.300782v28.300781h-28.300782zm0 0" fill="#a7cc46"/><path d="m.371094 325.539062h28.300781v283.101563h-28.300781zm0 0" fill="#d5e174"/><path d="m.371094 636.839844h28.300781v28.300781h-28.300781zm0 0" fill="#d5e174"/><path d="m410.871094 325.539062h56.597656v169.800782h-56.597656zm0 0" fill="#a7cc46"/><path d="m601.871094 750.140625c-43 0-77.800782-34.898437-77.800782-77.800781v-205.300782c0-23.5-19-42.5-42.5-42.5h-14.199218v-28.296874h14.199218c39.101563 0 70.699219 31.699218 70.800782 70.796874v205.203126c0 27.398437 22.199218 49.5 49.5 49.5 27.300781 0 49.5-22.203126 49.5-49.5v-205.203126h28.300781v205.203126c0 43-34.800781 77.796874-77.800781 77.898437zm0 0" fill="#29abe2"/><path d="m637.269531 410.441406h56.601563v56.597656h-56.601563zm0 0" fill="#a7cc46"/><path d="m722.171875 268.839844v-127.300782l-56.601563 28.300782v127.402344zm0 0" fill="#29abe2"/><path d="m722.171875 410.441406h-113.203125v-113.199218l113.203125-56.703126zm0 0" fill="#6ba840"/><g fill="#d5e174"><path d="m594.871094 806.742188v-28.300782c62.5-.101562 113.199218-50.699218 113.199218-113.199218v-84.902344h28.300782v84.902344c-.101563 78.097656-63.402344 141.398437-141.5 141.5zm0 0"/><path d="m708.070312 523.640625h28.300782v28.300781h-28.300782zm0 0"/></g></svg>