<svg height="765pt" viewBox="0 -31 765.5 765" width="765pt" xmlns="http://www.w3.org/2000/svg"><path d="m391.5 634.75h324v-270l-67.5-67.5h-256.5zm0 0" fill="#ccc"/><path d="m67.5 310.75v324h324v-324l-162.699219-162zm0 0" fill="#e6e6e6"/><path d="m526.5 148.75h-297.699219l216.699219 216h297l-81-80.699219zm0 0" fill="#29abe2"/><path d="m162 418.75h135v216h-135zm0 0" fill="#a7cc46"/><path d="m202.5 513.25h27v27h-27zm0 0" fill="#2a6429"/><g fill="#d5e174"><path d="m229.5 702.25h-175.5c-29.800781 0-54-24.199219-54-54v-108h27v108c0 14.898438 12.101562 27 27 27h175.5zm0 0"/><path d="m256.5 675.25h27v27h-27zm0 0"/><path d="m378 .25h27v27h-27zm0 0"/></g><path d="m752.101562 355.148438-182.402343-182.097657-19.097657 19.097657 159.296876 159.101562h-258.796876l-189-189h169.898438v-27h-199.398438c-4.703124-1.5-9.800781-.199219-13.300781 3.199219l-215.300781 215.300781 19.101562 19.101562 205.296876-205.402343 207.601562 206.800781c2.5 2.5 6 3.898438 9.5 3.898438h297c7.5 0 13.5-6 13.5-13.5 0-3.5-1.398438-6.898438-3.898438-9.5zm0 0" fill="#80caec"/><path d="m337.5 108.25h27v94.5h-27zm0 0" fill="#e6e6e6"/><path d="m513 283.75h27v40.5h-27zm0 0" fill="#e6e6e6"/><path d="m729 283.75-216.699219-216.699219h-243l216.699219 216.699219zm0 0" fill="#a7cc46"/><path d="m648.800781 283.75-216.800781-216.699219h-81l216.800781 216.699219zm0 0" fill="#6ba840"/><path d="m472.5 445.75h81v108h-81zm0 0" fill="#a7cc46"/><path d="m553.5 445.75h81v108h-81zm0 0" fill="#6ba840"/><path d="m746.5 225.851562-199.300781-198.601562h-115.199219v-27h120.800781c3.597657 0 7 1.398438 9.5 3.898438l203.199219 202.5zm0 0" fill="#d5e174"/></svg>