<svg height="865pt" viewBox="-29 0 865 865.7" width="865pt" xmlns="http://www.w3.org/2000/svg"><path d="m254.050781 776.101562v59.699219c0 16.5 13.398438 29.898438 29.898438 29.898438h238.800781c16.5 0 29.898438-13.398438 29.898438-29.898438v-373.101562c0-48.097657-17.5-94.597657-49.199219-130.800781l-55.300781-63.199219v-268.699219h-89.597657v268.601562l-55.300781 63.199219c-31.699219 36.199219-49.101562 82.699219-49.199219 130.800781zm0 0" fill="#a67c52"/><path d="m119.75 462.699219h612v298.5h-656.800781v-253.800781c0-24.699219 20.101562-44.699219 44.800781-44.699219zm0 0" fill="#6ba840"/><path d="m74.949219 507.398438c0 24.703124 20 44.800781 44.800781 44.800781h14.898438v238.800781h-14.898438c-24.699219 0-44.800781-20-44.800781-44.800781zm0 0" fill="#a7cc46"/><path d="m194.351562 507.398438h29.898438v29.902343h-29.898438zm0 0" fill="#2a6429"/><path d="m194.351562 567.101562h29.898438v29.898438h-29.898438zm0 0" fill="#2a6429"/><path d="m194.351562 626.800781h29.898438v29.898438h-29.898438zm0 0" fill="#2a6429"/><path d="m194.351562 686.5h29.898438v29.898438h-29.898438zm0 0" fill="#2a6429"/><path d="m358.550781 59.699219h89.597657v59.699219h-89.597657zm0 0" fill="#6ba840"/><path d="m492.949219 522.398438v74.601562c0 10.101562-1.398438 20.199219-4.300781 29.898438-3.097657 10.703124-8 20.800781-14.5 29.902343-19.398438 28.097657-51.5 44.898438-85.699219 44.800781h-74.597657v-74.800781c0-46.199219 30.296876-86.902343 74.597657-100.199219 9.699219-2.902343 19.699219-4.402343 29.902343-4.300781zm0 0" fill="#a7cc46"/><path d="m492.949219 543.601562-83.5 83.199219h79.101562c-3.101562 10.699219-8 20.800781-14.5 29.898438h-94.5l-44.601562 44.800781h-21.199219v-21.199219l74.601562-74.5v-79.101562c9.699219-2.898438 19.699219-4.398438 29.898438-4.300781v53.601562l53.398438-53.601562h21.203124zm0 0" fill="#2a6429"/><g fill="#d5e174"><path d="m746.648438 835.800781h-59.699219v-29.902343h59.699219c16.5 0 29.902343-13.398438 29.902343-29.898438v-134.199219h29.800781v134.300781c0 33-26.703124 59.699219-59.703124 59.699219zm0 0"/><path d="m776.449219 582.101562h29.902343v29.898438h-29.902343zm0 0"/><path d="m30.25 611.898438h-29.898438v-119.398438c.097657-57.699219 46.796876-104.398438 104.5-104.5h44.796876v29.898438h-44.796876c-41.203124 0-74.601562 33.402343-74.601562 74.601562zm0 0"/><path d="m492.949219 44.699219h29.902343v194h-29.902343zm0 0"/><path d="m.351562 641.800781h29.898438v29.898438h-29.898438zm0 0"/></g></svg>