<svg height="933pt" viewBox="-87 0 933 933.89999" width="933pt" xmlns="http://www.w3.org/2000/svg"><path d="m142.949219 142.398438h538.199219v712.300781h-538.199219zm0 0" fill="#a7cc46"/><path d="m79.648438 79.101562h538.203124v712.296876h-538.203124zm0 0" fill="#e6e6e6"/><path d="m237.851562 189.898438c-26.203124 0-47.5-21.296876-47.5-47.5v-15.796876h31.699219v15.796876c0 8.703124 7.097657 15.800781 15.800781 15.800781 8.699219 0 15.796876-7.097657 15.796876-15.800781v-79.097657c0-17.5-14.199219-31.699219-31.699219-31.699219s-31.699219 14.199219-31.699219 31.699219v15.800781h-31.5v-15.800781c0-35 28.300781-63.300781 63.300781-63.300781s63.300781 28.300781 63.300781 63.300781v79.097657c0 26.300781-21.203124 47.5-47.5 47.5zm0 0" fill="#29abe2"/><g fill="#b3b3b3"><path d="m522.851562 142.398438h31.699219v31.703124h-31.699219zm0 0"/><path d="m522.851562 205.699219h31.699219v31.699219h-31.699219zm0 0"/><path d="m427.851562 284.898438h31.699219v31.703124h-31.699219zm0 0"/><path d="m491.148438 284.898438h63.300781v31.703124h-63.300781zm0 0"/><path d="m427.851562 348.199219h126.597657v31.699219h-126.597657zm0 0"/><path d="m142.949219 633.101562h31.699219v31.699219h-31.699219zm0 0"/><path d="m206.25 633.101562h348.199219v31.699219h-348.199219zm0 0"/><path d="m142.949219 696.398438h411.5v31.703124h-411.5zm0 0"/><path d="m427.851562 411.5h126.597657v31.699219h-126.597657zm0 0"/><path d="m427.851562 474.800781h126.597657v31.699219h-126.597657zm0 0"/><path d="m427.851562 538.101562h126.597657v31.699219h-126.597657zm0 0"/></g><path d="m237.851562 902.199219h31.699219v31.699219h-31.699219zm0 0" fill="#d5e174"/><path d="m301.25 902.199219h332.398438v31.699219h-332.398438zm0 0" fill="#d5e174"/><path d="m332.851562 0h221.597657v31.699219h-221.597657zm0 0" fill="#d5e174"/><path d="m189.550781 453.199219c31 30 111.800781 37.101562 144.699219-8.898438 46.101562-64.5 2.898438-135.101562 46.101562-196.699219 0 0-119.800781-44.601562-193.601562 52.199219-39.699219 52.199219-28.199219 123.398438 2.800781 153.398438zm0 0" fill="#a7cc46"/><path d="m219.351562 539.398438c-6.300781-78.398438 7-157.199219 38.597657-229.199219l29 12.699219c-29.5 67.300781-41.898438 140.800781-36 214zm0 0" fill="#8c6239"/><path d="m95.449219 870.5h-31.699219c-35 0-63.300781-28.300781-63.300781-63.300781v-316.597657h31.699219v316.597657c0 17.5 14.203124 31.699219 31.703124 31.699219h31.699219v31.601562zm0 0" fill="#d5e174"/><path d="m.449219 427.300781h31.699219v31.699219h-31.699219zm0 0" fill="#d5e174"/><path d="m760.25 332.398438h-31.699219v-205.796876c0-17.5-14.199219-31.703124-31.699219-31.703124h-31.703124v-31.699219h31.703124c35 0 63.296876 28.300781 63.296876 63.300781zm0 0" fill="#d5e174"/><path d="m728.550781 364h31.699219v31.699219h-31.699219zm0 0" fill="#d5e174"/></svg>