<svg height="968pt" viewBox="-16 0 968 968.20001" width="968pt" xmlns="http://www.w3.org/2000/svg"><path d="m329 147.699219h607.101562v738.402343h-607.101562zm0 0" fill="#6ba840"/><path d="m312.601562 82.101562h557.898438v738.398438h-557.898438zm0 0" fill="#e6e6e6"/><path d="m476.699219 196.898438c-27.199219 0-49.199219-22-49.199219-49.199219v-16.398438h32.800781v16.398438c0 9.101562 7.300781 16.402343 16.398438 16.402343 9.101562 0 16.402343-7.300781 16.402343-16.402343v-82c0-18.097657-14.703124-32.800781-32.800781-32.800781-18.101562 0-32.800781 14.703124-32.800781 32.800781v16.402343h-32.800781v-16.402343c0-36.199219 29.402343-65.597657 65.601562-65.597657s65.597657 29.398438 65.597657 65.597657v82c0 27.199219-22 49.199219-49.199219 49.199219zm0 0" fill="#29abe2"/><path d="m329 722v213.300781c0 18.097657-14.699219 32.800781-32.800781 32.800781-18.097657 0-32.800781-14.703124-32.800781-32.800781v-213.300781zm0 0" fill="#a67c52"/><path d="m296.199219 968.199219c-18.097657 0-32.800781-14.699219-32.800781-32.800781v-32.796876h65.601562v32.796876c0 18.101562-14.699219 32.800781-32.800781 32.800781zm0 0" fill="#754c24"/><g fill="#b3b3b3"><path d="m772.101562 147.699219h32.796876v32.800781h-32.796876zm0 0"/><path d="m772.101562 213.398438h32.796876v32.800781h-32.796876zm0 0"/><path d="m624.398438 295.398438h32.800781v32.800781h-32.800781zm0 0"/><path d="m690 295.398438h114.898438v32.800781h-114.898438zm0 0"/><path d="m624.398438 361h180.5v32.800781h-180.5zm0 0"/><path d="m575.199219 656.398438h32.800781v32.800781h-32.800781zm0 0"/><path d="m640.800781 656.398438h164.097657v32.800781h-164.097657zm0 0"/><path d="m575.199219 722h229.699219v32.800781h-229.699219zm0 0"/><path d="m624.398438 426.699219h180.5v32.800781h-180.5zm0 0"/><path d="m624.398438 492.300781h180.5v32.800781h-180.5zm0 0"/><path d="m624.398438 557.898438h180.5v32.800781h-180.5zm0 0"/></g><path d="m214.199219 935.300781h-32.800781v-117.300781c-73.398438-24.800781-136.898438-72.398438-181.296876-135.800781l26.898438-18.800781c42.601562 60.800781 104.398438 105.601562 175.601562 126.902343 7 2.097657 11.699219 8.5 11.699219 15.699219zm0 0" fill="#d5e174"/><path d="m476.699219 935.300781h32.800781v32.800781h-32.800781zm0 0" fill="#d5e174"/><path d="m542.398438 935.300781h344.601562v32.800781h-344.601562zm0 0" fill="#d5e174"/><path d="m575.199219 0h229.699219v32.800781h-229.699219zm0 0" fill="#d5e174"/><path d="m575.199219 475.898438c0 154.089843-124.910157 279-279 279-154.085938 0-279-124.910157-279-279 0-154.085938 124.914062-279 279-279 154.089843 0 279 124.914062 279 279zm0 0" fill="#a7cc46"/><path d="m509.5 475.898438c0 117.804687-95.496094 213.300781-213.300781 213.300781-117.800781 0-213.300781-95.496094-213.300781-213.300781 0-117.800782 95.5-213.296876 213.300781-213.296876 117.804687 0 213.300781 95.496094 213.300781 213.296876zm0 0" fill="#29abe2"/><path d="m394.699219 377.398438v82c0 11.101562-1.597657 22.203124-4.800781 32.800781-3.398438 11.800781-8.796876 22.902343-15.898438 32.800781-21.398438 30.898438-56.601562 49.300781-94.199219 49.199219h-82v-82c0-50.800781 33.398438-95.597657 82-110.097657 10.597657-3.203124 21.699219-4.800781 32.800781-4.800781zm0 0" fill="#a7cc46"/><path d="m394.699219 400.699219-91.699219 91.601562h87c-3.398438 11.800781-8.800781 22.898438-15.898438 32.800781h-104l-49 49.199219h-23.300781v-23.300781l82-81.898438v-87c10.597657-3.203124 21.699219-4.800781 32.800781-4.800781v58.898438l58.699219-58.898438h23.300781zm0 0" fill="#6ba840"/></svg>