<svg height="891pt" viewBox="0 -15 891.2 891" width="891pt" xmlns="http://www.w3.org/2000/svg"><path d="m818.898438 505.398438v-149.398438h-69c-7.597657-30.898438-19.796876-60.5-36.296876-87.699219l48.796876-48.800781-105.597657-105.5-48.800781 48.800781c-27.199219-16.5-56.800781-28.800781-87.699219-36.300781v-69h-149.402343v69c-30.898438 7.601562-60.5 19.800781-87.699219 36.300781l-48.800781-48.800781-105.5 105.5 48.800781 48.800781c-16.5 27.199219-28.800781 56.800781-36.300781 87.699219h-69v149.300781h69c7.601562 30.898438 19.800781 60.5 36.300781 87.699219l-48.800781 48.800781 105.5 105.597657 48.800781-48.796876c27.199219 16.5 56.800781 28.796876 87.699219 36.296876v69h149.300781v-69c30.902343-7.597657 60.5-19.796876 87.699219-36.296876l48.800781 48.796876 105.601562-105.597657-48.800781-48.800781c16.5-27.199219 28.800781-56.800781 36.300781-87.699219h69.097657zm-373.296876 149.300781c-123.703124 0-224-100.300781-224-224s100.296876-224 224-224c123.699219 0 224 100.300781 224 224s-100.300781 224-224 224zm0 0" fill="#6ba840"/><path d="m569.199219 861.398438-8.199219-28.699219c9.699219-2.800781 19.398438-6 28.800781-9.398438l10.300781 28c-10.101562 3.699219-20.5 7.097657-30.902343 10.097657zm0 0" fill="#d5e174"/><path d="m631 838.601562-12.398438-27.203124c134.898438-61.597657 227.296876-189.898438 242.898438-337.398438l29.699219 3c-16.699219 158.101562-115.699219 295.601562-260.199219 361.601562zm0 0" fill="#d5e174"/><path d="m301.398438 38.199219-10.296876-28c10.097657-3.699219 20.5-7.097657 30.898438-10.097657l8.199219 28.699219c-9.597657 2.699219-19.300781 5.898438-28.800781 9.398438zm0 0" fill="#d5e174"/><path d="m29.699219 387.398438-29.699219-3c16.699219-158.097657 115.699219-295.597657 260.199219-361.597657l12.402343 27.199219c-134.902343 61.601562-227.300781 189.898438-242.902343 337.398438zm0 0" fill="#d5e174"/><path d="m521.101562 514.800781c-29.300781 28.300781-105.5 35-136.5-8.402343-43.5-60.898438-2.800781-127.5-43.5-185.5 0 0 113-42 182.597657 49.300781 37.5 49.199219 26.601562 116.402343-2.597657 144.601562zm0 0" fill="#6ba840"/><path d="m493 596.101562-29.800781-2.402343c5.5-69.097657-6.199219-138.398438-34-201.898438l27.300781-11.902343c29.800781 68 42.398438 142.300781 36.5 216.203124zm0 0" fill="#8c6239"/><g fill="#d5e174"><path d="m430.699219 102.199219h29.902343v29.902343h-29.902343zm0 0"/><path d="m202.757812 209.050781 21.140626-21.140625 21.144531 21.140625-21.144531 21.140625zm0 0"/><path d="m117.101562 415.800781h29.898438v29.898438h-29.898438zm0 0"/><path d="m202.738281 652.453125 21.144531-21.140625 21.140626 21.140625-21.140626 21.144531zm0 0"/><path d="m430.699219 729.300781h29.902343v29.898438h-29.902343zm0 0"/><path d="m646.222656 652.40625 21.140625-21.140625 21.144531 21.140625-21.144531 21.144531zm0 0"/><path d="m744.199219 415.800781h29.902343v29.898438h-29.902343zm0 0"/><path d="m646.230469 209.011719 21.144531-21.144531 21.140625 21.144531-21.140625 21.140625zm0 0"/></g></svg>