<svg height="1029pt" viewBox="0 0 1029.2 1029" width="1029pt" xmlns="http://www.w3.org/2000/svg"><path d="m448.300781 829.398438c21.699219 6.703124 45 6.101562 66.300781-1.597657v112.699219h337.097657c49 0 88.699219-39.699219 88.699219-88.699219v-337.199219h-112.597657c7.699219 21.398438 8.199219 44.597657 1.597657 66.296876-15.898438 56.601562-74.699219 89.601562-131.296876 73.703124-56.601562-15.902343-89.601562-74.703124-73.703124-131.300781.800781-3 1.800781-5.902343 2.902343-8.800781h-112.699219v112.699219c-55-20.699219-116.402343 7-137.203124 62.101562-20.699219 55 7 116.398438 62.101562 137.199219 2.898438 1.101562 5.800781 2 8.800781 2.898438zm0 0" fill="#a7cc46"/><path d="m581 199.800781c-21.699219-6.601562-45-6.101562-66.300781 1.597657v-112.597657h-337.199219c-49 0-88.699219 39.699219-88.699219 88.699219v337.101562h112.699219c-7.699219-21.402343-8.199219-44.601562-1.601562-66.300781 15.601562-56.699219 74.203124-90 130.902343-74.402343 56.699219 15.601562 90 74.203124 74.398438 130.902343-.898438 3.300781-2 6.597657-3.199219 9.800781h112.601562v-112.703124c55.097657 20.5 116.398438-7.5 137-62.5 20.5-55.097657-7.5-116.398438-62.5-137-2.703124-.898438-5.402343-1.796876-8.101562-2.597657zm0 0" fill="#a7cc46"/><path d="m199.800781 448.199219c-6.699219 21.699219-6.101562 45 1.597657 66.300781h-112.699219v337.101562c0 49 39.699219 88.699219 88.699219 88.699219h337.203124v-112.5c-21.402343 7.699219-44.601562 8.199219-66.300781 1.597657-56.601562-15.898438-89.601562-74.699219-73.699219-131.296876 15.898438-56.601562 74.699219-89.601562 131.296876-73.703124 3 .800781 5.902343 1.800781 8.800781 2.902343v-112.699219h-112.800781c20.703124-55-7.199219-116.402343-62.296876-137.101562-55-20.601562-116.300781 7.199219-137 62.300781-1 2.800781-2 5.597657-2.800781 8.398438zm0 0" fill="#6ba840"/><path d="m176.398438 178.5h35.5c39.203124 0 71 31.800781 71 71v35.5h-35.5c-39.199219 0-71-31.800781-71-71zm0 0" fill="#2a6429"/><path d="m282.898438 285h35.5c39.203124 0 71-31.800781 71-71v-35.5h-35.5c-39.199219 0-71 31.800781-71 71zm0 0" fill="#6ba840"/><path d="m176.398438 852.800781v-35.5c0-39.199219 31.800781-71 71-71h35.5v35.5c0 39.199219-31.796876 71-71 71zm0 0" fill="#2a6429"/><path d="m282.898438 746.300781v-35.5c0-39.199219-31.796876-71-71-71h-35.5v35.5c0 39.199219 31.800781 71 71 71zm0 0" fill="#d5e174"/><path d="m850.699219 852.800781h-35.5c-39.199219 0-71-31.800781-71-71v-35.5h35.5c39.199219 0 71 31.800781 71 71zm0 0" fill="#2a6429"/><path d="m708.699219 746.300781h35.5v35.5c0 39.199219-31.800781 71-71 71h-35.5v-35.5c.101562-39.199219 31.800781-71 71-71zm0 0" fill="#6ba840"/><g fill="#d5e174"><path d="m35.5 408.101562h-35.5v-230.601562c.101562-98 79.5-177.300781 177.398438-177.398438h71v35.5h-71c-78.296876 0-141.796876 63.5-141.898438 141.898438zm0 0"/><path d="m0 443.601562h35.5v35.5h-35.5zm0 0"/><path d="m851.699219 1029.199219h-35.5v-35.5h35.5c78.402343-.097657 141.902343-63.597657 141.902343-141.898438v-159.800781h35.5v159.699219c0 98-79.402343 177.402343-177.402343 177.5zm0 0"/><path d="m993.699219 621.101562h35.5v35.5h-35.5zm0 0"/></g><path d="m457.5 176.699219c10.601562 20 27.5 36.101562 48 45.800781l-79.699219 79.699219 238.5 238.402343c34.597657 34.597657 90.800781 34.597657 125.5 0l238.300781-238.402343-79.703124-79.699219c-9.699219 20.5-25.699219 37.398438-45.796876 48-51.402343 28.601562-116.203124 10.199219-144.800781-41.199219-28.601562-51.402343-10.199219-116.199219 41.199219-144.800781 2.5-1.398438 5-2.699219 7.601562-3.800781l-79.703124-79.597657-79.699219 79.699219c-24.5-53.5-87.597657-77-141.097657-52.5s-77 87.597657-52.5 141.097657c1.296876 2.5 2.5 4.902343 3.898438 7.300781zm0 0" fill="#6ba840"/><path d="m647.898438 229.5 25.101562 25.101562c27.699219 27.699219 27.699219 72.699219 0 100.398438l-25.101562 25.101562-25.097657-25.101562c-27.699219-27.699219-27.699219-72.699219 0-100.398438zm0 0" fill="#2a6429"/><path d="m647.898438 380 25.101562 25.101562c27.699219 27.699219 72.699219 27.699219 100.398438 0l25.101562-25.101562-25.101562-25.101562c-27.699219-27.699219-72.699219-27.699219-100.398438 0zm0 0" fill="#d5e174"/></svg>