<svg height="918pt" viewBox="-26 0 918 918.2" width="918pt" xmlns="http://www.w3.org/2000/svg"><path d="m782.898438 782.699219-349.699219 133.300781-349.699219-133.300781v-699.398438h699.398438zm0 0" fill="#e6e6e6"/><path d="m433.199219 832.699219v-349.699219h-283.097657v249.800781zm0 0" fill="#0071bc"/><path d="m433.199219 832.699219v-349.699219h283.101562v249.800781zm0 0" fill="#29abe2"/><path d="m150.101562 149.898438h283.097657v333.101562h-283.097657zm0 0" fill="#29abe2"/><path d="m433.199219 149.898438h283.101562v333.101562h-283.101562zm0 0" fill="#0071bc"/><g fill="#d5e174"><path d="m176.898438 918.199219-136-57.199219c-24.796876-10.398438-40.796876-34.601562-40.796876-61.5v-200h33.296876v200c0 13.398438 8 25.5 20.402343 30.699219l135.898438 57.199219zm0 0"/><path d="m866.199219 316.398438h-33.300781v-249.796876c0-18.402343-14.898438-33.300781-33.296876-33.300781h-50v-33.300781h50c36.796876 0 66.597657 29.800781 66.597657 66.601562zm0 0"/><path d="m832.898438 349.699219h33.300781v33.300781h-33.300781zm0 0"/><path d="m.199219 532.898438h33.300781v33.300781h-33.300781zm0 0"/></g><path d="m649.699219 483c0 119.570312-96.929688 216.5-216.5 216.5-119.570313 0-216.5-96.929688-216.5-216.5s96.929687-216.5 216.5-216.5c119.570312 0 216.5 96.929688 216.5 216.5zm0 0" fill="#6ba840"/><path d="m533.101562 383.101562v83.296876c0 11.300781-1.601562 22.5-4.800781 33.300781-3.5 11.902343-8.902343 23.199219-16.199219 33.300781-21.703124 31.398438-57.402343 50.101562-95.601562 50h-83.300781v-83.300781c0-51.597657 33.902343-97 83.300781-111.699219 10.800781-3.199219 22-4.898438 33.300781-4.800781h83.300781zm0 0" fill="#a7cc46"/><path d="m533.101562 406.699219-93.101562 92.902343h88.300781c-3.5 11.898438-8.902343 23.199219-16.199219 33.296876h-105.402343l-49.800781 50h-23.597657v-23.597657l83.300781-83.101562v-88.300781c10.796876-3.199219 22-4.898438 33.296876-4.796876v59.796876l59.601562-59.796876h23.601562zm0 0" fill="#2a6429"/></svg>