<svg height="901pt" viewBox="0 -37 901.09998 901" width="901pt" xmlns="http://www.w3.org/2000/svg"><path d="m540.300781 360.449219c66.5-49.597657 80.199219-143.699219 30.5-210.199219s-143.699219-80.101562-210.101562-30.5c-66.398438 49.601562-80.199219 143.800781-30.5 210.199219 8.601562 11.601562 18.902343 21.902343 30.5 30.5-66.5 49.699219-80.199219 143.800781-30.5 210.199219 49.699219 66.402343 143.699219 80.101562 210.199219 30.5 66.5-49.597657 80.101562-143.699219 30.5-210.199219-8.699219-11.5-19-21.800781-30.597657-30.5zm0 0" fill="#a7cc46"/><path d="m886 450.550781c0 66.398438-53.800781 120.097657-120.101562 120.097657-66.296876 0-120.097657-53.796876-120.097657-120.097657-.101562-255.300781 53.699219-450.4999998 120.097657-450.4999998 66.300781 0 120.101562 195.1992188 120.101562 450.4999998zm0 0" fill="#6ba840"/><path d="m732.5 257.351562-29.800781-3.902343c6.199219-57.898438 19.800781-114.699219 40.402343-169.199219l27.597657 11.800781c-19.800781 51.800781-32.597657 106.097657-38.199219 161.300781zm0 0" fill="#a7cc46"/><path d="m726.199219 316.648438-29.898438-2.5c.898438-10.398438 1.800781-20.5 2.898438-30.398438l29.902343 3.199219c-1.101562 9.601562-2.101562 19.5-2.902343 29.699219zm0 0" fill="#a7cc46"/><path d="m15 .0507812h240.300781v570.6992188h-240.300781zm0 0" fill="#d5e174"/><path d="m90.101562 180.25h-30v-120.101562c0-8.296876 6.699219-15 15-15h60.097657v30h-45.097657zm0 0" fill="#a7cc46"/><path d="m60 210.351562h30v30h-30zm0 0" fill="#a7cc46"/><path d="m385.398438 202.75-26-15c29-50.300781 93.300781-67.5 143.601562-38.5 6.300781 3.601562 12.101562 7.898438 17.5 12.699219l-20 22.402343c-30.898438-27.703124-78.398438-25-106 5.898438-3.398438 3.898438-6.5 8.101562-9.101562 12.5zm0 0" fill="#d5e174"/><path d="m346.898438 257.851562c-1.898438-11.601562-1.898438-23.402343 0-35l29.601562 5c-1.398438 8.296876-1.398438 16.796876 0 25.097657zm0 0" fill="#d5e174"/><g fill="#8c6239"><path d="m515 470.050781-64.5 64.398438-49.5-49.398438-21.199219 21.199219 55.699219 55.699219v249.101562h30v-249.101562l70.699219-70.699219zm0 0"/><path d="m836.601562 416.148438-21.300781-21.199219-49.402343 49.402343-34.5-34.402343-21.199219 21.199219 40.699219 40.703124v339.199219h30v-339.199219zm0 0"/><path d="m184.601562 394.949219-49.5 49.402343-34.402343-34.402343-21.300781 21.199219 40.703124 40.703124v339.199219h30v-339.199219l55.699219-55.703124zm0 0"/><path d="m0 796.050781h901.101562v30h-901.101562zm0 0"/></g></svg>