<svg height="820pt" viewBox="-21 0 820 820" width="820pt" xmlns="http://www.w3.org/2000/svg"><path d="m69.5 514.199219v-306.300781h-55.601562l110.5-124.5 111.800781 125.101562-55.597657-.601562v306.300781zm0 0" fill="#fbb03b"/><path d="m597.601562 514.199219v-306.300781h-55.601562l110.601562-124.5 111.796876 125.101562-55.597657-.601562v306.300781zm0 0" fill="#fbb03b"/><path d="m333.5 250.199219v-111.800781h-55.601562l110.601562-124.5 111.800781 125.101562-55.601562-.601562v111.800781zm0 0" fill="#fbb03b"/><path d="m653.199219 555.898438c0 145.859374-118.242188 264.101562-264.097657 264.101562-145.859374 0-264.101562-118.242188-264.101562-264.101562 0-145.855469 118.242188-264.097657 264.101562-264.097657 145.855469 0 264.097657 118.242188 264.097657 264.097657zm0 0" fill="#29abe2"/><path d="m389.101562 291.898438c-56.300781-.097657-111.203124 18-156.5 51.402343l-24.203124 73.699219v41.699219l27.800781 13.902343 55.601562-27.800781 41.699219 13.898438-55.601562 55.601562v69.5l83.402343 69.5 27.800781 13.898438 41.699219-27.800781-55.601562-55.597657 13.902343-55.601562h83.398438l41.699219-41.699219 27.800781-69.5 51.699219-28c-50.097657-61.5-125.300781-97.199219-204.597657-97.101562zm0 0" fill="#a7cc46"/><path d="m583.699219 583.699219 27.800781 55.601562 26.601562 4.699219c18.097657-51.101562 20-106.601562 5.398438-158.800781l-59.800781 42.902343zm0 0" fill="#a7cc46"/><path d="m412.800781 818.898438c64.898438-5.796876 125.398438-35.5 169.800781-83.296876l-40.601562-12.902343-41.699219-27.800781-69.5 13.902343-41.699219 55.597657zm0 0" fill="#a7cc46"/><path d="m180.601562 667.101562-24.101562 14c21.800781 40.296876 53.699219 74.296876 92.5 98.699219l15-29.300781-13.898438-55.601562zm0 0" fill="#a7cc46"/><g fill="#f7931e"><path d="m458.601562 250.199219h-27.800781v-111.800781c0-3.699219 1.5-7.296876 4.199219-9.898438 2.5-2.800781 6.199219-4.300781 9.898438-4l24.101562.300781-80.398438-90-79.703124 89.699219h24.703124c7.699219 0 13.898438 6.199219 13.898438 13.898438v111.800781h-27.800781v-97.898438h-41.699219c-7.699219 0-13.898438-6.199219-13.898438-13.902343 0-3.398438 1.199219-6.699219 3.5-9.199219l110.5-124.5c2.597657-3 6.398438-4.699219 10.398438-4.699219s7.699219 1.699219 10.398438 4.601562l111.703124 125.097657c3.699219 4.101562 4.597657 10 2.296876 15-2.398438 4.902343-7.398438 8-12.796876 8.199219l-41.5-.398438zm0 0"/><path d="m83.398438 361.398438h-27.796876v-138.898438l-41.5.398438h-.203124c-7.699219 0-13.898438-6.199219-13.898438-13.898438 0-3.398438 1.300781-6.699219 3.5-9.300781l111.800781-125c2.597657-2.898438 6.398438-4.597657 10.398438-4.597657s7.699219 1.699219 10.402343 4.699219l110.5 124.398438c5.097657 5.699219 4.597657 14.5-1.203124 19.601562-2.5 2.300781-5.796876 3.5-9.199219 3.5h-41.699219v55.699219h-27.800781v-69.5c0-7.699219 6.199219-13.898438 13.902343-13.898438h24.699219l-79.699219-89.703124-80.402343 90 24.101562-.296876c3.699219 0 7.300781 1.398438 9.898438 4 2.601562 2.597657 4.101562 6.199219 4.101562 9.898438v152.898438zm0 0"/><path d="m55.601562 389.199219h27.796876v27.800781h-27.796876zm0 0"/><path d="m55.601562 444.699219h27.796876v27.800781h-27.796876zm0 0"/><path d="m166.699219 305.800781h27.800781v27.800781h-27.800781zm0 0"/><path d="m55.601562 500.300781h27.796876v27.800781h-27.796876zm0 0"/><path d="m722.699219 361.398438h-27.800781v-152.898438c0-3.699219 1.5-7.300781 4.203124-9.898438 2.699219-2.5 6.199219-4 9.898438-4l24.101562.296876-80.402343-90-79.699219 89.703124h24.699219c7.699219 0 13.902343 6.199219 13.902343 13.898438v69.5h-27.800781v-55.601562h-41.699219c-7.703124 0-13.902343-6.199219-13.902343-13.898438 0-3.398438 1.199219-6.699219 3.5-9.199219l110.5-124.5c2.601562-3 6.402343-4.699219 10.402343-4.699219s7.699219 1.699219 10.398438 4.597657l111.699219 125.101562c5.101562 5.699219 4.601562 14.5-1.097657 19.597657-2.5 2.300781-5.800781 3.5-9.203124 3.5h-.199219l-41.5-.398438zm0 0"/><path d="m694.898438 389.199219h27.800781v27.800781h-27.800781zm0 0"/><path d="m694.898438 444.699219h27.800781v27.800781h-27.800781zm0 0"/><path d="m583.699219 305.800781h27.800781v27.800781h-27.800781zm0 0"/><path d="m694.898438 500.300781h27.800781v27.800781h-27.800781zm0 0"/></g></svg>