<svg height="1100pt" viewBox="-177 0 1100 1100" width="1100pt" xmlns="http://www.w3.org/2000/svg"><path d="m279.699219 0h186.402343v93.199219h-186.402343zm0 0" fill="#a7cc46"/><path d="m149.199219 74.601562h447.5c30.902343 0 55.902343 25 55.902343 55.898438v820.300781c0 30.898438-25 55.898438-55.902343 55.898438h-447.5c-30.898438 0-55.898438-25-55.898438-55.898438v-820.300781c-.101562-30.898438 25-55.898438 55.898438-55.898438zm0 0" fill="#6ba840"/><path d="m167.800781 149.199219h410.199219v783.101562h-410.199219zm0 0" fill="#f2f2f2"/><g fill="#d5e174"><path d="m223.699219 1100h-93.199219c-72-.101562-130.398438-58.5-130.5-130.5v-223.699219h37.300781v223.699219c.097657 51.5 41.800781 93.199219 93.199219 93.199219h93.199219zm0 0"/><path d="m0 671.199219h37.300781v37.300781h-37.300781zm0 0"/><path d="m708.5 93.199219h37.300781v335.601562h-37.300781zm0 0"/><path d="m708.5 466.101562h37.300781v37.296876h-37.300781zm0 0"/></g><path d="m467.101562 482.898438c-36.5 35.300781-131.703124 43.703124-170.402343-10.5-54.300781-76-3.398438-159.097657-54.300781-231.597657 0 0 141.101562-52.5 228 61.5 46.800781 61.398438 33.300781 145.300781-3.296876 180.597657zm0 0" fill="#6ba840"/><path d="m428.800781 690.398438-37.300781-1.097657 3.300781-106.902343c7-86.5-7.601562-173.398438-42.402343-253l34.101562-14.898438c37.199219 84.898438 52.898438 177.601562 45.5 270zm0 0" fill="#8c6239"/><path d="m167.800781 932.199219h410.199219v-279.699219c-68.398438 0-68.398438-74.601562-136.800781-74.601562-68.398438 0-68.300781 74.601562-136.800781 74.601562s-68.296876-74.5-136.597657-74.5zm0 0" fill="#a67c52"/><path d="m317 876.300781h-18.601562c-41.199219 0-74.597657-33.402343-74.597657-74.601562v-93.199219h37.300781v93.199219c0 20.601562 16.699219 37.300781 37.296876 37.300781h18.601562zm0 0" fill="#c69c6d"/><path d="m354.300781 839h37.300781v37.300781h-37.300781zm0 0" fill="#c69c6d"/></svg>