<svg height="893pt" viewBox="0 -14 893.79999 893" width="893pt" xmlns="http://www.w3.org/2000/svg"><path d="m700.101562 447.300781v59.597657l-89.402343-59.597657h-119.097657l-44.703124 59.597657-44.699219-59.597657h-119.199219l-89.300781 59.597657v-59.597657h-74.5c-24.699219 0-44.699219-20-44.699219-44.699219v-283c0-24.703124 20-44.703124 44.699219-44.703124h655.402343c24.699219 0 44.699219 20 44.699219 44.703124v283c0 24.699219-20 44.699219-44.699219 44.699219zm0 0" fill="#d5e174"/><path d="m331 352.601562c-7.898438 7.199219-17.300781 12.597657-27.398438 15.898438-9.5 3.398438-19.402343 5.5-29.5 6.300781-30 4.300781-60-7.300781-79.203124-30.699219-43.5-60.800781-2.796876-127.203124-43.5-185 0 0 112.800781-42 182.203124 49.199219 37.5 48.898438 26.597657 116-2.601562 144.300781zm0 0" fill="#6ba840"/><path d="m461.800781 164.300781h29.800781v29.800781h-29.800781zm0 0" fill="#2a6429"/><path d="m521.398438 164.300781h223.402343v29.800781h-223.402343zm0 0" fill="#2a6429"/><path d="m432 223.800781h312.800781v29.800781h-312.800781zm0 0" fill="#2a6429"/><path d="m432 283.398438h312.800781v29.800781h-312.800781zm0 0" fill="#2a6429"/><path d="m432 343h253.199219v29.800781h-253.199219zm0 0" fill="#2a6429"/><path d="m566.101562 826.699219v37.699219h-238.402343v-37.699219c0-22.597657 12.699219-43.199219 32.902343-53.300781l56.398438-28.199219v-29.800781l-29.800781-29.796876-5.699219-45.300781c-4.5-36 21.101562-68.902343 57.101562-73.402343 2.699219-.296876 5.398438-.5 8.097657-.5 36.300781 0 65.800781 29.402343 65.800781 65.800781 0 2.699219-.199219 5.402343-.5 8.101562l-5.699219 45.300781-29.601562 29.796876v29.800781l56.402343 28.199219c20.199219 10.101562 33 30.800781 33 53.300781zm0 0" fill="#6ba840"/><path d="m878.898438 826.699219v37.699219h-238.296876v-37.699219c0-22.597657 12.699219-43.199219 32.898438-53.300781l56.398438-28.199219v-29.800781l-29.796876-29.796876-5.703124-45.300781c-4.5-36 21.101562-68.902343 57.101562-73.402343 2.699219-.296876 5.398438-.5 8.101562-.5 36.296876 0 65.796876 29.402343 65.796876 65.800781 0 2.699219-.199219 5.402343-.5 8.101562l-5.699219 45.300781-29.699219 29.796876v29.800781l56.398438 28.199219c20.300781 10.101562 33 30.800781 33 53.300781zm0 0" fill="#6ba840"/><path d="m14.898438 826.699219v37.699219h238.300781v-37.699219c0-22.597657-12.699219-43.199219-32.898438-53.300781l-56.402343-28.199219v-29.800781l29.800781-29.796876 5.601562-45.203124c4.5-36-21.101562-68.898438-57.101562-73.398438-2.699219-.300781-5.398438-.5-8.097657-.5-36.300781 0-65.800781 29.398438-65.800781 65.800781 0 2.699219.199219 5.398438.5 8.097657l5.699219 45.300781 29.800781 29.800781v29.800781l-56.402343 28.199219c-20.296876 10-33 30.699219-33 53.199219zm0 0" fill="#6ba840"/><g fill="#d5e174"><path d="m893.800781 223.800781h-29.800781v-119.101562c0-41.097657-33.398438-74.398438-74.5-74.5h-29.800781v-29.800781h29.800781c57.601562.101562 104.199219 46.703124 104.300781 104.300781zm0 0"/><path d="m893.800781 223.800781h-29.800781v-119.101562c0-41.097657-33.398438-74.398438-74.5-74.5h-29.800781v-29.800781h29.800781c57.601562.101562 104.199219 46.703124 104.300781 104.300781zm0 0"/><path d="m864 253.601562h29.800781v29.796876h-29.800781zm0 0"/><path d="m0 179.199219h29.800781v223.402343h-29.800781zm0 0"/><path d="m0 179.199219h29.800781v223.402343h-29.800781zm0 0"/></g><path d="m303.601562 368.5c-9.5 3.398438-19.402343 5.5-29.5 6.300781-.101562-.300781-.203124-.699219-.101562-1-3-49.699219-14.699219-98.402343-34.601562-144l27.300781-11.902343c21 47.601562 33.402343 98.402343 36.800781 150.300781zm0 0" fill="#8c6239"/></svg>