<svg height="957pt" viewBox="0 -47 957.79999 957" width="957pt" xmlns="http://www.w3.org/2000/svg"><path d="m558.699219 192h319.300781v606.5h-798.199219v-606.5h319.300781" fill="#6ba840"/><path d="m143.699219 335.601562h670.402343v399.097657h-670.402343zm0 0" fill="#29abe2"/><path d="m47.898438 798.5h862v63.898438h-862zm0 0" fill="#a7cc46"/><path d="m159.601562 239.800781h31.898438v31.898438h-31.898438zm0 0" fill="#2a6429"/><path d="m143.699219 128.101562h159.601562v63.898438h-159.601562zm0 0" fill="#a7cc46"/><path d="m175.601562.398438h95.796876v127.703124h-95.796876zm0 0" fill="#ccc"/><path d="m271.398438 128.101562v-127.703124h-95.796876v127.703124" fill="#ccc"/><path d="m175.601562 48.300781h47.898438v31.898438h-47.898438zm0 0" fill="#808080"/><path d="m654.5 128.101562h159.601562v63.898438h-159.601562zm0 0" fill="#a7cc46"/><path d="m686.398438.398438h95.800781v127.703124h-95.800781zm0 0" fill="#ccc"/><path d="m686.398438 128.101562v-127.703124h95.800781v127.703124" fill="#ccc"/><path d="m734.300781 48.300781h47.898438v31.898438h-47.898438zm0 0" fill="#808080"/><path d="m223.5 239.800781h31.898438v31.898438h-31.898438zm0 0" fill="#2a6429"/><path d="m766.199219 239.800781h31.902343v31.898438h-31.902343zm0 0" fill="#2a6429"/><path d="m702.398438 239.800781h31.902343v31.898438h-31.902343zm0 0" fill="#2a6429"/><path d="m494.898438.398438h-32l-79.796876 239.402343h95.796876l-16 143.699219h32l79.800781-239.398438h-95.800781zm0 0" fill="#f9d51f"/><g fill="#d5e174"><path d="m0 255.800781h31.898438v303.300781h-31.898438zm0 0"/><path d="m0 591h31.898438v31.898438h-31.898438zm0 0"/><path d="m925.898438 447.398438h31.902343v303.300781h-31.902343zm0 0"/><path d="m925.898438 383.5h31.902343v31.898438h-31.902343zm0 0"/></g><path d="m478.898438 591v63.898438h-63.898438c-42.898438 0-84-17.296876-114-47.898438-9.398438-9.601562-17.5-20.300781-24.300781-31.898438-14-24.300781-21.398438-51.800781-21.398438-79.800781v-63.902343h63.898438c5.402343 0 10.699219.300781 16 .800781 10.800781 1.101562 21.5 3.300781 31.902343 6.5 66.5 21 111.699219 82.601562 111.796876 152.300781zm0 0" fill="#a7cc46"/><path d="m478.898438 632.199219v22.699219h-22.699219l-47.699219-47.898438h-107.398438c-9.402343-9.601562-17.5-20.300781-24.300781-31.898438h99.800781l-121.203124-121v-22.703124h22.703124l57.097657 57.300781v-56.5c10.800781 1.101562 21.5 3.300781 31.902343 6.5v81.902343zm0 0" fill="#6ba840"/><path d="m478.898438 591v63.898438h63.902343c42.898438 0 84-17.296876 114-47.898438 9.398438-9.601562 17.5-20.300781 24.300781-31.898438 14-24.300781 21.398438-51.800781 21.398438-79.800781v-63.902343h-63.898438c-5.402343 0-10.703124.300781-16 .800781-10.800781 1.101562-21.5 3.300781-31.902343 6.5-66.5 21-111.699219 82.601562-111.800781 152.300781zm0 0" fill="#a7cc46"/><path d="m478.898438 632.199219v22.699219h22.703124l47.699219-47.898438h107.398438c9.402343-9.601562 17.5-20.300781 24.300781-31.898438h-99.800781l121.199219-121v-22.703124h-22.699219l-57.097657 57.300781v-56.5c-10.800781 1.101562-21.5 3.300781-31.902343 6.5v81.902343zm0 0" fill="#6ba840"/></svg>