<svg height="1135pt" viewBox="1 -56 1135.9 1135" width="1135pt" xmlns="http://www.w3.org/2000/svg"><path d="m586.902344 265.515625h454.382812v757.335937h-454.382812zm0 0" fill="#6ba840"/><path d="m530.191406 208.707031c0 83.613281-67.808594 151.425781-151.425781 151.425781-83.613281 0-151.527344-67.8125-151.527344-151.425781s67.8125-189.332031 151.429688-189.332031c83.613281 0 151.523437 105.71875 151.523437 189.332031zm0 0" fill="#a7cc46"/><path d="m416.574219 492.757812h-37.90625v-189.335937c0-5 2-9.800781 5.5-13.402344l37.90625-37.90625 26.804687 26.804688-32.304687 32.308593zm0 0" fill="#8c6239"/><path d="m94.714844 549.566406h719.527344v473.382813h-719.527344zm0 0" fill="#29abe2"/><path d="m189.332031 795.609375h302.953125v227.242187h-302.953125zm0 0" fill="#a7cc46"/><path d="m927.761719 738.898438h-113.617188v37.910156h94.714844v37.90625h-94.714844v37.90625h94.714844v170.230468h37.90625v-265.046874c-.097656-10.503907-8.5-18.90625-19.003906-18.90625zm0 0" fill="#8c6239"/><path d="m56.808594 492.757812h795.242187v75.710938h-795.242187zm0 0" fill="#a7cc46"/><path d="m624.808594 189.804688h189.335937v75.710937h-189.335937zm0 0" fill="#ccc"/><path d="m776.335938 189.804688h-113.621094l18.90625-189.335938h75.710937zm0 0" fill="#e6e6e6"/><path d="m814.144531 189.804688h189.332031v75.710937h-189.332031zm0 0" fill="#b3b3b3"/><path d="m965.671875 189.804688h-113.621094l18.902344-189.335938h75.714844zm0 0" fill="#ccc"/><path d="m246.144531 890.328125h37.90625v56.808594h-37.90625zm0 0" fill="#006837"/><g fill="#d5e174"><path d="m643.714844 322.328125h37.90625v37.90625h-37.90625zm0 0"/><path d="m643.714844 322.328125h37.90625v37.90625h-37.90625zm0 0"/><path d="m719.527344 322.328125h37.90625v37.90625h-37.90625zm0 0"/><path d="m719.527344 322.328125h37.90625v37.90625h-37.90625zm0 0"/><path d="m643.714844 398.039062h37.90625v37.90625h-37.90625zm0 0"/><path d="m719.527344 398.039062h37.90625v37.90625h-37.90625zm0 0"/><path d="m870.953125 322.328125h37.90625v37.90625h-37.90625zm0 0"/><path d="m870.953125 322.328125h37.90625v37.90625h-37.90625zm0 0"/><path d="m946.667969 322.328125h37.90625v37.90625h-37.90625zm0 0"/><path d="m946.667969 322.328125h37.90625v37.90625h-37.90625zm0 0"/><path d="m870.953125 398.039062h37.90625v37.90625h-37.90625zm0 0"/><path d="m946.667969 398.039062h37.90625v37.90625h-37.90625zm0 0"/></g><path d="m643.714844 625.28125h113.617187v37.90625h-113.617187zm0 0" fill="#f9d51f"/><path d="m568 700.992188h189.332031v37.90625h-189.332031zm0 0" fill="#f9d51f"/><path d="m492.285156 909.230469h321.859375v37.90625h-321.859375zm0 0" fill="#006837"/><path d="m94.714844 909.230469h94.71875v37.90625h-94.71875zm0 0" fill="#006837"/><path d="m0 644.183594h37.90625v265.046875h-37.90625zm0 0" fill="#d5e174"/><path d="m1098.191406 398.039062h37.910156v416.574219h-37.910156zm0 0" fill="#d5e174"/><path d="m1098.191406 322.328125h37.910156v37.90625h-37.910156zm0 0" fill="#d5e174"/><path d="m1098.191406 322.328125h37.910156v37.90625h-37.910156zm0 0" fill="#d5e174"/><path d="m359.761719 208.707031c0 83.613281-67.808594 151.425781-151.425781 151.425781-83.613282 0-151.527344-67.8125-151.527344-151.425781s67.8125-189.332031 151.429687-189.332031c83.613281 0 151.523438 105.71875 151.523438 189.332031zm0 0" fill="#6ba840"/><path d="m297.351562 241.011719-26.703124-26.804688-62.410157 62.410157-43.410156-43.40625-26.703125 26.703124 51.207031 51.3125v181.53125h37.90625v-181.53125zm0 0" fill="#8c6239"/></svg>