<svg height="1114pt" viewBox="-122 0 1114 1114" width="1114pt" xmlns="http://www.w3.org/2000/svg"><path d="m119.671875 810.898438c51.5 4 131.296875-51.097657 126.5-118.597657-6.703125-94.699219-100.300781-126.699219-107.5-216.300781 0 0-144.300781 50.300781-138.5 195.699219 3.097656 78.5 68 135.300781 119.5 139.199219zm0 0" fill="#a7cc46"/><path d="m119.671875 810.898438c51.5 4 131.296875-51.097657 126.5-118.597657-6.703125-94.699219-100.300781-126.699219-107.5-216.300781 0 0-144.300781 50.300781-138.5 195.699219 3.097656 78.5 68 135.300781 119.5 139.199219zm0 0" fill="#a7cc46"/><path d="m251.570312 900.300781-18.898437-18.902343c-65.703125-67.597657-113.601563-150.296876-139.5-240.898438l36.398437-10.398438c24.101563 84.398438 68.800782 161.597657 130 224.5l18.800782 18.699219zm0 0" fill="#8c6239"/><path d="m751.070312 810.898438c-51.5 4-131.300781-51.097657-126.5-118.597657 6.699219-94.699219 100.300782-126.699219 107.5-216.300781 0 0 144.300782 50.300781 138.5 195.699219-3.101562 78.5-68 135.300781-119.5 139.199219zm0 0" fill="#a7cc46"/><path d="m619.070312 900.300781 18.898438-18.902343c65.703125-67.5 113.601562-150.199219 139.5-240.796876l-36.398438-10.402343c-24.101562 84.402343-68.800781 161.601562-130 224.5l-18.800781 18.699219zm0 0" fill="#8c6239"/><path d="m624.671875 281.101562c0-104.601562-84.703125-189.300781-189.203125-189.402343-104.597656 0-189.296875 84.699219-189.398438 189.199219 0 75.300781 44.601563 143.402343 113.601563 173.601562v53.699219h151.398437v-53.699219c69-30.101562 113.601563-98.101562 113.601563-173.398438zm0 0" fill="#f9d51f"/><path d="m170.269531 867.898438h530.101563v75.703124h-530.101563zm0 0" fill="#c69c6d"/><path d="m624.671875 1114h-378.601563l-37.898437-170.300781h454.296875zm0 0" fill="#8c6239"/><path d="m416.371094 735.398438h37.898437v132.5h-37.898437zm0 0" fill="#8c6239"/><path d="m492.171875 735.398438h-113.601563l-18.898437-75.699219h151.398437zm0 0" fill="#6ba840"/><path d="m321.769531 584h227.199219v75.699219h-227.199219zm0 0" fill="#a7cc46"/><path d="m321.769531 508.300781h227.199219v75.699219h-227.199219zm0 0" fill="#6ba840"/><path d="m416.371094 356.800781h37.898437v151.398438h-37.898437zm0 0" fill="#8c6239"/><path d="m492.171875 262.199219h37.898437v37.800781c0 31.398438-25.398437 56.800781-56.800781 56.800781h-37.898437v-37.800781c0-31.398438 25.398437-56.800781 56.800781-56.800781zm0 0" fill="#a7cc46"/><path d="m397.46875 356.800781h37.902344v-37.800781c0-31.398438-25.402344-56.800781-56.800782-56.800781h-37.898437v37.800781c0 31.398438 25.5 56.800781 56.796875 56.800781zm0 0" fill="#6ba840"/><g fill="#f7e25f"><path d="m194.96875 228.300781-37-8.101562c25.5-115.398438 119.800781-203.097657 236.800781-220.199219l5.402344 37.5c-101.402344 14.800781-183.101563 90.800781-205.203125 190.800781zm0 0"/><path d="m152.070312 301.398438c-.5-6.699219-.699218-13.5-.699218-20.296876 0-6.800781.199218-13.601562.699218-20.300781l37.898438 2.699219c-.5 5.800781-.699219 11.699219-.699219 17.601562 0 5.898438.199219 11.796876.601563 17.597657zm0 0"/><path d="m668.371094 443.398438-31.101563-21.699219c28.800781-41.199219 44.199219-90.300781 44.101563-140.597657 0-11.800781-.800782-23.5-2.5-35.203124l37.5-5.398438c1.898437 13.398438 2.898437 27 2.898437 40.5.199219 58.101562-17.597656 114.800781-50.898437 162.398438zm0 0"/></g></svg>