<svg height="1034pt" viewBox="-44 0 1034 1034" width="1034pt" xmlns="http://www.w3.org/2000/svg"><path d="m813.902344 428.199219c0 188.21875-152.582032 340.800781-340.800782 340.800781s-340.800781-152.582031-340.800781-340.800781 152.582031-340.800781 340.800781-340.800781 340.800782 152.582031 340.800782 340.800781zm0 0" fill="#c4e9fb"/><path d="m435.199219 939.398438h-357.398438c-43.101562-.097657-78-35.199219-77.800781-78.296876.101562-40.5 31.101562-74.101562 71.402344-77.601562l348-29c19.597656-1.699219 34.597656-18.101562 34.699218-37.699219v-99.199219h37.898438v99.199219c-.199219 39.300781-30.300781 72-69.398438 75.5l-348 29c-22.101562 1.800781-38.601562 21.199219-36.800781 43.398438 1.699219 20.902343 19.101563 37 40.101563 37h357.398437zm0 0" fill="#29abe2"/><path d="m558.5 589-85.398438 85.398438-85.402343-85.398438c-45.398438-45.398438-69.597657-107.898438-66.398438-172.101562.898438-15.699219 3.300781-31.296876 7.199219-46.597657 10.300781-38.902343 30.800781-74.402343 59.300781-102.800781l85.398438-85.398438 85.402343 85.398438c4.5 4.5 8.699219 9.101562 12.699219 13.800781 76.398438 90.199219 70.898438 224-12.800781 307.699219zm0 0" fill="#6ba840"/><path d="m525.902344 500 26.898437 26.898438-60.800781 60.601562v68l-18.898438 18.898438-18.902343-18.898438v-105.898438l-132.898438-132.703124c.898438-15.699219 3.300781-31.296876 7.199219-46.597657l125.699219 125.898438v-79.097657l-70.199219-70 26.902344-26.902343 43.398437 43.5v-162.597657l18.898438-18.902343 18.902343 18.902343v105.796876l52.800782-53 13.597656 13.601562c4.5 4.5 8.699219 9.101562 12.699219 13.800781l-79.097657 78.898438v173.800781zm0 0" fill="#2a6429"/><path d="m794.902344 958.300781h151.398437v37.898438h-151.398437zm0 0" fill="#ccc"/><path d="m794.902344 844.699219h151.398437v37.902343h-151.398437zm0 0" fill="#ccc"/><path d="m794.902344 1034v-227.199219l-283.902344 19v189.300781zm0 0" fill="#6ba840"/><path d="m435.199219 882.601562h75.703125v75.699219h-75.703125zm0 0" fill="#a7cc46"/><path d="m633 750.5-16.800781-33.898438c12.402343-6.101562 24.300781-13.101562 35.800781-20.703124l21.101562 31.5c-13 8.5-26.300781 16.203124-40.101562 23.101562zm0 0" fill="#29abe2"/><path d="m273.300781 727.300781c-165.199219-110.300781-209.699219-333.699219-99.300781-498.800781 110.402344-165.101562 333.699219-209.601562 498.902344-99.300781 165.199218 110.300781 209.597656 333.699219 99.296875 498.800781-16.796875 25.199219-36.699219 48.101562-59.296875 68.300781l-25.300782-28.199219c132.5-118.5 143.800782-322 25.300782-454.402343-118.5-132.398438-322-143.800781-454.402344-25.300781-132.398438 118.5-143.800781 322-25.300781 454.402343 18.101562 20.199219 38.601562 38 61.101562 53zm0 0" fill="#29abe2"/><g fill="#c4e9fb"><path d="m850.199219 645.898438-32.699219-18.898438c60.199219-104.601562 69.800781-230.800781 26.101562-343.300781l35.300782-13.800781c47.796875 123.203124 37.296875 261.5-28.703125 376zm0 0"/><path d="m77.199219 392.101562-37.699219-3.402343c17.902344-194.300781 162.699219-353 354.5-388.699219l6.902344 37.199219c-175.203125 32.601562-307.300782 177.5-323.703125 354.902343zm0 0"/><path d="m39.5 467.800781c-1.199219-13.101562-1.800781-26.300781-1.800781-39.601562h37.902343c0 12.101562.5 24.199219 1.597657 36.199219zm0 0"/><path d="m75.601562 977.199219h284v37.902343h-284zm0 0"/></g><path d="m511 825.800781v189.300781l75.699219 5v-199.402343zm0 0" fill="#2a6429"/></svg>