<svg height="1135pt" viewBox="1 1 1135 1135.8" width="1135pt" xmlns="http://www.w3.org/2000/svg"><path d="m890.257812 151.425781 94.617188 94.71875v643.710938l-94.617188 94.71875h-643.8125l-94.617187-94.71875v-643.710938l94.617187-94.71875zm0 0" fill="#a7cc46"/><path d="m890.257812 151.425781 94.617188 94.71875v643.710938l-94.617188 94.71875h-643.8125l-94.617187-94.71875v-643.710938l94.617187-94.71875zm0 0" fill="#a7cc46"/><path d="m909.160156 277.550781v580.898438l-10.203125 10.203125-40.105469 40.207031h-580.902343l-50.410157-50.410156v-580.898438l50.410157-50.3125h580.902343zm0 0" fill="#6ba840"/><path d="m667.117188 655.816406c-37.105469 35.804688-133.722657 44.308594-173.03125-10.703125-55.109376-77.214843-3.5-161.628906-55.109376-235.242187 0 0 143.226563-53.308594 231.542969 62.511718 47.507813 62.3125 33.804688 147.527344-3.402343 183.433594zm0 0" fill="#a7cc46"/><path d="m631.511719 758.933594-37.707031-3.101563c7-87.613281-7.800782-175.53125-43.109376-255.945312l34.707032-15.101563c37.707031 86.117188 53.609375 180.332032 46.109375 274.148438zm0 0" fill="#8c6239"/><path d="m76.113281 511.191406h75.714844v113.617188h-75.714844zm0 0" fill="#2a6429"/><path d="m.398438 549.097656h75.714843v37.90625h-75.714843zm0 0" fill="#ccc"/><path d="m76.113281 719.527344h75.714844v113.621094h-75.714844zm0 0" fill="#2a6429"/><path d="m.398438 757.332031h75.714843v37.90625h-75.714843zm0 0" fill="#ccc"/><path d="m76.113281 302.953125h75.714844v113.621094h-75.714844zm0 0" fill="#2a6429"/><path d="m.398438 340.859375h75.714843v37.90625h-75.714843zm0 0" fill="#ccc"/><g fill="#d5e174"><path d="m708.824219 227.238281-108.117188 108.121094c-3.601562 3.5-8.402343 5.5-13.402343 5.5h-132.523438v-37.90625h124.820312l75.515626-75.714844zm0 0"/><path d="m909.160156 825.144531v33.304688l-10.203125 10.203125-97.914062-97.917969c-3.503907-3.597656-5.503907-8.398437-5.503907-13.402344v-94.714843h37.90625v86.914062zm0 0"/><path d="m795.539062 416.574219h-37.90625v-94.71875c0-10.5 8.503907-18.902344 18.902344-18.902344h132.523438v37.90625h-113.519532zm0 0"/><path d="m473.683594 795.238281h37.90625v37.910157h-37.90625zm0 0"/><path d="m795.539062 586.902344h37.90625v37.90625h-37.90625zm0 0"/><path d="m341.160156 473.382812v94.71875h-37.90625v-87.015624l-75.714844-75.515626v-53.808593l108.121094 108.121093c3.5 3.597657 5.5 8.398438 5.5 13.5zm0 0"/><path d="m303.253906 605.90625h37.90625v37.90625h-37.90625zm0 0"/><path d="m719.828125 908.859375h-37.90625v-75.710937h-132.523437v-37.910157h151.523437c10.503906 0 18.90625 8.503907 18.90625 18.90625zm0 0"/><path d="m757.734375 454.378906h37.90625v37.90625h-37.90625zm0 0"/><path d="m379.066406 302.953125h37.90625v37.90625h-37.90625zm0 0"/><path d="m227.539062 719.527344h113.621094v37.90625h-113.621094zm0 0"/><path d="m379.066406 719.527344h37.90625v37.90625h-37.90625zm0 0"/></g><path d="m984.875 511.191406h75.710938v113.617188h-75.710938zm0 0" fill="#2a6429"/><path d="m1060.6875 549.097656h75.710938v37.90625h-75.710938zm0 0" fill="#ccc"/><path d="m984.875 719.527344h75.710938v113.621094h-75.710938zm0 0" fill="#2a6429"/><path d="m1060.6875 757.332031h75.710938v37.90625h-75.710938zm0 0" fill="#ccc"/><path d="m984.875 302.953125h75.710938v113.621094h-75.710938zm0 0" fill="#2a6429"/><path d="m1060.6875 340.859375h75.710938v37.90625h-75.710938zm0 0" fill="#ccc"/><path d="m511.589844 75.714844h113.621094v75.710937h-113.621094zm0 0" fill="#2a6429"/><path d="m549.398438 0h37.90625v75.714844h-37.90625zm0 0" fill="#ccc"/><path d="m303.253906 75.714844h113.621094v75.710937h-113.621094zm0 0" fill="#2a6429"/><path d="m341.160156 0h37.90625v75.714844h-37.90625zm0 0" fill="#ccc"/><path d="m719.828125 75.714844h113.617187v75.710937h-113.617187zm0 0" fill="#2a6429"/><path d="m757.734375 0h37.90625v75.714844h-37.90625zm0 0" fill="#ccc"/><path d="m511.589844 984.574219h113.621094v75.710937h-113.621094zm0 0" fill="#2a6429"/><path d="m549.398438 1060.285156h37.90625v75.714844h-37.90625zm0 0" fill="#ccc"/><path d="m303.253906 984.574219h113.621094v75.710937h-113.621094zm0 0" fill="#2a6429"/><path d="m341.160156 1060.285156h37.90625v75.714844h-37.90625zm0 0" fill="#ccc"/><path d="m719.828125 984.574219h113.617187v75.710937h-113.617187zm0 0" fill="#2a6429"/><path d="m757.734375 1060.285156h37.90625v75.714844h-37.90625zm0 0" fill="#ccc"/></svg>