<svg height="1116pt" viewBox="-162 0 1116 1116.1" width="1116pt" xmlns="http://www.w3.org/2000/svg"><path d="m792.5625 434.5625c.199219-198.585938-160.6875-359.769531-359.269531-359.96875s-359.867188 160.683594-360.066407 359.265625c-.101562 140.089844 81.09375 267.578125 208.183594 326.570313v71.59375h302.871094v-71.59375c126.988281-58.792969 208.179688-185.980469 208.28125-325.867188zm0 0" fill="#a7cc46"/><g fill="#d5e174"><path d="m675.871094 328.570312c-31.796875-73.394531-95.191406-128.386718-172.28125-149.585937l10.097656-36.496094c88.09375 24.195313 160.484375 86.992188 196.882812 170.785157zm0 0"/><path d="m695.570312 399.164062c-1.597656-11.898437-4-23.699218-7.199218-35.296874l36.496094-10.097657c3.601562 13.296875 6.402343 26.796875 8.199218 40.394531zm0 0"/><path d="m641.175781 1116h-75.691406v-37.898438h75.691406c20.898438 0 37.898438-16.996093 37.898438-37.894531v-94.691406h37.894531v94.691406c-.097656 41.894531-33.996094 75.792969-75.792969 75.792969zm0 0"/><path d="m67.128906 235.378906-33.296875-18.097656c57.191407-104.191406 152.683594-182.085938 266.175781-217.28125l11.097657 36.195312c-104.089844 32.296876-191.582031 103.691407-243.976563 199.183594zm0 0"/><path d="m36.128906 307.871094-36.0937498-11.5c5.0976558-16.097656 11.1953128-31.894532 18.0976558-47.292969l34.496094 15.496094c-6.300781 14.101562-11.800781 28.5-16.5 43.296875zm0 0"/><path d="m678.972656 869.921875h37.898438v37.894531h-37.898438zm0 0"/></g><path d="m508.585938 541.25c-37.09375 35.898438-133.6875 44.398438-173.082032-10.699219-55.09375-77.191406-3.5-161.585937-55.09375-235.175781 0 0 143.183594-53.296875 231.476563 62.492188 47.597656 62.292968 33.898437 147.488281-3.300781 183.382812zm0 0" fill="#6ba840"/><path d="m508.585938 680.636719h37.898437v37.898437h-37.898437zm0 0" fill="#d5e174"/><path d="m338.304688 680.636719h37.894531v37.898437h-37.894531zm0 0" fill="#d5e174"/><path d="m446.492188 783.828125-37.09375-7.699219 8.898437-38.09375c31.796875-117.089844 22.597656-241.480468-26.097656-352.570312l34.695312-15.097656c52.195313 118.988281 62.09375 252.375 28 377.765624l-3.703125 13.398438zm0 0" fill="#8c6239"/><path d="m357.203125 832.125c0-41.796875 33.894531-75.691406 75.691406-75.691406s75.691407 33.894531 75.691407 75.691406zm0 0" fill="#a67c52"/><path d="m243.613281 832.125h378.5625v94.691406h-378.5625zm0 0" fill="#29abe2"/><path d="m243.613281 926.714844h378.5625v94.691406h-378.5625zm0 0" fill="#0071bc"/></svg>