<svg height="1116pt" viewBox="-37 1 1116 1116.85" width="1116pt" xmlns="http://www.w3.org/2000/svg"><path d="m95.050781 1022.332031h189.335938v75.714844h-189.335938zm0 0" fill="#e6e6e6"/><path d="m38.242188 1079.144531h302.953124v37.90625h-302.953124zm0 0" fill="#b3b3b3"/><path d="m607.941406 353.214844-56.808594-56.8125v-94.714844c0-73.613281 29.304688-144.128906 81.316407-196.136719 7.398437-7.402343 19.402343-7.402343 26.804687 0 3.5 3.5 5.5 8.300781 5.5 13.203125v277.550782zm0 0" fill="#b3b3b3"/><path d="m542.429688 466.832031-20.800782 77.617188-82.015625 47.308593c-63.710937 36.804688-139.523437 46.804688-210.539062 27.703126-10.101563-2.699219-16.101563-13.101563-13.402344-23.203126 1.300781-4.800781 4.5-9.003906 8.800781-11.503906l240.34375-138.722656zm0 0" fill="#b3b3b3"/><path d="m673.554688 466.832031 77.613281-20.800781 82.015625 47.308594c63.710937 36.804687 110.21875 97.414062 129.324218 168.527344 2.699219 10.101562-3.300781 20.503906-13.402343 23.207031-4.800781 1.296875-10.003907.597656-14.304688-1.902344l-240.441406-138.722656zm0 0" fill="#b3b3b3"/><g fill="#6ba840"><path d="m875.390625 286.402344c-34.605469-64.914063-91.617187-115.023438-160.429687-141.027344l13.402343-35.40625c77.414063 29.207031 141.527344 85.617188 180.433594 158.628906zm0 0"/><path d="m902.496094 357.613281c-2.902344-12.101562-6.601563-24.003906-11.003906-35.605469l35.40625-13.300781c5.003906 13.101563 9.101562 26.503907 12.304687 40.105469zm0 0"/><path d="m902.496094 357.613281c-2.902344-12.101562-6.601563-24.003906-11.003906-35.605469l35.40625-13.300781c5.003906 13.101563 9.101562 26.503907 12.304687 40.105469zm0 0"/><path d="m1003.914062 392.820312c-1.101562-12.101562-2.800781-24.304687-4.902343-36.105468l37.207031-6.800782c2.402344 13 4.203125 26.304688 5.402344 39.605469zm0 0"/><path d="m1003.914062 392.820312c-1.101562-12.101562-2.800781-24.304687-4.902343-36.105468l37.207031-6.800782c2.402344 13 4.203125 26.304688 5.402344 39.605469zm0 0"/><path d="m990.613281 320.507812c-38.007812-132.625-141.628906-236.242187-274.152343-274.25l10.304687-36.40625c145.226563 41.609376 258.746094 155.128907 300.351563 300.355469zm0 0"/><path d="m990.613281 320.507812c-38.007812-132.625-141.628906-236.242187-274.152343-274.25l10.304687-36.40625c145.226563 41.609376 258.746094 155.128907 300.351563 300.355469zm0 0"/><path d="m271.582031 484.238281c-13.402343-81.617187 3.402344-165.332031 47.109375-235.644531l32.207032 20.003906c-38.910157 62.511719-53.8125 136.925782-41.910157 209.539063zm0 0"/><path d="m271.582031 484.238281c-13.402343-81.617187 3.402344-165.332031 47.109375-235.644531l32.207032 20.003906c-38.910157 62.511719-53.8125 136.925782-41.910157 209.539063zm0 0"/><path d="m373.601562 236.890625-29.304687-24.003906c8.902344-10.800781 18.402344-21.101563 28.503906-30.703125l26.105469 27.402344c-8.902344 8.503906-17.402344 17.605468-25.304688 27.304687zm0 0"/><path d="m349.796875 126.472656-24.605469-28.804687c10.101563-8.601563 20.703125-16.804688 31.605469-24.503907l21.804687 30.90625c-9.902343 7-19.601562 14.5-28.804687 22.402344zm0 0"/><path d="m185.667969 535.644531c-36.507813-146.523437 5-301.652343 109.917969-410.273437l27.105468 26.507812c-95.714844 99.214844-133.722656 240.742188-100.316406 374.566406zm0 0"/><path d="m185.667969 535.644531c-36.507813-146.523437 5-301.652343 109.917969-410.273437l27.105468 26.507812c-95.714844 99.214844-133.722656 240.742188-100.316406 374.566406zm0 0"/></g><path d="m702.660156 1022.332031h-189.335937l42.609375-290.449219 11.003906-75.714843 24.800781-169.230469h32.507813l24.804687 169.230469 11 75.714843zm0 0" fill="#e6e6e6"/><path d="m660.050781 731.882812h-104.117187l11.003906-75.714843h82.113281zm0 0" fill="#6ba840"/><path d="m456.515625 1022.332031h302.953125v75.714844h-302.953125zm0 0" fill="#b3b3b3"/><path d="m748.269531 739.582031-15.605469-34.503906c24.207032-10.902344 46.808594-24.90625 67.3125-41.609375l24.003907 29.207031c-23.003907 18.800781-48.507813 34.605469-75.710938 46.90625zm0 0" fill="#6ba840"/><path d="m737.765625 844.601562-11.300781-36.105468c59.511718-18.605469 113.917968-50.910156 158.628906-94.316406l26.402344 27.101562c-49.007813 47.609375-108.519532 82.917969-173.730469 103.320312zm0 0" fill="#6ba840"/><path d="m.433594 738.382812h94.71875v94.714844h-94.71875zm0 0" fill="#a7cc46"/><path d="m.433594 833h94.71875v94.714844h-94.71875zm0 0" fill="#6ba840"/><path d="m.433594 927.714844h94.71875v94.71875h-94.71875zm0 0" fill="#a7cc46"/><path d="m95.050781 738.382812h94.71875v94.714844h-94.71875zm0 0" fill="#6ba840"/><path d="m95.050781 833h94.71875v94.714844h-94.71875zm0 0" fill="#a7cc46"/><path d="m95.050781 927.714844h94.71875v94.71875h-94.71875zm0 0" fill="#6ba840"/><path d="m189.769531 738.382812h94.714844v94.714844h-94.714844zm0 0" fill="#a7cc46"/><path d="m189.769531 833h94.714844v94.714844h-94.714844zm0 0" fill="#6ba840"/><path d="m189.769531 927.714844h94.714844v94.71875h-94.714844zm0 0" fill="#a7cc46"/><path d="m284.386719 738.382812h94.714843v94.714844h-94.714843zm0 0" fill="#6ba840"/><path d="m284.386719 833h94.714843v94.714844h-94.714843zm0 0" fill="#a7cc46"/><path d="m284.386719 927.714844h94.714843v94.71875h-94.714843zm0 0" fill="#6ba840"/><path d="m683.65625 428.925781c0 41.816407-33.898438 75.714844-75.714844 75.714844-41.8125 0-75.710937-33.898437-75.710937-75.714844 0-41.8125 33.898437-75.710937 75.710937-75.710937 41.816406 0 75.714844 33.898437 75.714844 75.710937zm0 0" fill="#6ba840"/></svg>