<svg height="1135pt" viewBox="-10 1 1135 1135.9" width="1135pt" xmlns="http://www.w3.org/2000/svg"><path d="m95.171875 284.050781h946.664063v757.332031h-946.664063zm0 0" fill="#c69c6d"/><path d="m1041.835938 284.050781h-946.664063l94.613281-189.335937h757.433594zm0 0" fill="#a67c52"/><path d="m738.882812 284.050781-56.808593-189.335937h-227.140625l-56.808594 189.335937zm0 0" fill="#6ba840"/><path d="m398.125 284.050781h340.859375v151.425781h-340.859375zm0 0" fill="#a7cc46"/><path d="m568.453125 719.527344v75.710937h-75.710937c-50.910157 0-99.621094-20.5-135.226563-56.808593-11.101563-11.402344-20.804687-24.105469-28.804687-37.90625-16.601563-28.804688-25.402344-61.410157-25.402344-94.714844v-75.714844h75.710937c6.402344 0 12.703125.398438 18.902344.898438 12.804687 1.300781 25.507813 3.902343 37.910156 7.800781 79.011719 24.90625 132.621094 98.019531 132.621094 180.734375zm0 0" fill="#a7cc46"/><path d="m435.929688 852.050781h265.046874v37.90625h-265.046874zm0 0" fill="#8c6239"/><path d="m379.121094 927.761719h378.664062v37.910156h-378.664062zm0 0" fill="#8c6239"/><g fill="#998675"><path d="m417.027344 1136h-340.859375c-41.808594 0-75.714844-33.90625-75.714844-75.714844v-151.425781h37.90625v151.425781c0 20.90625 17.003906 37.90625 37.90625 37.90625h340.863281v37.808594zm0 0"/><path d="m454.933594 1098.191406h37.90625v37.910156h-37.90625zm0 0"/><path d="m1081.742188 216.738281-89.414063-178.832031h-291.25v-37.90625h302.953125c7.199219 0 13.800781 4 17.003906 10.5l94.714844 189.335938zm0 0"/><path d="m625.261719 0h37.910156v37.90625h-37.910156zm0 0"/></g><path d="m568.453125 768.335938v26.902343h-26.902344l-56.613281-56.808593h-127.320312c-11.101563-11.402344-20.804688-24.105469-28.804688-37.90625h118.320312l-143.726562-143.523438v-26.90625h26.90625l67.8125 68.011719v-67.011719c12.800781 1.300781 25.503906 3.902344 37.90625 7.800781v97.117188zm0 0" fill="#6ba840"/><path d="m568.453125 719.527344v75.710937h75.714844c50.90625 0 99.617187-20.5 135.222656-56.808593 11.101563-11.402344 20.804687-24.105469 28.804687-37.90625 16.601563-28.804688 25.40625-61.410157 25.40625-94.714844v-75.714844h-75.816406c-6.398437 0-12.699218.398438-18.902344.898438-12.800781 1.300781-25.503906 3.902343-37.90625 7.800781-78.8125 24.90625-132.421874 98.019531-132.523437 180.734375zm0 0" fill="#a7cc46"/><path d="m568.453125 768.335938v26.902343h26.90625l56.609375-56.808593h127.421875c11.101563-11.402344 20.804687-24.105469 28.804687-37.90625h-118.320312l143.726562-143.523438v-26.90625h-26.90625l-67.8125 68.011719v-67.011719c-12.800781 1.300781-25.503906 3.902344-37.90625 7.800781v97.117188zm0 0" fill="#6ba840"/></svg>