<svg height="1060pt" viewBox="0 0 1060.2 1060" width="1060pt" xmlns="http://www.w3.org/2000/svg"><path d="m113.589844 1060.101562s75.691406-75.695312 75.691406-302.871093c0-227.179688-37.894531-302.875-37.894531-302.875h340.765625s-37.894532 75.695312-37.894532 302.875c0 227.175781 75.691407 302.871093 75.691407 302.871093zm0 0" fill="#ccc"/><path d="m113.589844 378.664062h416.460937v75.691407h-416.460937zm0 0" fill="#6ba840"/><path d="m492.152344 378.664062v-47.296874c0-29.796876 14-57.792969 37.898437-75.691407 23.796875-17.898437 37.894531-45.894531 37.894531-75.691406v-179.882813h-151.484374v75.691407c0 52.296875-42.394532 94.691406-94.691407 94.691406s-94.691406 42.394531-94.691406 94.691406v18.898438c-41.796875 0-75.691406 33.894531-75.691406 75.691406v18.898437zm0 0" fill="#a7cc46"/><path d="m605.742188 1060.101562s75.695312-75.695312 75.695312-302.871093c0-227.179688-37.898438-302.875-37.898438-302.875h340.769532s-37.898438 75.695312-37.898438 302.875c0 227.175781 75.695313 302.871093 75.695313 302.871093zm0 0" fill="#ccc"/><path d="m340.769531 643.640625h530.046875v416.460937h-530.046875zm0 0" fill="#e6e6e6"/><path d="m605.742188 378.664062h416.460937v75.691407h-416.460937zm0 0" fill="#6ba840"/><g fill="#b3b3b3"><path d="m776.125 700.433594h37.898438v37.898437h-37.898438zm0 0"/><path d="m776.125 776.226562h37.898438v37.898438h-37.898438zm0 0"/><path d="m700.332031 700.433594h37.898438v37.898437h-37.898438zm0 0"/><path d="m700.332031 776.226562h37.898438v37.898438h-37.898438zm0 0"/><path d="m624.640625 700.433594h37.898437v37.898437h-37.898437zm0 0"/><path d="m624.640625 776.226562h37.898437v37.898438h-37.898437zm0 0"/></g><path d="m984.308594 378.664062v-47.296874c0-29.796876 13.996094-57.792969 37.894531-75.691407 23.796875-17.898437 37.898437-45.894531 37.898437-75.691406v-179.882813h-151.488281v75.691407c0 52.296875-42.394531 94.691406-94.691406 94.691406-52.292969 0-94.691406 42.394531-94.691406 94.691406v18.898438c-41.792969 0-75.691407 33.894531-75.691407 75.691406v18.898437zm0 0" fill="#a7cc46"/><path d="m321.769531 321.871094h-37.796875c.101563-52.296875 42.398438-94.59375 94.691406-94.691406v37.894531c-31.496093 0-56.894531 25.5-56.894531 56.796875zm0 0" fill="#d5e174"/><path d="m851.820312 321.871094h-37.898437c.101563-52.296875 42.398437-94.59375 94.691406-94.691406v37.894531c-31.394531 0-56.792969 25.5-56.792969 56.796875zm0 0" fill="#d5e174"/><path d="m416.460938 227.277344v-37.894532c31.398437 0 56.792968-25.398437 56.792968-56.796874h37.898438c-.101563 52.296874-42.496094 94.59375-94.691406 94.691406zm0 0" fill="#d5e174"/><path d="m813.921875 567.945312h37.898437v75.695313h-37.898437zm0 0" fill="#6ba840"/><path d="m738.230469 567.945312h37.894531v75.695313h-37.894531zm0 0" fill="#6ba840"/><path d="m624.640625 965.507812h246.078125v37.898438h-246.078125zm0 0" fill="#6ba840"/><path d="m965.410156 75.792969h37.894532v75.691406h-37.894532zm0 0" fill="#d5e174"/><path d="m0 1060.101562c0-177.683593 144.085938-321.769531 321.769531-321.769531 177.683594 0 321.769531 144.085938 321.769531 321.769531zm0 0" fill="#a7cc46"/><path d="m227.179688 908.714844c41.796874 0 75.691406 33.894531 75.691406 75.691406v75.695312h-151.484375v-75.695312c0-41.796875 33.894531-75.691406 75.792969-75.691406zm0 0" fill="#6ba840"/><path d="m359.667969 927.613281h37.894531v37.894531h-37.894531zm0 0" fill="#2a6429"/><path d="m435.359375 927.613281h37.894531v37.894531h-37.894531zm0 0" fill="#2a6429"/></svg>