<svg height="1135pt" viewBox="-75 1 1135 1135.9" width="1135pt" xmlns="http://www.w3.org/2000/svg"><path d="m871.417969 94.714844c-31.40625 0-56.8125 25.40625-56.8125 56.8125v397.570312h-681.617188v-397.671875c0-31.40625 25.402344-56.808593 56.808594-56.808593h681.621094zm0 0" fill="#a7cc46"/><path d="m871.417969 94.714844c31.402343 0 56.808593 25.40625 56.808593 56.8125v132.523437h-113.621093v-132.625c0-31.304687 25.503906-56.710937 56.8125-56.710937zm0 0" fill="#6ba840"/><path d="m.464844 738.429688h946.664062v75.714843h-946.664062zm0 0" fill="#b3b3b3"/><path d="m57.273438 511.191406h833.046874v227.238282h-833.046874zm0 0" fill="#e6e6e6"/><g fill="#a7cc46"><path d="m114.082031 814.144531h37.90625v246.140625h-37.90625zm0 0"/><path d="m189.796875 814.144531h37.90625v189.332031h-37.90625zm0 0"/><path d="m265.609375 814.144531h37.90625v132.523438h-37.90625zm0 0"/><path d="m341.324219 814.144531h37.90625v246.140625h-37.90625zm0 0"/><path d="m417.035156 814.144531h37.90625v208.234375h-37.90625zm0 0"/><path d="m492.75 814.144531h37.90625v75.710938h-37.90625zm0 0"/><path d="m568.464844 814.144531h37.90625v189.332031h-37.90625zm0 0"/><path d="m644.277344 814.144531h37.90625v265.046875h-37.90625zm0 0"/><path d="m719.988281 814.144531h37.910157v170.429688h-37.910157zm0 0"/><path d="m795.703125 814.144531h37.90625v227.238281h-37.90625zm0 0"/><path d="m114.082031 1098.191406h37.90625v37.910156h-37.90625zm0 0"/><path d="m492.75 927.761719h37.90625v37.910156h-37.90625zm0 0"/><path d="m795.703125 1079.191406h37.90625v37.90625h-37.90625zm0 0"/></g><path d="m114.082031 568h37.90625v37.90625h-37.90625zm0 0" fill="#2a6429"/><path d="m114.082031 643.714844h37.90625v37.90625h-37.90625zm0 0" fill="#2a6429"/><path d="m208.800781 586.902344h227.238281v75.714844h-227.238281zm0 0" fill="#29abe2"/><path d="m246.605469 170.429688h37.90625v37.90625h-37.90625zm0 0" fill="#2a6429"/><path d="m322.320312 170.429688h113.621094v37.90625h-113.621094zm0 0" fill="#2a6429"/><path d="m208.800781 246.144531h227.238281v37.90625h-227.238281zm0 0" fill="#2a6429"/><path d="m208.800781 321.855469h227.238281v37.90625h-227.238281zm0 0" fill="#2a6429"/><path d="m208.800781 397.570312h151.425781v37.90625h-151.425781zm0 0" fill="#2a6429"/><path d="m549.558594 170.429688h37.90625v37.90625h-37.90625zm0 0" fill="#2a6429"/><path d="m625.273438 170.429688h113.621093v37.90625h-113.621093zm0 0" fill="#2a6429"/><path d="m511.652344 246.144531h227.242187v37.90625h-227.242187zm0 0" fill="#2a6429"/><path d="m511.652344 321.855469h227.242187v37.90625h-227.242187zm0 0" fill="#2a6429"/><path d="m511.652344 397.570312h151.425781v37.90625h-151.425781zm0 0" fill="#2a6429"/><path d="m76.175781 227.238281h-37.90625v-94.714843c.199219-73.113282 59.511719-132.421876 132.625-132.523438h265.046875v37.90625h-265.046875c-52.308593.101562-94.617187 42.40625-94.71875 94.71875zm0 0" fill="#d5e174"/><path d="m473.847656 0h37.90625v37.90625h-37.90625zm0 0" fill="#d1e26d"/><path d="m985.035156 605.90625h-37.90625v-113.621094c0-20.902344-17-37.90625-37.90625-37.90625h-37.90625v-37.90625h37.90625c41.808594 0 75.714844 33.90625 75.714844 75.714844zm0 0" fill="#d5e174"/><path d="m985.035156 605.90625h-37.90625v-113.621094c0-20.902344-17-37.90625-37.90625-37.90625h-37.90625v-37.90625h37.90625c41.808594 0 75.714844 33.90625 75.714844 75.714844zm0 0" fill="#d5e174"/><path d="m947.230469 643.714844h37.90625v37.90625h-37.90625zm0 0" fill="#d5e174"/></svg>