<svg height="1133pt" viewBox="-4 0 1133 1133.2" width="1133pt" xmlns="http://www.w3.org/2000/svg"><path d="m562.601562 93.285156c-261.355468 0-473.21875 211.859375-473.21875 473.214844s211.863282 473.214844 473.21875 473.214844c261.351563 0 473.214844-211.859375 473.214844-473.214844s-211.863281-473.214844-473.214844-473.214844zm0 548.902344c-41.792968 0-75.6875-33.894531-75.6875-75.6875s33.894532-75.6875 75.6875-75.6875c41.792969 0 75.683594 33.894531 75.683594 75.6875s-33.890625 75.6875-75.683594 75.6875zm0 0" fill="#fbb03b"/><g fill="#f15a24"><path d="m601.691406 1133-2.496094-37.894531c11.996094-.796875 24.292969-2.097657 36.492188-3.796875l5.199219 37.492187c-13.097657 2-26.296875 3.300781-39.195313 4.199219zm0 0"/><path d="m680.078125 1122.101562-7.796875-36.992187c218.359375-46.292969 384.429688-224.359375 415.324219-445.523437l37.496093 5.199218c-33.09375 236.960938-211.0625 427.726563-445.023437 477.316406zm0 0"/><path d="m489.511719 41.492188-5.199219-37.492188c13.300781-1.800781 26.296875-3.199219 39.195312-4l2.5 37.894531c-12 .699219-24.296874 1.898438-36.496093 3.597657zm0 0"/><path d="m37.59375 493.414062-37.4960938-5.199218c33.0976558-236.960938 210.9648438-427.726563 445.0234378-477.316406l7.796875 36.992187c-218.359375 46.292969-384.429688 224.359375-415.324219 445.523437zm0 0"/><path d="m562.601562 377.234375c50.191407-.101563 98.382813 19.894531 133.875 55.390625l133.875-133.878906c-147.871093-147.773438-387.628906-147.773438-535.40625.101562l133.878907 133.875c35.394531-35.59375 83.585937-55.589844 133.777343-55.488281zm0 0"/><path d="m398.730469 661.082031c-25.195313-43.492187-31.996094-95.183593-18.898438-143.574219l-182.867187-48.992187c-54.191406 201.964844 65.589844 409.53125 267.550781 463.71875h.101563l48.992187-182.867187c-48.59375-12.898438-89.886719-44.691407-114.878906-88.285157zm0 0"/><path d="m726.472656 661.082031c-25.097656 43.492188-66.390625 75.289063-114.882812 88.1875l48.992187 182.867188c201.964844-54.089844 321.84375-261.65625 267.652344-463.621094l-182.867187 48.992187c13.097656 48.492188 6.300781 100.183594-18.894532 143.574219zm0 0"/><path d="m543.703125 547.601562h37.894531v37.894532h-37.894531zm0 0"/></g></svg>