<svg height="1116pt" viewBox="-85 0 1116 1116.8" width="1116pt" xmlns="http://www.w3.org/2000/svg"><path d="m95.019531 94.609375h189.316407v189.316406h-189.316407zm0 0" fill="#a7cc46"/><path d="m284.4375 283.925781h189.316406v189.316407h-189.316406zm0 0" fill="#a7cc46"/><path d="m473.753906 473.242188h189.316406v189.316406h-189.316406zm0 0" fill="#a7cc46"/><path d="m284.4375 473.242188h189.316406v189.316406h-189.316406zm0 0" fill="#6ba840"/><path d="m473.753906 283.925781h189.316406v189.316407h-189.316406zm0 0" fill="#6ba840"/><path d="m663.070312 473.242188h189.316407v189.316406h-189.316407zm0 0" fill="#6ba840"/><path d="m663.070312 94.609375h189.316407v189.316406h-189.316407zm0 0" fill="#6ba840"/><path d="m284.4375 94.609375h189.316406v189.316406h-189.316406zm0 0" fill="#6ba840"/><path d="m95.019531 283.925781h189.316407v189.316407h-189.316407zm0 0" fill="#6ba840"/><path d="m95.019531 473.242188h189.316407v189.316406h-189.316407zm0 0" fill="#a7cc46"/><path d="m473.753906 94.609375h189.316406v189.316406h-189.316406zm0 0" fill="#a7cc46"/><path d="m663.070312 283.925781h189.316407v189.316407h-189.316407zm0 0" fill="#a7cc46"/><path d="m341.140625 1041.195312h-37.804687c-73.203126-.101562-132.410157-59.40625-132.511719-132.511718v-170.417969h37.90625v170.417969c.097656 52.203125 42.402343 94.605468 94.707031 94.707031h37.902344zm0 0" fill="#29abe2"/><path d="m132.921875 662.558594h113.609375v75.707031h-113.609375zm0 0" fill="#2a6429"/><path d="m644.070312 1041.195312h-37.90625v-37.804687h37.90625c52.203126-.101563 94.605469-42.402344 94.707032-94.707031v-170.417969h37.902344v170.417969c-.097657 73.207031-59.40625 132.410156-132.609376 132.511718zm0 0" fill="#29abe2"/><path d="m700.875 662.558594h113.609375v75.707031h-113.609375zm0 0" fill="#2a6429"/><path d="m341.140625 927.582031h265.023437v189.320313h-265.023437zm0 0" fill="#e6e6e6"/><path d="m397.945312 984.390625h37.90625v75.707031h-37.90625zm0 0" fill="#b3b3b3"/><path d="m511.554688 984.390625h37.90625v75.707031h-37.90625zm0 0" fill="#b3b3b3"/><path d="m38.3125 302.828125h-37.902344v-227.121094c0-41.804687 33.902344-75.707031 75.707032-75.707031h170.414062v37.902344h-170.414062c-20.902344 0-37.902344 17.003906-37.902344 37.90625v227.019531zm0 0" fill="#d5e174"/><path d="m38.3125 302.828125h-37.902344v-227.121094c0-41.804687 33.902344-75.707031 75.707032-75.707031h170.414062v37.902344h-170.414062c-20.902344 0-37.902344 17.003906-37.902344 37.90625v227.019531zm0 0" fill="#d5e174"/><path d="m.410156 340.730469h37.902344v37.90625h-37.902344zm0 0" fill="#d5e174"/><path d="m909.191406 283.925781h37.902344v321.828125h-37.902344zm0 0" fill="#d5e174"/><path d="m909.191406 283.925781h37.902344v321.828125h-37.902344zm0 0" fill="#d5e174"/><path d="m909.191406 283.925781h37.902344v321.828125h-37.902344zm0 0" fill="#d5e174"/><path d="m909.191406 283.925781h37.902344v321.828125h-37.902344zm0 0" fill="#d5e174"/><path d="m909.191406 208.21875h37.902344v37.902344h-37.902344zm0 0" fill="#d5e174"/><path d="m909.191406 208.21875h37.902344v37.902344h-37.902344zm0 0" fill="#d5e174"/><path d="m568.363281 776.171875-18.902343-113.613281h-151.515626l-18.902343 113.613281zm0 0" fill="#e6e6e6"/><g fill="#2a6429"><path d="m379.042969 567.953125h37.90625v37.902344h-37.90625zm0 0"/><path d="m568.363281 567.953125h37.902344v37.902344h-37.902344zm0 0"/><path d="m189.726562 567.953125h37.90625v37.902344h-37.90625zm0 0"/><path d="m757.679688 567.953125h37.902343v37.902344h-37.902343zm0 0"/><path d="m379.042969 378.636719h37.90625v37.902343h-37.90625zm0 0"/><path d="m568.363281 378.636719h37.902344v37.902343h-37.902344zm0 0"/><path d="m189.726562 378.636719h37.90625v37.902343h-37.90625zm0 0"/><path d="m757.679688 378.636719h37.902343v37.902343h-37.902343zm0 0"/><path d="m379.042969 189.316406h37.90625v37.90625h-37.90625zm0 0"/><path d="m568.363281 189.316406h37.902344v37.90625h-37.902344zm0 0"/><path d="m189.726562 189.316406h37.90625v37.90625h-37.90625zm0 0"/><path d="m757.679688 189.316406h37.902343v37.90625h-37.902343zm0 0"/></g><path d="m322.238281 757.269531h302.929688v37.902344h-302.929688zm0 0" fill="#b3b3b3"/></svg>