<svg height="1116pt" viewBox="-107 1 1116 1116.9" width="1116pt" xmlns="http://www.w3.org/2000/svg"><g fill="#a7cc46"><path d="m341.285156 151.414062h113.613282c62.703124 0 113.609374 50.902344 113.609374 113.609376h-113.609374c-62.808594 0-113.613282-50.804688-113.613282-113.609376zm0 0"/><path d="m303.382812 359.730469h113.609376c83.609374 0 151.414062 67.808593 151.414062 151.414062h-113.507812c-83.707032 0-151.515626-67.804687-151.515626-151.414062zm0 0"/><path d="m568.40625 473.34375h113.609375c83.609375 0 151.414063-67.808594 151.414063-151.414062h-113.507813c-83.707031-.101563-151.515625 67.707031-151.515625 151.414062zm0 0"/><path d="m568.40625 227.21875h113.609375c62.707031 0 113.613281-50.902344 113.613281-113.609375h-113.613281c-62.703125 0-113.609375 50.804687-113.609375 113.609375zm0 0"/></g><path d="m549.503906 0h37.90625v37.902344h-37.90625zm0 0" fill="#8c6239"/><path d="m549.503906 75.707031h37.90625v549.050781h-37.90625zm0 0" fill="#8c6239"/><path d="m284.480469 889.78125c0-156.816406 127.113281-284.027344 284.027343-284.027344 156.914063 0 284.023438 127.113282 284.023438 284.027344zm0 0" fill="#a67c52"/><path d="m454.898438 1117c-34.105469 0-68.007813-5.300781-100.511719-15.703125l11.601562-36c62.90625 20.101563 130.8125 18.300781 192.617188-5.101563l249.222656-95.007812 13.5 35.402344-249.121094 94.910156c-37.601562 14.199219-77.304687 21.5-117.308593 21.5zm0 0" fill="#d5e174"/><path d="m315.085938 1086.097656-37.90625-15.703125 14.503906-35 37.902344 15.699219zm0 0" fill="#d5e174"/><path d="m511.601562 662.660156h37.902344v37.902344h-37.902344zm0 0" fill="#c69c6d"/><path d="m663.117188 700.460938h37.902343v37.90625h-37.902343zm0 0" fill="#c69c6d"/><path d="m868.632812 728.464844c-44.402343-82.207032-120.410156-142.710938-210.515624-167.414063l10-36.503906c100.109374 27.503906 184.515624 94.707031 233.921874 186.015625zm0 0" fill="#d5e174"/><path d="m.457031 700.460938h170.414063v265.027343h-170.414063zm0 0" fill="#a7cc46"/><path d="m.457031 700.460938h170.414063v265.027343h-170.414063zm0 0" fill="#a7cc46"/><path d="m170.871094 929.984375 167.414062 69.503906c72.609375 29.605469 153.816406 30.503907 227.023438 2.5l292.425781-111.507812c26.300781-10.300781 39.300781-39.90625 29.101563-66.207031 0-.101563-.101563-.199219-.101563-.398438-9.800781-25.703125-38.601563-38.503906-64.304687-28.703125-.5.199219-.898438.398437-1.398438.597656l-158.316406 67.308594c-8.699219 3.5-17.902344 5.800781-27.300782 6.699219 25.5-5.699219 41.601563-31.003906 35.902344-56.503906-4.800781-21.601563-23.902344-36.902344-46.003906-37.003907h-146.914062c-17.800782 0-35.300782-4.101562-51.304688-12.101562-58.804688-29.402344-123.609375-44.703125-189.316406-44.703125h-66.90625zm0 0" fill="#f2c09a"/><path d="m398.09375 870.878906c0-10.5 8.5-18.902344 18.898438-18.902344h208.21875c10.503906 0 18.902343 8.5 18.902343 18.902344 0 10.398438-8.5 18.902344-18.902343 18.902344h-208.21875c-10.5 0-18.898438-8.402344-18.898438-18.902344zm0 0" fill="#e9937c"/></svg>