<svg height="1124pt" viewBox="1 -51 1124.743 1124" width="1124pt" xmlns="http://www.w3.org/2000/svg"><g fill="#29abe2"><path d="m1034.492188 475.207031 37.753906-2.84375c-.980469-13.0625-2.496094-26.28125-4.503906-39.328125l-37.433594 5.683594c1.871094 12.175781 3.273437 24.425781 4.183594 36.488281zm0 0"/><path d="m70.191406 530.589844c5.023438 0 9.835938-1.996094 13.386719-5.546875l56.804687-56.804688-26.773437-26.777343-22.039063 22.042968c26.449219-260.097656 258.742188-449.503906 518.835938-423.054687 200.644531 20.40625 366.324219 165.691406 412.761719 361.949219l36.867187-8.707032c-65.199218-274.722656-340.757812-444.574218-615.480468-379.375-214.644532 50.941406-372.40625 233.820313-391.308594 453.617188l-26.511719-26.507813-26.734375 26.8125 56.804688 56.804688c3.550781 3.550781 8.363281 5.546875 13.386718 5.546875zm0 0"/><path d="m90.507812 548.105469-37.753906 2.839843c.980469 13.066407 2.496094 26.28125 4.503906 39.328126l37.433594-5.679688c-1.777344-12.175781-3.273437-24.429688-4.183594-36.488281zm0 0"/><path d="m1125 555.074219-56.804688-56.808594c-7.394531-7.390625-19.378906-7.390625-26.773437 0l-56.804687 56.808594 26.773437 26.773437 22.039063-22.042968c-26.449219 260.097656-258.742188 449.503906-518.835938 423.054687-200.644531-20.402344-366.324219-165.691406-412.761719-361.949219l-36.867187 8.710938c65.035156 274.757812 340.496094 444.773437 615.253906 379.734375 214.890625-50.863281 372.835938-233.953125 391.628906-453.980469l26.511719 26.507812zm0 0"/><path d="m638.238281 284.4375c0 41.828125-33.910156 75.738281-75.738281 75.738281s-75.738281-33.910156-75.738281-75.738281c0-75.742188 75.738281-151.480469 75.738281-151.480469s75.738281 75.738281 75.738281 151.480469zm0 0"/><path d="m259.542969 341.242188c0 41.828124 33.90625 75.738281 75.738281 75.738281 41.828125 0 75.738281-33.910157 75.738281-75.738281 0-75.742188-75.738281-151.480469-75.738281-151.480469s-75.738281 75.738281-75.738281 151.480469zm0 0"/><path d="m865.457031 341.242188c0 41.828124-33.90625 75.738281-75.738281 75.738281-41.828125 0-75.738281-33.910157-75.738281-75.738281 0-75.742188 75.738281-151.480469 75.738281-151.480469s75.738281 75.738281 75.738281 151.480469zm0 0"/><path d="m442.472656 549.523438c-119.160156 0-119.972656-74.773438-237.730468-75.738282-1.320313 12.578125-1.992188 25.21875-2.007813 37.871094.046875 198.691406 161.152344 359.726562 359.84375 359.683594 183.972656-.039063 338.273437-138.871094 357.679687-321.816406-117.832031-.886719-118.648437-75.738282-237.898437-75.738282-119.859375 0-119.859375 75.738282-239.886719 75.738282zm0 0"/></g><path d="m682.359375 653.667969c-119.933594 0-119.933594 75.738281-239.886719 75.738281-108.746094 0-119.121094-62.144531-209.535156-73.714844 79.308594 181.894532 291.054688 265.050782 472.949219 185.742188 60.246093-26.269532 112.128906-68.558594 150.011719-122.269532-59.722657-20.621093-81.097657-65.496093-173.539063-65.496093zm0 0" fill="#0071bc"/></svg>