<svg height="1053pt" viewBox="-92 1 1053 1053.65" width="1053pt" xmlns="http://www.w3.org/2000/svg"><path d="m576.136719 739.832031-15.605469-34.515625c24.210938-10.902344 46.820312-24.910156 67.328125-41.613281l24.007813 29.308594c-23.007813 18.808593-48.519532 34.515625-75.730469 46.820312zm0 0" fill="#6ba840"/><path d="m284.226562 978.320312h303.015626v75.730469h-303.015626zm0 0" fill="#b3b3b3"/><path d="m565.535156 844.871094-11.304687-36.113282c59.523437-18.609374 113.941406-50.921874 158.660156-94.335937l26.507813 27.210937c-49.117188 47.515626-108.640626 82.929688-173.863282 103.238282zm0 0" fill="#6ba840"/><path d="m13.425781 535.851562c-36.613281-146.554687 4.902344-301.613281 109.839844-410.355468l27.109375 26.410156c-95.734375 99.238281-133.648438 240.792969-100.335938 374.644531zm0 0" fill="#6ba840"/><path d="m177.585938 126.597656-24.609376-28.8125c10.105469-8.601562 20.808594-16.804687 31.613282-24.507812l21.808594 31.011718c-9.90625 6.902344-19.609376 14.40625-28.8125 22.308594zm0 0" fill="#3eaa33"/><path d="m99.355469 484.433594c-13.402344-81.628906 3.304687-165.363282 47.121093-235.589844l32.210938 20.007812c-38.914062 62.425782-53.820312 136.953126-41.917969 209.578126zm0 0" fill="#6ba840"/><path d="m201.394531 236.941406-29.308593-24.011718c8.902343-10.804688 18.40625-21.105469 28.609374-30.710938l26.109376 27.410156c-9.101563 8.605469-17.503907 17.707032-25.410157 27.3125zm0 0" fill="#6ba840"/><path d="m435.785156 353.382812-56.820312-56.820312v-94.734375c0-73.628906 29.210937-144.257813 81.328125-196.277344 7.402343-7.402343 19.410156-7.402343 26.8125 0 3.5 3.503907 5.5 8.40625 5.5 13.40625v277.605469zm0 0" fill="#b3b3b3"/><path d="m370.160156 467.027344-20.808594 77.628906-82.03125 47.320312c-63.722656 36.8125-139.550781 46.816407-210.578124 27.707032-10.105469-2.699219-16.105469-13.101563-13.40625-23.207032 1.300781-4.800781 4.5-9.003906 8.804687-11.503906l240.390625-138.851562zm0 0" fill="#b3b3b3"/><path d="m501.410156 467.027344 77.628906-20.808594 82.03125 47.320312c63.722657 36.8125 110.242188 97.433594 129.25 168.5625 2.699219 10.105469-3.300781 20.507813-13.40625 23.207032-4.800781 1.300781-10.003906.601562-14.304687-1.898438l-240.390625-138.753906zm0 0" fill="#b3b3b3"/><path d="m530.421875 978.320312h-189.371094l39.414063-246.191406 12.105468-75.730468 26.910157-167.863282h32.609375l26.910156 167.863282 12.105469 75.730468zm0 0" fill="#e6e6e6"/><path d="m491.105469 732.128906h-110.640625l12.105468-75.730468h86.429688zm0 0" fill="#6ba840"/><path d="m284.226562 978.320312h303.015626v75.730469h-303.015626zm0 0" fill="#b3b3b3"/><g fill="#6ba840"><path d="m831.835938 392.898438c-1.101563-12.003907-2.703126-24.109376-4.902344-36.113282l37.214844-6.800781c2.398437 13.304687 4.199218 26.507813 5.402343 39.613281zm0 0"/><path d="m730.296875 357.785156c-2.902344-12.105468-6.601563-24.007812-10.90625-35.613281l35.414063-13.40625c4.902343 13.105469 9.105468 26.511719 12.304687 40.117187zm0 0"/><path d="m703.1875 286.558594c-34.613281-64.925782-91.734375-115.042969-160.5625-141.054688l13.40625-35.414062c77.429688 29.3125 141.554688 85.632812 180.46875 158.5625zm0 0"/><path d="m818.53125 320.671875c-38.015625-132.652344-141.65625-236.289063-274.304688-274.304687l10.304688-36.414063c145.253906 41.617187 258.796875 155.160156 300.414062 300.414063zm0 0"/><path d="m511.511719 429.113281c0 41.824219-33.902344 75.726563-75.726563 75.726563-41.824218 0-75.730468-33.902344-75.730468-75.726563s33.90625-75.730469 75.730468-75.730469c41.824219 0 75.726563 33.90625 75.726563 75.730469zm0 0"/></g></svg>