<?xml version="1.0" encoding="iso-8859-1"?>
<!-- Generator: Adobe Illustrator 19.0.0, SVG Export Plug-In . SVG Version: 6.00 Build 0)  -->
<svg version="1.1" id="Capa_1" xmlns="http://www.w3.org/2000/svg" xmlns:xlink="http://www.w3.org/1999/xlink" x="0px" y="0px"
	 viewBox="0 0 512.006 512.006" style="enable-background:new 0 0 512.006 512.006;" xml:space="preserve">
<path style="fill:#FFA000;" d="M40.102,102.484v103.95c0,22.389,17.591,39.981,39.981,39.981h23.988
	c4.798,0,7.996,3.198,7.996,7.996v36.782c0,7.197,8.796,10.395,13.593,5.597l38.381-38.381c7.197-7.197,17.591-11.994,27.986-11.994
	h63.969c22.389,0,39.981-17.591,39.981-39.981v-103.95c0-22.389-17.591-39.981-39.981-39.981H80.082
	C57.693,62.503,40.102,80.894,40.102,102.484z"/>
<path style="fill:#37474F;" d="M120.111,303.067c-1.583,0-3.182-0.312-4.718-0.944c-4.518-1.871-7.324-6.061-7.324-10.931V254.41
	c0-2.575-1.423-3.998-3.998-3.998H80.082c-24.66,0-43.979-19.319-43.979-43.979v-103.95c0-24.252,19.726-43.979,43.979-43.979
	h175.915c24.652,0,43.979,19.319,43.979,43.979v103.95c0,24.66-19.319,43.979-43.979,43.979h-63.969
	c-8.98,0-18.383,4.046-25.156,10.827l-38.381,38.381C126.228,301.875,123.213,303.067,120.111,303.067z M80.082,66.501
	c-19.838,0-35.983,16.144-35.983,35.983v103.95c0,20.174,15.808,35.983,35.983,35.983h23.988c6.949,0,11.994,5.046,11.994,11.994
	v36.782c0,2.303,1.663,3.246,2.383,3.542c1.223,0.504,3.031,0.576,4.382-0.776l38.381-38.381c8.244-8.244,19.758-13.17,30.817-13.17
	h63.969c20.174,0,35.983-15.808,35.983-35.983v-103.95c0-20.174-15.808-35.983-35.983-35.983H80.082V66.501z"/>
<path style="fill:#FFCA28;" d="M40.102,70.499v103.95c0,22.389,17.591,39.981,39.981,39.981h23.988c4.798,0,7.996,3.198,7.996,7.996
	v36.782c0,7.197,8.796,10.395,13.593,5.597l38.381-38.381c7.197-7.197,17.591-11.994,27.986-11.994h63.969
	c22.389,0,39.981-17.591,39.981-39.981V70.5c0-22.389-17.591-39.981-39.981-39.981H80.082C57.693,30.519,40.102,48.91,40.102,70.499
	z"/>
<path style="fill:#37474F;" d="M120.111,271.082c-1.583,0-3.182-0.312-4.718-0.944c-4.518-1.871-7.324-6.061-7.324-10.931v-36.782
	c0-2.575-1.423-3.998-3.998-3.998H80.082c-24.66,0-43.979-19.319-43.979-43.979V70.499c0-24.252,19.726-43.979,43.979-43.979
	h175.915c24.652,0,43.979,19.319,43.979,43.979v103.95c0,24.66-19.319,43.979-43.979,43.979h-63.969
	c-8.98,0-18.383,4.046-25.156,10.827l-38.381,38.381C126.228,269.891,123.213,271.082,120.111,271.082z M80.082,34.517
	c-19.838,0-35.983,16.144-35.983,35.983v103.95c0,20.174,15.808,35.983,35.983,35.983h23.988c6.949,0,11.994,5.046,11.994,11.994
	v36.782c0,2.303,1.663,3.246,2.383,3.542c1.223,0.504,3.031,0.576,4.382-0.776l38.381-38.381
	c8.244-8.244,19.766-13.162,30.817-13.162h63.969c20.174,0,35.983-15.808,35.983-35.983V70.5c0-20.174-15.808-35.983-35.983-35.983
	L80.082,34.517L80.082,34.517z"/>
<path style="fill:#FFE082;" d="M56.094,106.482c-2.207,0-3.998-1.791-3.998-3.998V70.499c0-15.688,12.298-27.986,27.986-27.986
	h31.985c2.207,0,3.998,1.791,3.998,3.998c0,2.207-1.791,3.998-3.998,3.998H80.082c-11.394,0-19.99,8.596-19.99,19.99v31.985
	C60.092,104.691,58.309,106.482,56.094,106.482z"/>
<path style="fill:#D32F2F;" d="M471.893,286.395v103.95c0,22.389-17.591,39.981-39.981,39.981h-23.988
	c-4.798,0-7.996,3.198-7.996,7.996v36.782c0,7.197-8.796,10.395-13.593,5.597l-38.381-38.381
	c-7.197-7.197-17.591-11.994-27.986-11.994h-63.969c-22.389,0-39.981-17.591-39.981-39.981v-103.95
	c0-22.389,17.591-39.981,39.981-39.981h175.915C454.301,246.414,471.893,264.805,471.893,286.395z"/>
<path style="fill:#37474F;" d="M391.891,486.978c-3.103,0-6.125-1.191-8.38-3.454l-38.389-38.381
	c-6.773-6.781-16.168-10.827-25.156-10.827h-63.969c-24.66,0-43.979-19.319-43.979-43.979v-103.95
	c0-24.66,19.319-43.979,43.979-43.979h175.915c24.244,0,43.979,19.726,43.979,43.979v103.95c0,24.66-19.319,43.979-43.979,43.979
	h-23.988c-2.575,0-3.998,1.423-3.998,3.998v36.782c0,4.87-2.807,9.068-7.324,10.931
	C395.074,486.666,393.467,486.978,391.891,486.978z M255.997,250.412c-20.174,0-35.983,15.808-35.983,35.983v103.95
	c0,20.174,15.808,35.983,35.983,35.983h63.969c11.059,0,22.581,4.918,30.817,13.162l38.389,38.381
	c1.351,1.351,3.158,1.279,4.382,0.776c0.712-0.296,2.383-1.231,2.383-3.542v-36.782c0-7.061,4.934-11.994,11.994-11.994h23.988
	c20.174,0,35.983-15.808,35.983-35.983v-103.95c0-19.838-16.144-35.983-35.983-35.983L255.997,250.412L255.997,250.412z"/>
<path style="fill:#EF5350;" d="M471.893,254.41v103.95c0,22.389-17.591,39.981-39.981,39.981h-23.988
	c-4.798,0-7.996,3.198-7.996,7.996v36.782c0,7.197-8.796,10.395-13.593,5.597l-38.381-38.381
	c-7.197-7.197-17.591-11.994-27.986-11.994h-63.969c-22.389,0-39.981-17.591-39.981-39.981V254.41
	c0-22.389,17.591-39.981,39.981-39.981h175.915C454.301,214.43,471.893,232.821,471.893,254.41z"/>
<path style="fill:#37474F;" d="M391.891,454.993c-3.103,0-6.125-1.191-8.38-3.454l-38.389-38.381
	c-6.773-6.781-16.168-10.827-25.156-10.827h-63.969c-24.66,0-43.979-19.319-43.979-43.979v-103.95
	c0-24.66,19.319-43.979,43.979-43.979h175.915c24.244,0,43.979,19.726,43.979,43.979v103.95c0,24.66-19.319,43.979-43.979,43.979
	h-23.988c-2.575,0-3.998,1.423-3.998,3.998v36.782c0,4.87-2.807,9.068-7.324,10.931
	C395.074,454.681,393.467,454.993,391.891,454.993z M255.997,218.428c-20.174,0-35.983,15.808-35.983,35.983v103.95
	c0,20.174,15.808,35.983,35.983,35.983h63.969c11.059,0,22.581,4.918,30.817,13.162l38.389,38.381
	c1.351,1.351,3.158,1.279,4.382,0.776c0.712-0.296,2.383-1.231,2.383-3.542v-36.782c0-7.061,4.934-11.994,11.994-11.994h23.988
	c20.174,0,35.983-15.808,35.983-35.983V254.41c0-19.838-16.144-35.983-35.983-35.983L255.997,218.428L255.997,218.428z"/>
<path style="fill:#EF9A9A;" d="M232.009,290.393c-2.207,0-3.998-1.791-3.998-3.998V254.41c0-15.688,12.298-27.986,27.986-27.986
	h31.985c2.207,0,3.998,1.791,3.998,3.998c0,2.207-1.791,3.998-3.998,3.998h-31.985c-11.394,0-19.99,8.596-19.99,19.99v31.984
	C236.007,288.602,234.224,290.393,232.009,290.393z"/>
<path style="fill:#ECEFF1;" d="M402.326,349.564l-47.977-95.954c-2.399-3.998-6.397-6.397-10.395-6.397
	c-3.998,0-8.796,2.399-10.395,6.397l-47.977,95.954c-3.198,5.597-0.8,12.794,5.597,15.992c5.597,3.198,12.794,0.8,15.992-5.597
	l8.796-17.591h56.772l8.796,17.591c2.399,3.998,6.397,6.397,10.395,6.397c1.599,0,3.998-0.8,5.597-1.599
	C403.126,362.358,405.525,355.162,402.326,349.564z M327.163,318.379l16.792-32.784l16.792,32.784H327.163z"/>
<path style="fill:#37474F;" d="M296.466,370.962c-2.527,0-5.022-0.648-7.268-1.943c-3.966-1.967-7.093-5.581-8.372-9.811
	c-1.191-3.95-0.744-8.084,1.279-11.634l47.873-95.754c2.207-5.549,8.732-8.612,13.969-8.612c5.437,0,10.739,3.19,13.825,8.332
	l48.081,96.129c2.055,3.67,2.463,8.068,1.111,12.09c-1.319,3.926-4.182,7.093-7.86,8.668c-1.671,0.832-4.726,1.919-7.173,1.919
	c-5.445,0-10.739-3.19-13.825-8.348l-7.828-15.64h-51.839l-7.684,15.377c-2.087,4.166-5.709,7.292-9.931,8.572
	C299.384,370.754,297.921,370.962,296.466,370.962z M343.955,251.212c-2.479,0-5.749,1.559-6.685,3.886l-48.113,96.249
	c-1.032,1.815-1.231,3.718-0.68,5.541c0.656,2.167,2.247,3.966,4.494,5.086c1.815,1.032,3.71,1.231,5.533,0.688
	c2.167-0.656,3.966-2.247,5.094-4.502l8.796-17.583c0.68-1.351,2.063-2.207,3.574-2.207h56.781c1.511,0,2.895,0.856,3.574,2.207
	l8.796,17.583c1.503,2.487,4.166,4.19,6.821,4.19c0.68,0,2.423-0.488,3.822-1.175c1.799-0.784,3.047-2.183,3.646-3.958
	c0.632-1.895,0.44-3.966-0.536-5.677c-0.032-0.064-0.072-0.136-0.104-0.192l-47.977-95.954
	C349.272,252.915,346.601,251.212,343.955,251.212z M360.754,322.378h-33.584c-1.391,0-2.687-0.728-3.414-1.911
	c-0.728-1.183-0.784-2.671-0.152-3.902l16.792-32.792c1.375-2.671,5.749-2.671,7.125,0l16.8,32.792
	c0.632,1.231,0.576,2.719-0.152,3.902C363.441,321.65,362.138,322.378,360.754,322.378z M333.704,314.381h20.502l-10.251-20.022
	L333.704,314.381z"/>
<path style="fill:#ECEFF1;" d="M218.415,156.058c6.397-9.595,9.595-20.79,9.595-32.784c0-32.784-27.187-59.971-59.971-59.971
	s-59.971,27.187-59.971,59.971s27.187,59.971,59.971,59.971c11.994,0,23.189-3.998,32.784-9.595l6.397,6.397
	c2.399,2.399,5.597,3.198,8.796,3.198c3.198,0,6.397-0.8,8.796-3.198c4.798-4.798,4.798-11.994,0-16.792L218.415,156.058z
	 M168.04,158.457c-19.99,0-35.983-15.992-35.983-35.983s15.992-35.983,35.983-35.983s35.983,15.992,35.983,35.983
	c0,5.597-1.599,10.395-3.998,15.193l-7.197-7.197c-4.798-4.798-11.994-4.798-16.792,0c-4.798,4.798-4.798,11.994,0,16.792
	l7.197,7.197C178.435,157.657,173.637,158.457,168.04,158.457z"/>
<path style="fill:#37474F;" d="M216.017,187.243c-4.814,0-8.716-1.471-11.618-4.366l-4.262-4.262
	c-10.659,5.725-21.446,8.628-32.096,8.628c-35.271,0-63.969-28.698-63.969-63.969s28.698-63.969,63.969-63.969
	s63.969,28.698,63.969,63.969c0,11.906-2.895,22.781-8.612,32.376l4.398,4.95c6.237,6.229,6.237,15.872-0.16,22.277
	C224.74,185.772,220.83,187.243,216.017,187.243z M200.832,169.651c1.031,0,2.055,0.4,2.831,1.167l6.397,6.397
	c2.735,2.727,9.204,2.727,11.946,0c3.222-3.222,3.222-7.908,0-11.139l-6.557-7.364c-1.207-1.359-1.343-3.358-0.336-4.87
	c5.925-8.884,8.924-19.167,8.924-30.569c0-30.337-25.636-55.973-55.973-55.973s-55.973,25.636-55.973,55.973
	s25.636,55.973,55.973,55.973c10.123,0,20.47-3.047,30.769-9.052C199.441,169.827,200.136,169.651,200.832,169.651z M168.04,162.455
	c-22.045,0-39.981-17.935-39.981-39.981s17.935-39.981,39.981-39.981s39.981,17.935,39.981,39.981
	c0,5.629-1.359,10.867-4.422,16.984c-0.576,1.151-1.663,1.951-2.935,2.159c-1.287,0.224-2.559-0.208-3.47-1.119l-7.197-7.197
	c-3.222-3.23-7.916-3.222-11.139,0c-3.222,3.23-3.222,7.908,0,11.139l7.197,7.197c0.848,0.848,1.271,2.023,1.151,3.222
	c-0.12,1.191-0.768,2.271-1.759,2.935C179.29,161.895,173.189,162.455,168.04,162.455z M168.04,90.49
	c-17.639,0-31.984,14.345-31.984,31.985s14.345,31.985,31.984,31.985c3.047,0,5.781-0.224,8.436-1.103l-3.27-3.27
	c-6.397-6.397-6.397-16.048,0-22.445c6.389-6.389,16.04-6.397,22.445,0l2.999,2.999c0.936-2.815,1.367-5.453,1.367-8.164
	C200.024,104.835,185.679,90.49,168.04,90.49z"/>
<path style="fill:#ECEFF1;" d="M347.953,71.299L347.953,71.299c-6.397-2.399-8.796-9.595-6.397-15.992l18.391-43.979
	c2.399-6.397,9.595-8.796,15.992-6.397l0,0c6.397,2.399,8.796,9.595,6.397,15.992l-18.391,43.979
	C360.746,71.299,353.55,73.698,347.953,71.299z"/>
<path style="fill:#37474F;" d="M352.454,76.217c-2.015,0-4.054-0.392-5.997-1.215c-8.132-3.103-11.922-12.354-8.644-21.102
	l18.447-44.123c3.023-8.06,12.33-11.89,21.086-8.596c4.126,1.543,7.26,4.678,8.828,8.82c1.471,3.87,1.439,8.244-0.096,12.322
	l-18.455,44.123C364.553,72.626,358.571,76.217,352.454,76.217z M370.941,8.018c-3.039,0-6.013,1.415-7.253,4.71l-18.447,44.115
	c-1.431,3.83-0.504,8.972,4.118,10.707c0.056,0.024,0.12,0.048,0.168,0.072c3.494,1.503,8.492,0.208,10.835-4.502L378.65,19.38
	c0.792-2.119,0.832-4.486,0.048-6.533c-0.528-1.391-1.679-3.238-4.166-4.166C373.404,8.25,372.165,8.018,370.941,8.018z"/>
<path style="fill:#ECEFF1;" d="M400.727,107.282L400.727,107.282c-4.798-4.798-4.798-11.994,0-16.792l34.383-34.383
	c4.798-4.798,11.994-4.798,16.792,0l0,0c4.798,4.798,4.798,11.994,0,16.792l-33.584,33.584
	C413.521,112.079,405.525,112.079,400.727,107.282z"/>
<path style="fill:#37474F;" d="M409.163,114.782c-4.198,0-8.268-1.687-11.259-4.678l0,0l0,0l0,0
	c-3.078-3.079-4.774-7.061-4.774-11.219c0-4.166,1.695-8.156,4.774-11.227l34.383-34.383c6.141-6.157,16.304-6.157,22.445,0
	c3.078,3.071,4.774,7.061,4.774,11.219c0,4.166-1.695,8.156-4.774,11.227l-33.576,33.584c-2.799,3.278-6.909,5.293-11.394,5.469
	C409.555,114.782,409.363,114.782,409.163,114.782z M443.506,56.506c-2.023,0-4.006,0.864-5.565,2.431L403.558,93.32
	c-1.567,1.567-2.431,3.542-2.431,5.573c0,2.023,0.856,3.998,2.431,5.565l0,0c1.559,1.559,3.726,2.375,5.893,2.327
	c2.231-0.088,4.302-1.119,5.829-2.903l33.792-33.808c1.567-1.567,2.431-3.542,2.431-5.573c0-2.023-0.856-3.998-2.431-5.565
	C447.512,57.362,445.529,56.506,443.506,56.506z"/>
<path style="fill:#ECEFF1;" d="M436.71,160.056L436.71,160.056c-2.399-6.397,0-12.794,6.397-15.992l43.979-18.391
	c6.397-2.399,12.794,0,15.992,6.397l0,0c2.399,6.397,0,12.794-6.397,15.992l-43.979,18.391
	C446.305,169.651,439.108,166.453,436.71,160.056z"/>
<path style="fill:#37474F;" d="M447.56,171.722c-1.879,0-3.79-0.352-5.613-1.071c-4.126-1.615-7.396-4.966-8.972-9.196
	c-3.174-8.46,0.176-16.888,8.348-20.974l44.219-18.503c8.612-3.23,17.024,0.128,21.118,8.3c3.342,8.844-0.016,17.272-8.18,21.358
	l-44.219,18.503C452.166,171.187,449.879,171.722,447.56,171.722z M491.971,128.751c-1.119,0-2.279,0.216-3.478,0.664
	l-43.835,18.335c-4.206,2.111-5.909,6.333-4.198,10.899c0.8,2.103,2.399,3.766,4.414,4.55c1.935,0.768,4.086,0.656,6.053-0.336
	l44.219-18.503c4.206-2.111,5.909-6.333,4.198-10.899C497.816,130.47,495.113,128.751,491.971,128.751z"/>
<path style="fill:#ECEFF1;" d="M164.042,440.72L164.042,440.72c6.397,2.399,8.796,9.595,6.397,15.992l-18.391,43.979
	c-2.399,6.397-9.595,8.796-15.992,6.397l0,0c-6.397-2.399-8.796-9.595-6.397-15.992l18.391-43.979
	C151.248,440.72,158.444,438.321,164.042,440.72z"/>
<path style="fill:#37474F;" d="M141.045,512.006c-2.095,0-4.262-0.376-6.389-1.175c-4.126-1.543-7.26-4.678-8.828-8.82
	c-1.471-3.87-1.431-8.244,0.096-12.322l18.447-44.123c4.102-8.212,13.33-11.866,21.166-8.556c4.086,1.551,7.189,4.67,8.748,8.788
	c1.471,3.87,1.431,8.244-0.096,12.322l-18.447,44.123C153.455,508.327,147.578,512.006,141.045,512.006z M159.516,443.807
	c-2.951,0-6.141,1.607-7.884,5.102l-18.279,43.739c-0.784,2.079-0.824,4.51-0.048,6.525c0.52,1.391,1.671,3.238,4.158,4.174
	c3.974,1.471,9.124,0.568,10.843-4.062l18.447-44.123c0.784-2.079,0.824-4.51,0.048-6.525c-0.52-1.391-1.671-3.238-4.158-4.174
	c-0.056-0.016-0.12-0.04-0.168-0.064C161.563,444.007,160.555,443.807,159.516,443.807z"/>
<path style="fill:#ECEFF1;" d="M111.267,404.738L111.267,404.738c4.798,4.798,4.798,11.994,0,16.792l-34.383,34.383
	c-4.798,4.798-11.994,4.798-16.792,0l0,0c-4.798-4.798-4.798-11.994,0-16.792l33.584-33.584
	C98.473,399.94,106.47,399.94,111.267,404.738z"/>
<path style="fill:#37474F;" d="M68.488,463.501c-4.166,0-8.148-1.695-11.219-4.774c-3.079-3.07-4.774-7.061-4.774-11.219
	s1.695-8.156,4.774-11.219l33.584-33.584c2.783-3.27,6.901-5.293,11.378-5.469c4.334-0.12,8.732,1.535,11.858,4.67l0,0l0,0l0,0
	c3.079,3.078,4.774,7.061,4.774,11.219s-1.695,8.156-4.774,11.219l-34.383,34.383C76.644,461.814,72.654,463.501,68.488,463.501z
	 M102.839,405.225c-0.096,0-0.192,0-0.296,0.008c-2.223,0.08-4.294,1.111-5.821,2.895l-33.8,33.816
	c-1.567,1.559-2.431,3.542-2.431,5.565s0.864,4.006,2.431,5.565c3.142,3.15,8.012,3.142,11.139,0l34.383-34.383
	c1.567-1.559,2.431-3.542,2.431-5.565s-0.864-4.006-2.431-5.565l0,0C106.949,406.073,104.918,405.225,102.839,405.225z"/>
<path style="fill:#ECEFF1;" d="M75.285,351.963L75.285,351.963c2.399,6.397,0,12.794-6.397,15.992l-43.979,18.391
	c-6.397,2.399-12.794,0-15.992-6.397l0,0c-2.399-6.397,0-12.794,6.397-15.992l43.979-18.391
	C65.689,342.368,72.886,345.566,75.285,351.963z"/>
<path style="fill:#37474F;" d="M20.015,391.248c-6.157,0-11.626-3.422-14.665-9.515c-3.35-8.844,0.008-17.264,8.18-21.358
	l44.227-18.495c3.766-1.903,8.228-2.119,12.322-0.504c4.11,1.615,7.38,4.966,8.964,9.18l0,0c3.174,8.468-0.184,16.896-8.348,20.974
	l-44.227,18.503C24.269,390.848,22.102,391.248,20.015,391.248z M64.514,348.309c-1.159,0-2.327,0.272-3.43,0.832l-44.219,18.495
	c-4.206,2.119-5.909,6.341-4.19,10.899c2.055,4.062,6.253,5.765,10.843,4.07l43.835-18.343c4.206-2.119,5.909-6.333,4.19-10.899l0,0
	c-0.792-2.111-2.391-3.766-4.398-4.55C66.297,348.477,65.401,348.309,64.514,348.309z"/>
<g>
</g>
<g>
</g>
<g>
</g>
<g>
</g>
<g>
</g>
<g>
</g>
<g>
</g>
<g>
</g>
<g>
</g>
<g>
</g>
<g>
</g>
<g>
</g>
<g>
</g>
<g>
</g>
<g>
</g>
</svg>
